<svg xmlns="http://www.w3.org/2000/svg" xmlns:xlink="http://www.w3.org/1999/xlink" width="567" zoomAndPan="magnify" viewBox="0 0 425.25 491.999982" height="656" preserveAspectRatio="xMidYMid meet" version="1.0"><defs><g/><clipPath id="e52a98a40a"><path d="M 121.527344 75.851562 L 294.019531 75.851562 L 294.019531 248.347656 L 121.527344 248.347656 Z M 121.527344 75.851562 " clip-rule="nonzero"/></clipPath><clipPath id="e8636f72e8"><path d="M 207.773438 75.851562 C 160.140625 75.851562 121.527344 114.464844 121.527344 162.101562 C 121.527344 209.734375 160.140625 248.347656 207.773438 248.347656 C 255.40625 248.347656 294.019531 209.734375 294.019531 162.101562 C 294.019531 114.464844 255.40625 75.851562 207.773438 75.851562 " clip-rule="nonzero"/></clipPath><clipPath id="dc8263f814"><path d="M 75.148438 298.101562 L 349.164062 298.101562 L 349.164062 416.390625 L 75.148438 416.390625 Z M 75.148438 298.101562 " clip-rule="nonzero"/></clipPath><clipPath id="86ad0a419f"><path d="M 90.128906 298.101562 L 334.183594 298.101562 C 338.15625 298.101562 341.96875 299.683594 344.777344 302.496094 C 347.585938 305.3125 349.164062 309.128906 349.164062 313.109375 L 349.164062 401.378906 C 349.164062 405.359375 347.585938 409.179688 344.777344 411.992188 C 341.96875 414.808594 338.15625 416.390625 334.183594 416.390625 L 90.128906 416.390625 C 86.15625 416.390625 82.34375 414.808594 79.535156 411.992188 C 76.726562 409.179688 75.148438 405.359375 75.148438 401.378906 L 75.148438 313.109375 C 75.148438 309.128906 76.726562 305.3125 79.535156 302.496094 C 82.34375 299.683594 86.15625 298.101562 90.128906 298.101562 " clip-rule="nonzero"/></clipPath><clipPath id="f8826e5678"><path d="M 172 179 L 177 179 L 177 216.113281 L 172 216.113281 Z M 172 179 " clip-rule="nonzero"/></clipPath><clipPath id="8a7ee4b5a9"><path d="M 165.941406 196 L 177 196 L 177 206 L 165.941406 206 Z M 165.941406 196 " clip-rule="nonzero"/></clipPath><clipPath id="bb6a379b8b"><path d="M 183 202 L 187 202 L 187 216.113281 L 183 216.113281 Z M 183 202 " clip-rule="nonzero"/></clipPath><clipPath id="c731ce5ccd"><path d="M 165.941406 144 L 214 144 L 214 216.113281 L 165.941406 216.113281 Z M 165.941406 144 " clip-rule="nonzero"/></clipPath><clipPath id="ed9fee5629"><path d="M 239 179 L 243 179 L 243 216.113281 L 239 216.113281 Z M 239 179 " clip-rule="nonzero"/></clipPath><clipPath id="3c1f6ee09c"><path d="M 239 196 L 249.792969 196 L 249.792969 206 L 239 206 Z M 239 196 " clip-rule="nonzero"/></clipPath><clipPath id="bbe5ebe3c8"><path d="M 228 202 L 233 202 L 233 216.113281 L 228 216.113281 Z M 228 202 " clip-rule="nonzero"/></clipPath><clipPath id="3a1c132e2e"><path d="M 213 156 L 249.792969 156 L 249.792969 201 L 213 201 Z M 213 156 " clip-rule="nonzero"/></clipPath><clipPath id="906efd8969"><path d="M 209 165 L 222 165 L 222 216.113281 L 209 216.113281 Z M 209 165 " clip-rule="nonzero"/></clipPath><clipPath id="769c95c816"><path d="M 187 104.5625 L 229 104.5625 L 229 143 L 187 143 Z M 187 104.5625 " clip-rule="nonzero"/></clipPath><clipPath id="e6a8f325b6"><path d="M 170 104.5625 L 195 104.5625 L 195 133 L 170 133 Z M 170 104.5625 " clip-rule="nonzero"/></clipPath><clipPath id="01a63618d6"><path d="M 221 104.5625 L 246 104.5625 L 246 133 L 221 133 Z M 221 104.5625 " clip-rule="nonzero"/></clipPath></defs><g clip-path="url(#e52a98a40a)"><g clip-path="url(#e8636f72e8)"><path fill="#c01e3a" d="M 121.527344 75.851562 L 294.019531 75.851562 L 294.019531 248.347656 L 121.527344 248.347656 Z M 121.527344 75.851562 " fill-opacity="1" fill-rule="nonzero"/></g></g><g clip-path="url(#dc8263f814)"><g clip-path="url(#86ad0a419f)"><path stroke-linecap="round" transform="matrix(0.749063, 0, 0, 0.750535, 75.147553, 298.101118)" fill="none" stroke-linejoin="miter" d="M 20.000115 0.000592759 L 345.813273 0.000592759 C 351.116772 0.000592759 356.206461 2.108464 359.955936 5.85579 C 363.70541 9.608322 365.812208 14.693236 365.812208 19.996744 L 365.812208 137.605546 C 365.812208 142.909054 363.70541 147.999173 359.955936 151.746499 C 356.206461 155.49903 351.116772 157.606901 345.813273 157.606901 L 20.000115 157.606901 C 14.696617 157.606901 9.606927 155.49903 5.857452 151.746499 C 2.107978 147.999173 0.00118015 142.909054 0.00118015 137.605546 L 0.00118015 19.996744 C 0.00118015 14.693236 2.107978 9.608322 5.857452 5.85579 C 9.606927 2.108464 14.696617 0.000592759 20.000115 0.000592759 " stroke="#c01e3a" stroke-width="2" stroke-opacity="1" stroke-miterlimit="4"/></g></g><g clip-path="url(#f8826e5678)"><path fill="#000000" d="M 174.675781 216.113281 C 174.445312 216.113281 174.222656 216.070312 174.007812 215.980469 C 173.792969 215.890625 173.605469 215.765625 173.441406 215.601562 C 173.277344 215.4375 173.152344 215.25 173.0625 215.035156 C 172.972656 214.824219 172.929688 214.601562 172.929688 214.371094 L 172.929688 181.253906 C 172.929688 181.023438 172.972656 180.800781 173.0625 180.585938 C 173.152344 180.375 173.277344 180.183594 173.441406 180.019531 C 173.605469 179.859375 173.792969 179.730469 174.007812 179.644531 C 174.222656 179.554688 174.445312 179.511719 174.675781 179.511719 C 174.910156 179.511719 175.132812 179.554688 175.34375 179.644531 C 175.558594 179.730469 175.75 179.859375 175.910156 180.019531 C 176.074219 180.183594 176.203125 180.375 176.289062 180.585938 C 176.378906 180.800781 176.421875 181.023438 176.421875 181.253906 L 176.421875 214.371094 C 176.421875 214.601562 176.378906 214.824219 176.289062 215.035156 C 176.203125 215.25 176.074219 215.4375 175.910156 215.601562 C 175.75 215.765625 175.558594 215.890625 175.34375 215.980469 C 175.132812 216.070312 174.910156 216.113281 174.675781 216.113281 Z M 174.675781 216.113281 " fill-opacity="1" fill-rule="nonzero"/></g><g clip-path="url(#8a7ee4b5a9)"><path fill="#000000" d="M 174.675781 205.65625 C 169.855469 205.65625 165.941406 202.535156 165.941406 198.683594 C 165.941406 198.453125 165.988281 198.230469 166.074219 198.015625 C 166.164062 197.804688 166.289062 197.613281 166.453125 197.449219 C 166.617188 197.289062 166.804688 197.160156 167.019531 197.074219 C 167.234375 196.984375 167.457031 196.941406 167.6875 196.941406 C 167.921875 196.941406 168.144531 196.984375 168.359375 197.074219 C 168.570312 197.160156 168.761719 197.289062 168.925781 197.449219 C 169.089844 197.613281 169.214844 197.804688 169.304688 198.015625 C 169.390625 198.230469 169.4375 198.453125 169.4375 198.683594 C 169.4375 200.566406 171.828125 202.167969 174.675781 202.167969 C 174.910156 202.167969 175.132812 202.214844 175.34375 202.300781 C 175.558594 202.390625 175.75 202.515625 175.910156 202.679688 C 176.074219 202.84375 176.203125 203.03125 176.289062 203.246094 C 176.378906 203.457031 176.421875 203.679688 176.421875 203.914062 C 176.421875 204.144531 176.378906 204.367188 176.289062 204.578125 C 176.203125 204.792969 176.074219 204.980469 175.910156 205.144531 C 175.75 205.308594 175.558594 205.433594 175.34375 205.523438 C 175.132812 205.609375 174.910156 205.65625 174.675781 205.65625 Z M 174.675781 205.65625 " fill-opacity="1" fill-rule="nonzero"/></g><path fill="#000000" d="M 185.15625 165.566406 C 184.46875 165.566406 183.789062 165.5 183.113281 165.367188 C 182.4375 165.230469 181.78125 165.035156 181.148438 164.769531 C 180.511719 164.507812 179.90625 164.1875 179.335938 163.804688 C 178.761719 163.421875 178.234375 162.988281 177.746094 162.503906 C 177.261719 162.019531 176.824219 161.492188 176.441406 160.917969 C 176.0625 160.347656 175.738281 159.746094 175.472656 159.113281 C 175.210938 158.476562 175.011719 157.824219 174.878906 157.148438 C 174.742188 156.476562 174.675781 155.796875 174.675781 155.109375 C 174.675781 154.421875 174.742188 153.742188 174.878906 153.070312 C 175.011719 152.394531 175.210938 151.742188 175.472656 151.109375 C 175.738281 150.472656 176.0625 149.871094 176.441406 149.300781 C 176.824219 148.730469 177.261719 148.199219 177.746094 147.714844 C 178.234375 147.230469 178.761719 146.796875 179.335938 146.414062 C 179.90625 146.03125 180.511719 145.710938 181.148438 145.449219 C 181.78125 145.183594 182.4375 144.988281 183.113281 144.851562 C 183.789062 144.71875 184.46875 144.652344 185.15625 144.652344 C 185.847656 144.652344 186.527344 144.71875 187.203125 144.851562 C 187.878906 144.988281 188.535156 145.183594 189.167969 145.449219 C 189.804688 145.710938 190.410156 146.03125 190.980469 146.414062 C 191.554688 146.796875 192.082031 147.230469 192.570312 147.714844 C 193.054688 148.199219 193.492188 148.730469 193.875 149.300781 C 194.253906 149.871094 194.578125 150.472656 194.839844 151.109375 C 195.105469 151.742188 195.304688 152.394531 195.4375 153.070312 C 195.574219 153.742188 195.640625 154.421875 195.640625 155.109375 C 195.640625 155.796875 195.574219 156.476562 195.4375 157.148438 C 195.304688 157.824219 195.105469 158.476562 194.839844 159.113281 C 194.578125 159.746094 194.253906 160.347656 193.875 160.917969 C 193.492188 161.492188 193.054688 162.019531 192.570312 162.503906 C 192.082031 162.988281 191.554688 163.421875 190.980469 163.804688 C 190.410156 164.1875 189.804688 164.507812 189.167969 164.769531 C 188.535156 165.035156 187.878906 165.230469 187.203125 165.367188 C 186.527344 165.5 185.847656 165.566406 185.15625 165.566406 Z M 185.15625 148.136719 C 184.699219 148.136719 184.246094 148.183594 183.792969 148.273438 C 183.34375 148.359375 182.90625 148.492188 182.484375 148.667969 C 182.058594 148.84375 181.65625 149.058594 181.277344 149.3125 C 180.894531 149.566406 180.542969 149.855469 180.21875 150.179688 C 179.894531 150.503906 179.601562 150.855469 179.347656 151.234375 C 179.09375 151.617188 178.878906 152.019531 178.703125 152.441406 C 178.527344 152.863281 178.394531 153.300781 178.304688 153.75 C 178.214844 154.199219 178.171875 154.652344 178.171875 155.109375 C 178.171875 155.566406 178.214844 156.019531 178.304688 156.46875 C 178.394531 156.917969 178.527344 157.355469 178.703125 157.777344 C 178.878906 158.199219 179.09375 158.601562 179.347656 158.984375 C 179.601562 159.363281 179.894531 159.714844 180.21875 160.039062 C 180.542969 160.363281 180.894531 160.652344 181.277344 160.90625 C 181.65625 161.160156 182.058594 161.375 182.484375 161.550781 C 182.90625 161.726562 183.34375 161.859375 183.792969 161.949219 C 184.246094 162.035156 184.699219 162.082031 185.15625 162.082031 C 185.617188 162.082031 186.070312 162.035156 186.519531 161.949219 C 186.972656 161.859375 187.410156 161.726562 187.832031 161.550781 C 188.257812 161.375 188.660156 161.160156 189.039062 160.90625 C 189.421875 160.652344 189.773438 160.363281 190.097656 160.039062 C 190.421875 159.714844 190.714844 159.363281 190.96875 158.984375 C 191.222656 158.601562 191.4375 158.199219 191.613281 157.777344 C 191.789062 157.355469 191.921875 156.917969 192.011719 156.46875 C 192.101562 156.019531 192.144531 155.566406 192.144531 155.109375 C 192.144531 154.652344 192.101562 154.199219 192.011719 153.75 C 191.921875 153.300781 191.789062 152.863281 191.613281 152.441406 C 191.4375 152.019531 191.222656 151.617188 190.96875 151.234375 C 190.714844 150.855469 190.421875 150.503906 190.097656 150.179688 C 189.773438 149.855469 189.421875 149.566406 189.039062 149.3125 C 188.660156 149.058594 188.257812 148.84375 187.832031 148.667969 C 187.410156 148.492188 186.972656 148.359375 186.519531 148.273438 C 186.070312 148.183594 185.617188 148.136719 185.15625 148.136719 Z M 185.15625 148.136719 " fill-opacity="1" fill-rule="nonzero"/><g clip-path="url(#bb6a379b8b)"><path fill="#000000" d="M 185.15625 216.113281 C 184.925781 216.113281 184.703125 216.070312 184.488281 215.980469 C 184.277344 215.890625 184.085938 215.765625 183.921875 215.601562 C 183.757812 215.4375 183.632812 215.25 183.542969 215.035156 C 183.457031 214.824219 183.410156 214.601562 183.410156 214.371094 L 183.410156 203.914062 C 183.410156 203.679688 183.457031 203.457031 183.542969 203.246094 C 183.632812 203.03125 183.757812 202.84375 183.921875 202.679688 C 184.085938 202.515625 184.277344 202.390625 184.488281 202.300781 C 184.703125 202.214844 184.925781 202.167969 185.15625 202.167969 C 185.390625 202.167969 185.613281 202.214844 185.828125 202.300781 C 186.039062 202.390625 186.230469 202.515625 186.394531 202.679688 C 186.558594 202.84375 186.683594 203.03125 186.773438 203.246094 C 186.859375 203.457031 186.90625 203.679688 186.90625 203.914062 L 186.90625 214.371094 C 186.90625 214.601562 186.859375 214.824219 186.773438 215.035156 C 186.683594 215.25 186.558594 215.4375 186.394531 215.601562 C 186.230469 215.765625 186.039062 215.890625 185.828125 215.980469 C 185.613281 216.070312 185.390625 216.113281 185.15625 216.113281 Z M 185.15625 216.113281 " fill-opacity="1" fill-rule="nonzero"/></g><g clip-path="url(#c731ce5ccd)"><path fill="#000000" d="M 195.640625 216.113281 C 195.40625 216.113281 195.183594 216.070312 194.972656 215.980469 C 194.757812 215.890625 194.566406 215.765625 194.40625 215.601562 C 194.242188 215.4375 194.113281 215.25 194.027344 215.035156 C 193.9375 214.824219 193.894531 214.601562 193.894531 214.371094 L 193.894531 181.253906 C 193.894531 180.890625 194 180.558594 194.207031 180.261719 C 200.601562 171.039062 209.613281 156.589844 209.613281 153.367188 C 209.667969 151.773438 209.226562 150.332031 208.289062 149.042969 L 197.527344 166.472656 C 194.871094 170.796875 191.011719 170.796875 185.15625 170.796875 L 178.171875 170.796875 C 173.347656 170.796875 169.4375 173.917969 169.4375 177.769531 L 169.4375 198.683594 C 169.4375 198.914062 169.390625 199.136719 169.304688 199.351562 C 169.214844 199.5625 169.089844 199.753906 168.925781 199.914062 C 168.761719 200.078125 168.570312 200.207031 168.359375 200.292969 C 168.144531 200.382812 167.921875 200.425781 167.6875 200.425781 C 167.457031 200.425781 167.234375 200.382812 167.019531 200.292969 C 166.804688 200.207031 166.617188 200.078125 166.453125 199.914062 C 166.289062 199.753906 166.164062 199.5625 166.074219 199.351562 C 165.988281 199.136719 165.941406 198.914062 165.941406 198.683594 L 165.941406 177.769531 C 165.941406 172 171.425781 167.308594 178.171875 167.308594 L 185.15625 167.308594 C 191.183594 167.308594 192.984375 167.207031 194.554688 164.660156 L 206.382812 145.488281 C 206.496094 145.300781 206.640625 145.144531 206.816406 145.011719 C 206.992188 144.878906 207.183594 144.785156 207.394531 144.726562 C 207.601562 144.664062 207.816406 144.644531 208.035156 144.667969 C 208.253906 144.6875 208.457031 144.746094 208.652344 144.84375 C 209.382812 145.28125 210.035156 145.8125 210.617188 146.429688 C 211.199219 147.046875 211.683594 147.730469 212.078125 148.484375 C 212.46875 149.234375 212.753906 150.023438 212.929688 150.855469 C 213.105469 151.683594 213.164062 152.519531 213.109375 153.367188 C 213.109375 158.59375 200.652344 177.070312 197.386719 181.792969 L 197.386719 214.371094 C 197.386719 214.601562 197.34375 214.824219 197.253906 215.035156 C 197.164062 215.25 197.039062 215.4375 196.875 215.601562 C 196.710938 215.765625 196.523438 215.890625 196.308594 215.980469 C 196.09375 216.070312 195.871094 216.113281 195.640625 216.113281 Z M 195.640625 216.113281 " fill-opacity="1" fill-rule="nonzero"/></g><g clip-path="url(#ed9fee5629)"><path fill="#000000" d="M 241.058594 216.113281 C 240.828125 216.113281 240.605469 216.070312 240.390625 215.980469 C 240.175781 215.890625 239.988281 215.765625 239.824219 215.601562 C 239.660156 215.4375 239.535156 215.25 239.445312 215.035156 C 239.355469 214.824219 239.3125 214.601562 239.3125 214.371094 L 239.3125 181.253906 C 239.3125 181.023438 239.355469 180.800781 239.445312 180.585938 C 239.535156 180.375 239.660156 180.183594 239.824219 180.019531 C 239.988281 179.859375 240.175781 179.730469 240.390625 179.644531 C 240.605469 179.554688 240.828125 179.511719 241.058594 179.511719 C 241.292969 179.511719 241.515625 179.554688 241.726562 179.644531 C 241.941406 179.730469 242.132812 179.859375 242.292969 180.019531 C 242.457031 180.183594 242.585938 180.375 242.671875 180.585938 C 242.761719 180.800781 242.804688 181.023438 242.804688 181.253906 L 242.804688 214.371094 C 242.804688 214.601562 242.761719 214.824219 242.671875 215.035156 C 242.585938 215.25 242.457031 215.4375 242.292969 215.601562 C 242.132812 215.765625 241.941406 215.890625 241.726562 215.980469 C 241.515625 216.070312 241.292969 216.113281 241.058594 216.113281 Z M 241.058594 216.113281 " fill-opacity="1" fill-rule="nonzero"/></g><g clip-path="url(#3c1f6ee09c)"><path fill="#000000" d="M 241.058594 205.65625 C 240.828125 205.65625 240.605469 205.609375 240.390625 205.523438 C 240.175781 205.433594 239.988281 205.308594 239.824219 205.144531 C 239.660156 204.980469 239.535156 204.792969 239.445312 204.578125 C 239.355469 204.367188 239.3125 204.144531 239.3125 203.914062 C 239.3125 203.679688 239.355469 203.457031 239.445312 203.246094 C 239.535156 203.03125 239.660156 202.84375 239.824219 202.679688 C 239.988281 202.515625 240.175781 202.390625 240.390625 202.300781 C 240.605469 202.214844 240.828125 202.167969 241.058594 202.167969 C 243.90625 202.167969 246.300781 200.566406 246.300781 198.683594 C 246.300781 198.453125 246.34375 198.230469 246.433594 198.015625 C 246.523438 197.804688 246.648438 197.613281 246.8125 197.449219 C 246.976562 197.289062 247.164062 197.160156 247.378906 197.074219 C 247.59375 196.984375 247.816406 196.941406 248.046875 196.941406 C 248.277344 196.941406 248.5 196.984375 248.714844 197.074219 C 248.929688 197.160156 249.117188 197.289062 249.28125 197.449219 C 249.445312 197.613281 249.574219 197.804688 249.660156 198.015625 C 249.75 198.230469 249.792969 198.453125 249.792969 198.683594 C 249.792969 202.535156 245.882812 205.65625 241.058594 205.65625 Z M 241.058594 205.65625 " fill-opacity="1" fill-rule="nonzero"/></g><path fill="#000000" d="M 230.578125 165.566406 C 229.890625 165.566406 229.207031 165.5 228.53125 165.367188 C 227.859375 165.230469 227.203125 165.035156 226.566406 164.769531 C 225.929688 164.507812 225.328125 164.1875 224.753906 163.804688 C 224.183594 163.421875 223.652344 162.988281 223.167969 162.503906 C 222.679688 162.019531 222.246094 161.492188 221.863281 160.917969 C 221.480469 160.347656 221.15625 159.746094 220.894531 159.113281 C 220.632812 158.476562 220.433594 157.824219 220.296875 157.148438 C 220.164062 156.476562 220.097656 155.796875 220.097656 155.109375 C 220.097656 154.421875 220.164062 153.742188 220.296875 153.070312 C 220.433594 152.394531 220.632812 151.742188 220.894531 151.109375 C 221.15625 150.472656 221.480469 149.871094 221.863281 149.300781 C 222.246094 148.730469 222.679688 148.199219 223.167969 147.714844 C 223.652344 147.230469 224.183594 146.796875 224.753906 146.414062 C 225.328125 146.03125 225.929688 145.710938 226.566406 145.449219 C 227.203125 145.183594 227.859375 144.988281 228.53125 144.851562 C 229.207031 144.71875 229.890625 144.652344 230.578125 144.652344 C 231.265625 144.652344 231.949219 144.71875 232.621094 144.851562 C 233.296875 144.988281 233.953125 145.183594 234.589844 145.449219 C 235.226562 145.710938 235.828125 146.03125 236.402344 146.414062 C 236.972656 146.796875 237.503906 147.230469 237.988281 147.714844 C 238.476562 148.199219 238.910156 148.730469 239.292969 149.300781 C 239.675781 149.871094 240 150.472656 240.261719 151.109375 C 240.523438 151.742188 240.722656 152.394531 240.859375 153.070312 C 240.992188 153.742188 241.058594 154.421875 241.058594 155.109375 C 241.058594 155.796875 240.992188 156.476562 240.859375 157.148438 C 240.722656 157.824219 240.523438 158.476562 240.261719 159.113281 C 240 159.746094 239.675781 160.347656 239.292969 160.917969 C 238.910156 161.492188 238.476562 162.019531 237.988281 162.503906 C 237.503906 162.988281 236.972656 163.421875 236.402344 163.804688 C 235.828125 164.1875 235.226562 164.507812 234.589844 164.769531 C 233.953125 165.035156 233.296875 165.230469 232.621094 165.367188 C 231.949219 165.5 231.265625 165.566406 230.578125 165.566406 Z M 230.578125 148.136719 C 230.121094 148.136719 229.664062 148.183594 229.214844 148.273438 C 228.765625 148.359375 228.328125 148.492188 227.902344 148.667969 C 227.480469 148.84375 227.078125 149.058594 226.695312 149.3125 C 226.3125 149.566406 225.960938 149.855469 225.636719 150.179688 C 225.3125 150.503906 225.023438 150.855469 224.769531 151.234375 C 224.511719 151.617188 224.296875 152.019531 224.121094 152.441406 C 223.945312 152.863281 223.8125 153.300781 223.722656 153.75 C 223.636719 154.199219 223.589844 154.652344 223.589844 155.109375 C 223.589844 155.566406 223.636719 156.019531 223.722656 156.46875 C 223.8125 156.917969 223.945312 157.355469 224.121094 157.777344 C 224.296875 158.199219 224.511719 158.601562 224.769531 158.984375 C 225.023438 159.363281 225.3125 159.714844 225.636719 160.039062 C 225.960938 160.363281 226.3125 160.652344 226.695312 160.90625 C 227.078125 161.160156 227.480469 161.375 227.902344 161.550781 C 228.328125 161.726562 228.765625 161.859375 229.214844 161.949219 C 229.664062 162.035156 230.121094 162.082031 230.578125 162.082031 C 231.035156 162.082031 231.492188 162.035156 231.941406 161.949219 C 232.390625 161.859375 232.828125 161.726562 233.253906 161.550781 C 233.675781 161.375 234.078125 161.160156 234.460938 160.90625 C 234.839844 160.652344 235.195312 160.363281 235.519531 160.039062 C 235.84375 159.714844 236.132812 159.363281 236.386719 158.984375 C 236.644531 158.601562 236.859375 158.199219 237.035156 157.777344 C 237.210938 157.355469 237.34375 156.917969 237.429688 156.46875 C 237.519531 156.019531 237.566406 155.566406 237.566406 155.109375 C 237.566406 154.652344 237.519531 154.199219 237.429688 153.75 C 237.34375 153.300781 237.210938 152.863281 237.035156 152.441406 C 236.859375 152.019531 236.644531 151.617188 236.386719 151.234375 C 236.132812 150.855469 235.84375 150.503906 235.519531 150.179688 C 235.195312 149.855469 234.839844 149.566406 234.460938 149.3125 C 234.078125 149.058594 233.675781 148.84375 233.253906 148.667969 C 232.828125 148.492188 232.390625 148.359375 231.941406 148.273438 C 231.492188 148.183594 231.035156 148.136719 230.578125 148.136719 Z M 230.578125 148.136719 " fill-opacity="1" fill-rule="nonzero"/><g clip-path="url(#bbe5ebe3c8)"><path fill="#000000" d="M 230.578125 216.113281 C 230.347656 216.113281 230.125 216.070312 229.910156 215.980469 C 229.695312 215.890625 229.507812 215.765625 229.34375 215.601562 C 229.179688 215.4375 229.050781 215.25 228.964844 215.035156 C 228.875 214.824219 228.832031 214.601562 228.832031 214.371094 L 228.832031 203.914062 C 228.832031 203.679688 228.875 203.457031 228.964844 203.246094 C 229.050781 203.03125 229.179688 202.84375 229.34375 202.679688 C 229.507812 202.515625 229.695312 202.390625 229.910156 202.300781 C 230.125 202.214844 230.347656 202.167969 230.578125 202.167969 C 230.808594 202.167969 231.03125 202.214844 231.246094 202.300781 C 231.460938 202.390625 231.648438 202.515625 231.8125 202.679688 C 231.976562 202.84375 232.101562 203.03125 232.191406 203.246094 C 232.28125 203.457031 232.324219 203.679688 232.324219 203.914062 L 232.324219 214.371094 C 232.324219 214.601562 232.28125 214.824219 232.191406 215.035156 C 232.101562 215.25 231.976562 215.4375 231.8125 215.601562 C 231.648438 215.765625 231.460938 215.890625 231.246094 215.980469 C 231.03125 216.070312 230.808594 216.113281 230.578125 216.113281 Z M 230.578125 216.113281 " fill-opacity="1" fill-rule="nonzero"/></g><g clip-path="url(#3a1c132e2e)"><path fill="#000000" d="M 248.046875 200.425781 C 247.816406 200.425781 247.59375 200.382812 247.378906 200.292969 C 247.164062 200.207031 246.976562 200.078125 246.8125 199.914062 C 246.648438 199.753906 246.523438 199.5625 246.433594 199.351562 C 246.34375 199.136719 246.300781 198.914062 246.300781 198.683594 L 246.300781 177.769531 C 246.300781 173.917969 242.386719 170.796875 237.566406 170.796875 L 230.578125 170.796875 C 228.140625 170.914062 225.726562 170.75 223.328125 170.308594 C 222.246094 170.054688 221.257812 169.59375 220.367188 168.925781 C 219.476562 168.257812 218.757812 167.441406 218.210938 166.472656 L 214.015625 159.257812 C 213.914062 159.058594 213.847656 158.847656 213.828125 158.625 C 213.804688 158.398438 213.824219 158.179688 213.886719 157.964844 C 213.949219 157.75 214.050781 157.550781 214.191406 157.375 C 214.328125 157.199219 214.496094 157.054688 214.691406 156.941406 C 214.886719 156.828125 215.09375 156.757812 215.316406 156.722656 C 215.539062 156.691406 215.761719 156.703125 215.980469 156.757812 C 216.199219 156.808594 216.402344 156.902344 216.582031 157.035156 C 216.765625 157.164062 216.917969 157.324219 217.039062 157.515625 L 221.214844 164.714844 C 221.519531 165.285156 221.933594 165.765625 222.453125 166.15625 C 222.972656 166.546875 223.550781 166.808594 224.183594 166.945312 C 226.300781 167.300781 228.433594 167.425781 230.578125 167.308594 L 237.566406 167.308594 C 244.308594 167.308594 249.792969 172 249.792969 177.769531 L 249.792969 198.683594 C 249.792969 198.914062 249.75 199.136719 249.660156 199.351562 C 249.574219 199.5625 249.445312 199.753906 249.28125 199.914062 C 249.117188 200.078125 248.929688 200.207031 248.714844 200.292969 C 248.5 200.382812 248.277344 200.425781 248.046875 200.425781 Z M 248.046875 200.425781 " fill-opacity="1" fill-rule="nonzero"/></g><g clip-path="url(#906efd8969)"><path fill="#000000" d="M 220.097656 216.113281 C 219.863281 216.113281 219.640625 216.070312 219.429688 215.980469 C 219.214844 215.890625 219.023438 215.765625 218.859375 215.601562 C 218.699219 215.4375 218.570312 215.25 218.484375 215.035156 C 218.394531 214.824219 218.347656 214.601562 218.347656 214.371094 L 218.347656 181.792969 C 217.214844 180.15625 213.109375 174.230469 209.457031 168.09375 C 209.3125 167.894531 209.214844 167.675781 209.164062 167.433594 C 209.109375 167.191406 209.109375 166.953125 209.160156 166.710938 C 209.210938 166.46875 209.308594 166.25 209.453125 166.046875 C 209.601562 165.847656 209.777344 165.6875 209.992188 165.5625 C 210.207031 165.4375 210.4375 165.363281 210.679688 165.335938 C 210.925781 165.308594 211.167969 165.335938 211.402344 165.410156 C 211.636719 165.484375 211.847656 165.605469 212.03125 165.769531 C 212.21875 165.933594 212.359375 166.125 212.460938 166.351562 C 216.742188 173.445312 221.476562 180.296875 221.527344 180.296875 C 221.738281 180.582031 221.84375 180.902344 221.84375 181.253906 L 221.84375 214.371094 C 221.84375 214.601562 221.800781 214.824219 221.710938 215.035156 C 221.621094 215.25 221.496094 215.4375 221.332031 215.601562 C 221.167969 215.765625 220.980469 215.890625 220.765625 215.980469 C 220.550781 216.070312 220.328125 216.113281 220.097656 216.113281 Z M 220.097656 216.113281 " fill-opacity="1" fill-rule="nonzero"/></g><g clip-path="url(#769c95c816)"><path fill="#000000" d="M 219.222656 142.910156 C 218.941406 142.910156 218.671875 142.847656 218.417969 142.71875 L 207.9375 137.277344 L 197.457031 142.71875 C 197.164062 142.871094 196.851562 142.933594 196.519531 142.90625 C 196.1875 142.882812 195.890625 142.773438 195.621094 142.578125 C 195.347656 142.378906 195.152344 142.121094 195.027344 141.804688 C 194.902344 141.488281 194.875 141.167969 194.941406 140.835938 L 196.863281 129.140625 L 188.269531 120.859375 C 188.03125 120.628906 187.875 120.351562 187.796875 120.035156 C 187.71875 119.714844 187.730469 119.398438 187.832031 119.082031 C 187.933594 118.769531 188.109375 118.507812 188.363281 118.292969 C 188.613281 118.078125 188.902344 117.949219 189.226562 117.898438 L 200.96875 116.15625 L 206.3125 105.523438 C 206.460938 105.230469 206.675781 105 206.957031 104.828125 C 207.238281 104.660156 207.539062 104.574219 207.867188 104.574219 C 208.195312 104.574219 208.5 104.660156 208.777344 104.828125 C 209.058594 105 209.273438 105.230469 209.421875 105.523438 L 214.855469 116.101562 L 226.59375 117.84375 C 226.921875 117.894531 227.210938 118.027344 227.460938 118.242188 C 227.710938 118.453125 227.890625 118.71875 227.992188 119.03125 C 228.09375 119.34375 228.105469 119.660156 228.027344 119.980469 C 227.949219 120.300781 227.789062 120.578125 227.554688 120.808594 L 219.101562 129.140625 L 221.023438 140.835938 C 221.0625 141.089844 221.050781 141.339844 220.980469 141.585938 C 220.910156 141.835938 220.789062 142.058594 220.621094 142.25 C 220.453125 142.445312 220.25 142.597656 220.015625 142.703125 C 219.78125 142.808594 219.535156 142.859375 219.277344 142.855469 Z M 207.867188 133.566406 C 208.152344 133.570312 208.417969 133.632812 208.671875 133.757812 L 216.933594 138.027344 L 215.433594 128.859375 C 215.335938 128.273438 215.5 127.765625 215.921875 127.34375 L 222.542969 120.824219 L 213.335938 119.414062 C 212.75 119.328125 212.320312 119.027344 212.042969 118.507812 L 207.867188 110.195312 L 203.691406 118.507812 C 203.425781 119.042969 202.992188 119.355469 202.398438 119.449219 L 193.195312 120.859375 L 199.816406 127.378906 C 200.238281 127.800781 200.402344 128.304688 200.304688 128.894531 L 198.800781 138.0625 L 207.066406 133.792969 C 207.316406 133.65625 207.582031 133.582031 207.867188 133.566406 Z M 207.867188 133.566406 " fill-opacity="1" fill-rule="nonzero"/></g><g clip-path="url(#e6a8f325b6)"><path fill="#000000" d="M 192.757812 132.3125 C 192.476562 132.308594 192.207031 132.246094 191.953125 132.121094 L 184.964844 128.476562 L 177.976562 132.121094 C 177.683594 132.273438 177.371094 132.339844 177.035156 132.316406 C 176.703125 132.289062 176.402344 132.179688 176.132812 131.984375 C 175.863281 131.789062 175.667969 131.535156 175.542969 131.226562 C 175.417969 130.917969 175.386719 130.601562 175.445312 130.273438 L 176.738281 122.464844 L 170.972656 116.902344 C 170.746094 116.675781 170.589844 116.40625 170.511719 116.09375 C 170.433594 115.78125 170.441406 115.46875 170.535156 115.160156 C 170.636719 114.847656 170.816406 114.585938 171.066406 114.371094 C 171.320312 114.15625 171.609375 114.027344 171.933594 113.976562 L 179.777344 112.773438 L 183.410156 105.660156 C 183.558594 105.367188 183.773438 105.136719 184.054688 104.964844 C 184.332031 104.789062 184.636719 104.703125 184.964844 104.703125 C 185.296875 104.699219 185.605469 104.785156 185.890625 104.957031 C 186.171875 105.132812 186.390625 105.367188 186.539062 105.660156 L 190.398438 113.539062 C 190.503906 113.746094 190.5625 113.964844 190.582031 114.195312 C 190.597656 114.425781 190.570312 114.652344 190.496094 114.871094 C 190.425781 115.09375 190.3125 115.289062 190.160156 115.464844 C 190.007812 115.640625 189.828125 115.78125 189.621094 115.882812 C 189.414062 115.988281 189.195312 116.046875 188.964844 116.066406 C 188.730469 116.082031 188.507812 116.054688 188.285156 115.980469 C 188.066406 115.910156 187.867188 115.796875 187.691406 115.644531 C 187.515625 115.496094 187.375 115.316406 187.273438 115.109375 L 184.894531 110.332031 L 182.484375 115.109375 C 182.214844 115.644531 181.785156 115.957031 181.191406 116.050781 L 175.953125 116.867188 L 179.761719 120.617188 C 180.191406 121.042969 180.351562 121.554688 180.25 122.148438 L 179.394531 127.378906 L 184.144531 124.921875 C 184.679688 124.644531 185.214844 124.644531 185.753906 124.921875 L 193.5625 128.964844 C 193.921875 129.148438 194.183594 129.425781 194.351562 129.789062 C 194.519531 130.15625 194.558594 130.535156 194.460938 130.929688 C 194.367188 131.320312 194.160156 131.640625 193.839844 131.890625 C 193.523438 132.136719 193.160156 132.261719 192.757812 132.257812 Z M 192.757812 132.3125 " fill-opacity="1" fill-rule="nonzero"/></g><g clip-path="url(#01a63618d6)"><path fill="#000000" d="M 222.980469 132.3125 C 222.773438 132.328125 222.570312 132.304688 222.371094 132.25 C 222.167969 132.191406 221.984375 132.101562 221.820312 131.980469 C 221.652344 131.859375 221.507812 131.710938 221.394531 131.539062 C 221.28125 131.367188 221.199219 131.179688 221.148438 130.980469 C 221.101562 130.777344 221.089844 130.574219 221.113281 130.371094 C 221.136719 130.164062 221.195312 129.96875 221.289062 129.785156 C 221.386719 129.597656 221.507812 129.4375 221.660156 129.296875 C 221.8125 129.15625 221.984375 129.042969 222.175781 128.964844 L 230.035156 124.921875 C 230.570312 124.644531 231.109375 124.644531 231.644531 124.921875 L 236.394531 127.378906 L 235.539062 122.148438 C 235.4375 121.554688 235.597656 121.042969 236.027344 120.617188 L 239.835938 116.867188 L 234.597656 116.050781 C 234.003906 115.957031 233.570312 115.644531 233.304688 115.109375 L 230.839844 110.332031 L 228.429688 115.109375 C 228.34375 115.34375 228.214844 115.550781 228.039062 115.726562 C 227.863281 115.90625 227.660156 116.039062 227.429688 116.132812 C 227.195312 116.222656 226.953125 116.261719 226.707031 116.25 C 226.457031 116.238281 226.21875 116.175781 225.996094 116.0625 C 225.773438 115.949219 225.585938 115.796875 225.429688 115.601562 C 225.269531 115.410156 225.160156 115.191406 225.097656 114.949219 C 225.035156 114.707031 225.023438 114.464844 225.066406 114.21875 C 225.109375 113.972656 225.199219 113.746094 225.335938 113.539062 L 229.269531 105.660156 C 229.421875 105.382812 229.636719 105.164062 229.910156 105.003906 C 230.183594 104.84375 230.480469 104.761719 230.796875 104.761719 C 231.113281 104.761719 231.410156 104.84375 231.683594 105.003906 C 231.957031 105.164062 232.171875 105.382812 232.324219 105.660156 L 235.820312 112.738281 L 243.664062 113.941406 C 243.988281 113.992188 244.277344 114.121094 244.53125 114.335938 C 244.78125 114.550781 244.957031 114.8125 245.058594 115.125 C 245.15625 115.433594 245.164062 115.746094 245.085938 116.058594 C 245.003906 116.371094 244.851562 116.640625 244.625 116.867188 L 238.980469 122.429688 L 240.273438 130.238281 C 240.332031 130.566406 240.296875 130.882812 240.175781 131.191406 C 240.050781 131.5 239.855469 131.753906 239.585938 131.949219 C 239.316406 132.144531 239.015625 132.257812 238.683594 132.28125 C 238.347656 132.304688 238.035156 132.238281 237.742188 132.085938 L 230.753906 128.441406 L 223.765625 132.085938 C 223.519531 132.21875 223.257812 132.292969 222.980469 132.3125 Z M 222.980469 132.3125 " fill-opacity="1" fill-rule="nonzero"/></g><g fill="#c01e3a" fill-opacity="1"><g transform="translate(115.040168, 329.303067)"><g><path d="M 2.410156 -1.070312 L 2.410156 -4.933594 L 8.464844 -4.933594 L 8.464844 -5.988281 L 2.410156 -5.988281 L 2.410156 -9.550781 L 8.941406 -9.550781 L 8.941406 -10.621094 L 1.085938 -10.621094 L 1.085938 0 L 8.992188 0 L 8.992188 -1.070312 Z M 2.410156 -1.070312 "/></g></g></g><g fill="#c01e3a" fill-opacity="1"><g transform="translate(124.716695, 329.303067)"><g><path d="M 3.5625 0.207031 C 5.414062 0.207031 6.261719 -0.910156 6.5625 -1.867188 C 6.5625 -1.277344 6.609375 -0.6875 6.675781 0 L 7.839844 0 C 7.761719 -0.78125 7.746094 -1.40625 7.746094 -1.980469 L 7.746094 -5.8125 C 7.746094 -7.25 6.753906 -8.257812 4.566406 -8.257812 C 2.363281 -8.257812 1.164062 -7.171875 1.117188 -5.476562 L 2.378906 -5.476562 C 2.460938 -6.515625 3.050781 -7.25 4.613281 -7.25 C 6.164062 -7.25 6.578125 -6.628906 6.578125 -5.8125 C 6.578125 -5.207031 6.226562 -4.984375 5.382812 -4.839844 L 3.355469 -4.503906 C 1.628906 -4.214844 0.925781 -3.402344 0.925781 -2.109375 C 0.925781 -0.589844 2.027344 0.207031 3.5625 0.207031 Z M 3.816406 -0.796875 C 2.875 -0.796875 2.21875 -1.246094 2.21875 -2.15625 C 2.21875 -3.019531 2.730469 -3.433594 3.816406 -3.65625 L 5.140625 -3.929688 C 5.75 -4.054688 6.179688 -4.183594 6.578125 -4.472656 L 6.578125 -3.785156 C 6.578125 -2.269531 5.699219 -0.796875 3.816406 -0.796875 Z M 3.816406 -0.796875 "/></g></g></g><g fill="#c01e3a" fill-opacity="1"><g transform="translate(133.147727, 329.303067)"><g><path d="M 5.367188 -8.097656 C 3.847656 -8.097656 2.921875 -7.203125 2.441406 -5.875 L 2.441406 -7.984375 L 1.164062 -7.984375 L 1.164062 0 L 2.441406 0 L 2.441406 -2.9375 C 2.441406 -5.191406 2.953125 -6.914062 5.316406 -6.835938 L 5.652344 -6.835938 L 5.652344 -8.097656 Z M 5.367188 -8.097656 "/></g></g></g><g fill="#c01e3a" fill-opacity="1"><g transform="translate(138.975972, 329.303067)"><g><path d="M 1.148438 0 L 2.425781 0 L 2.425781 -11.179688 L 1.148438 -11.179688 Z M 1.148438 0 "/></g></g></g><g fill="#c01e3a" fill-opacity="1"><g transform="translate(142.233374, 329.303067)"><g><path d="M 7.21875 -7.984375 L 4.742188 -1.835938 L 4.503906 -1.070312 L 4.230469 -1.835938 L 1.789062 -7.984375 L 0.445312 -7.984375 L 3.609375 0 L 4.054688 0 L 3.179688 2.15625 L 0.957031 2.15625 L 0.957031 3.195312 L 2.476562 3.195312 C 3.914062 3.195312 4.230469 2.601562 4.726562 1.324219 L 8.480469 -7.984375 Z M 7.21875 -7.984375 "/></g></g></g><g fill="#c01e3a" fill-opacity="1"><g transform="translate(150.792147, 329.303067)"><g/></g></g><g fill="#c01e3a" fill-opacity="1"><g transform="translate(154.065509, 329.303067)"><g><path d="M 0.925781 -9.292969 L 2.570312 -9.292969 L 2.570312 -10.621094 L 0.925781 -10.621094 Z M -0.957031 3.195312 L 0.351562 3.195312 C 1.882812 3.195312 2.394531 2.601562 2.394531 1.324219 L 2.394531 -7.984375 L 1.117188 -7.984375 L 1.117188 2.15625 L -0.957031 2.15625 Z M -0.957031 3.195312 "/></g></g></g><g fill="#c01e3a" fill-opacity="1"><g transform="translate(157.179199, 329.303067)"><g><path d="M 4.789062 0.253906 C 7.472656 0.253906 8.800781 -1.613281 8.800781 -4.007812 C 8.800781 -6.371094 7.472656 -8.238281 4.789062 -8.238281 C 2.09375 -8.238281 0.765625 -6.386719 0.765625 -4.007812 C 0.765625 -1.597656 2.09375 0.253906 4.789062 0.253906 Z M 2.058594 -3.992188 C 2.058594 -6.242188 2.984375 -7.203125 4.789062 -7.203125 C 6.59375 -7.203125 7.503906 -6.242188 7.503906 -3.992188 C 7.503906 -1.757812 6.59375 -0.78125 4.789062 -0.78125 C 2.984375 -0.78125 2.058594 -1.757812 2.058594 -3.992188 Z M 2.058594 -3.992188 "/></g></g></g><g fill="#c01e3a" fill-opacity="1"><g transform="translate(166.424596, 329.303067)"><g><path d="M 0.988281 -9.292969 L 2.636719 -9.292969 L 2.636719 -10.621094 L 0.988281 -10.621094 Z M 1.164062 0 L 2.441406 0 L 2.441406 -7.984375 L 1.164062 -7.984375 Z M 1.164062 0 "/></g></g></g><g fill="#c01e3a" fill-opacity="1"><g transform="translate(169.729897, 329.303067)"><g><path d="M 5.507812 -8.238281 C 3.929688 -8.238281 2.9375 -7.347656 2.441406 -5.894531 L 2.441406 -7.984375 L 1.164062 -7.984375 L 1.164062 0 L 2.441406 0 L 2.441406 -3.050781 C 2.441406 -5.796875 3.386719 -7.171875 5.15625 -7.171875 C 6.324219 -7.171875 7.074219 -6.660156 7.074219 -4.949219 L 7.074219 0 L 8.351562 0 L 8.351562 -5.09375 C 8.351562 -7.152344 7.503906 -8.238281 5.507812 -8.238281 Z M 5.507812 -8.238281 "/></g></g></g><g fill="#c01e3a" fill-opacity="1"><g transform="translate(178.76771, 329.303067)"><g><path d="M 4.773438 -0.71875 C 3.179688 -0.71875 2.125 -1.515625 2.027344 -3.703125 L 8.449219 -3.703125 C 8.480469 -3.898438 8.480469 -4.054688 8.480469 -4.265625 C 8.480469 -6.59375 7.121094 -8.238281 4.726562 -8.238281 C 2.074219 -8.238281 0.765625 -6.386719 0.765625 -4.007812 C 0.765625 -1.597656 1.980469 0.253906 4.726562 0.253906 C 7.378906 0.253906 8.304688 -1.246094 8.464844 -2.460938 L 7.296875 -2.460938 C 7.058594 -1.453125 6.339844 -0.71875 4.773438 -0.71875 Z M 4.742188 -7.265625 C 6.226562 -7.265625 7.171875 -6.5 7.234375 -4.664062 L 2.058594 -4.664062 C 2.234375 -6.546875 3.226562 -7.265625 4.742188 -7.265625 Z M 4.742188 -7.265625 "/></g></g></g><g fill="#c01e3a" fill-opacity="1"><g transform="translate(187.645839, 329.303067)"><g><path d="M 5.367188 -8.097656 C 3.847656 -8.097656 2.921875 -7.203125 2.441406 -5.875 L 2.441406 -7.984375 L 1.164062 -7.984375 L 1.164062 0 L 2.441406 0 L 2.441406 -2.9375 C 2.441406 -5.191406 2.953125 -6.914062 5.316406 -6.835938 L 5.652344 -6.835938 L 5.652344 -8.097656 Z M 5.367188 -8.097656 "/></g></g></g><g fill="#c01e3a" fill-opacity="1"><g transform="translate(193.474084, 329.303067)"><g><path d="M 0.605469 -2.667969 C 0.640625 -0.988281 1.691406 0.253906 4.296875 0.253906 C 6.417969 0.253906 7.554688 -0.542969 7.554688 -2.171875 C 7.554688 -3.480469 6.882812 -4.265625 5.046875 -4.535156 L 3.355469 -4.773438 C 2.347656 -4.917969 2.058594 -5.398438 2.058594 -5.957031 C 2.058594 -6.738281 2.617188 -7.28125 3.976562 -7.28125 C 5.445312 -7.28125 6.050781 -6.53125 6.132812 -5.699219 L 7.394531 -5.699219 C 7.296875 -7.203125 6.101562 -8.257812 4.007812 -8.257812 C 1.996094 -8.257812 0.8125 -7.347656 0.8125 -5.859375 C 0.8125 -4.632812 1.597656 -3.898438 2.984375 -3.703125 L 4.839844 -3.433594 C 5.84375 -3.289062 6.292969 -2.875 6.292969 -2.109375 C 6.292969 -1.214844 5.734375 -0.71875 4.328125 -0.71875 C 2.492188 -0.71875 1.882812 -1.582031 1.789062 -2.667969 Z M 0.605469 -2.667969 "/></g></g></g><g fill="#c01e3a" fill-opacity="1"><g transform="translate(201.394132, 329.303067)"><g/></g></g><g fill="#c01e3a" fill-opacity="1"><g transform="translate(204.667492, 329.303067)"><g><path d="M 0.765625 -3.992188 C 0.765625 -1.550781 2.140625 0.253906 4.757812 0.253906 C 7.1875 0.253906 8.480469 -1.214844 8.574219 -3.050781 L 7.363281 -3.050781 C 7.203125 -1.691406 6.371094 -0.78125 4.757812 -0.78125 C 3.082031 -0.78125 2.058594 -1.675781 2.058594 -3.992188 C 2.058594 -6.292969 3.113281 -7.203125 4.808594 -7.203125 C 6.292969 -7.203125 7.089844 -6.371094 7.28125 -5.0625 L 8.480469 -5.0625 C 8.351562 -6.914062 7.152344 -8.238281 4.757812 -8.238281 C 2.171875 -8.238281 0.765625 -6.4375 0.765625 -3.992188 Z M 0.765625 -3.992188 "/></g></g></g><g fill="#c01e3a" fill-opacity="1"><g transform="translate(213.593521, 329.303067)"><g><path d="M 4.789062 0.253906 C 7.472656 0.253906 8.800781 -1.613281 8.800781 -4.007812 C 8.800781 -6.371094 7.472656 -8.238281 4.789062 -8.238281 C 2.09375 -8.238281 0.765625 -6.386719 0.765625 -4.007812 C 0.765625 -1.597656 2.09375 0.253906 4.789062 0.253906 Z M 2.058594 -3.992188 C 2.058594 -6.242188 2.984375 -7.203125 4.789062 -7.203125 C 6.59375 -7.203125 7.503906 -6.242188 7.503906 -3.992188 C 7.503906 -1.757812 6.59375 -0.78125 4.789062 -0.78125 C 2.984375 -0.78125 2.058594 -1.757812 2.058594 -3.992188 Z M 2.058594 -3.992188 "/></g></g></g><g fill="#c01e3a" fill-opacity="1"><g transform="translate(222.838919, 329.303067)"><g><path d="M 6.898438 -7.984375 L 6.898438 -4.933594 C 6.898438 -2.285156 5.957031 -0.796875 4.296875 -0.796875 C 3.066406 -0.796875 2.285156 -1.261719 2.285156 -3.035156 L 2.285156 -7.984375 L 1.007812 -7.984375 L 1.007812 -2.890625 C 1.007812 -0.796875 1.917969 0.253906 3.929688 0.253906 C 5.476562 0.253906 6.417969 -0.605469 6.898438 -2.027344 L 6.898438 0 L 8.175781 0 L 8.175781 -7.984375 Z M 6.898438 -7.984375 "/></g></g></g><g fill="#c01e3a" fill-opacity="1"><g transform="translate(231.860761, 329.303067)"><g><path d="M 1.148438 0 L 2.425781 0 L 2.425781 -11.179688 L 1.148438 -11.179688 Z M 1.148438 0 "/></g></g></g><g fill="#c01e3a" fill-opacity="1"><g transform="translate(235.118161, 329.303067)"><g><path d="M 7.457031 -11.179688 L 7.457031 -6.46875 C 6.914062 -7.601562 5.910156 -8.238281 4.441406 -8.238281 C 1.933594 -8.238281 0.78125 -6.453125 0.78125 -3.992188 C 0.78125 -1.550781 1.933594 0.253906 4.441406 0.253906 C 5.910156 0.253906 6.914062 -0.398438 7.457031 -1.53125 L 7.457031 0 L 8.734375 0 L 8.734375 -11.179688 Z M 4.695312 -0.78125 C 2.875 -0.78125 2.074219 -1.851562 2.074219 -3.992188 C 2.074219 -6.148438 2.875 -7.203125 4.695312 -7.203125 C 6.386719 -7.203125 7.457031 -6.242188 7.457031 -3.992188 C 7.457031 -1.742188 6.386719 -0.78125 4.695312 -0.78125 Z M 4.695312 -0.78125 "/></g></g></g><g fill="#c01e3a" fill-opacity="1"><g transform="translate(244.666944, 329.303067)"><g/></g></g><g fill="#c01e3a" fill-opacity="1"><g transform="translate(247.940304, 329.303067)"><g><path d="M 5.429688 -8.238281 C 3.960938 -8.238281 2.953125 -7.601562 2.410156 -6.46875 L 2.410156 -11.179688 L 1.132812 -11.179688 L 1.132812 0 L 2.410156 0 L 2.410156 -1.53125 C 2.953125 -0.398438 3.960938 0.253906 5.429688 0.253906 C 7.9375 0.253906 9.085938 -1.550781 9.085938 -3.992188 C 9.085938 -6.453125 7.9375 -8.238281 5.429688 -8.238281 Z M 5.175781 -0.78125 C 3.480469 -0.78125 2.410156 -1.742188 2.410156 -3.992188 C 2.410156 -6.242188 3.480469 -7.203125 5.175781 -7.203125 C 6.996094 -7.203125 7.792969 -6.148438 7.792969 -3.992188 C 7.792969 -1.851562 6.996094 -0.78125 5.175781 -0.78125 Z M 5.175781 -0.78125 "/></g></g></g><g fill="#c01e3a" fill-opacity="1"><g transform="translate(257.489086, 329.303067)"><g><path d="M 4.773438 -0.71875 C 3.179688 -0.71875 2.125 -1.515625 2.027344 -3.703125 L 8.449219 -3.703125 C 8.480469 -3.898438 8.480469 -4.054688 8.480469 -4.265625 C 8.480469 -6.59375 7.121094 -8.238281 4.726562 -8.238281 C 2.074219 -8.238281 0.765625 -6.386719 0.765625 -4.007812 C 0.765625 -1.597656 1.980469 0.253906 4.726562 0.253906 C 7.378906 0.253906 8.304688 -1.246094 8.464844 -2.460938 L 7.296875 -2.460938 C 7.058594 -1.453125 6.339844 -0.71875 4.773438 -0.71875 Z M 4.742188 -7.265625 C 6.226562 -7.265625 7.171875 -6.5 7.234375 -4.664062 L 2.058594 -4.664062 C 2.234375 -6.546875 3.226562 -7.265625 4.742188 -7.265625 Z M 4.742188 -7.265625 "/></g></g></g><g fill="#c01e3a" fill-opacity="1"><g transform="translate(266.367215, 329.303067)"><g/></g></g><g fill="#c01e3a" fill-opacity="1"><g transform="translate(269.640575, 329.303067)"><g><path d="M 7.425781 -7.984375 L 7.425781 -6.609375 C 6.882812 -7.632812 5.910156 -8.207031 4.457031 -8.207031 C 1.949219 -8.207031 0.765625 -6.644531 0.765625 -4.199219 C 0.765625 -1.742188 1.949219 -0.175781 4.457031 -0.175781 C 5.894531 -0.175781 6.882812 -0.6875 7.425781 -1.726562 L 7.425781 0 C 7.425781 1.707031 6.644531 2.363281 4.757812 2.363281 C 2.984375 2.363281 2.316406 1.566406 2.21875 0.511719 L 0.957031 0.511719 C 1.101562 2.332031 2.378906 3.371094 4.757812 3.371094 C 7.664062 3.371094 8.703125 2.140625 8.703125 0.015625 L 8.703125 -7.984375 Z M 4.757812 -1.183594 C 2.9375 -1.183594 2.074219 -2.042969 2.074219 -4.199219 C 2.074219 -6.355469 2.9375 -7.203125 4.757812 -7.203125 C 6.453125 -7.203125 7.425781 -6.355469 7.425781 -4.199219 C 7.425781 -2.027344 6.453125 -1.183594 4.757812 -1.183594 Z M 4.757812 -1.183594 "/></g></g></g><g fill="#c01e3a" fill-opacity="1"><g transform="translate(279.157428, 329.303067)"><g><path d="M 0.988281 -9.292969 L 2.636719 -9.292969 L 2.636719 -10.621094 L 0.988281 -10.621094 Z M 1.164062 0 L 2.441406 0 L 2.441406 -7.984375 L 1.164062 -7.984375 Z M 1.164062 0 "/></g></g></g><g fill="#c01e3a" fill-opacity="1"><g transform="translate(282.462729, 329.303067)"><g><path d="M 7.121094 -7.984375 L 4.421875 -1.117188 L 1.742188 -7.984375 L 0.398438 -7.984375 L 3.546875 0 L 5.238281 0 L 8.382812 -7.984375 Z M 7.121094 -7.984375 "/></g></g></g><g fill="#c01e3a" fill-opacity="1"><g transform="translate(290.909718, 329.303067)"><g><path d="M 4.773438 -0.71875 C 3.179688 -0.71875 2.125 -1.515625 2.027344 -3.703125 L 8.449219 -3.703125 C 8.480469 -3.898438 8.480469 -4.054688 8.480469 -4.265625 C 8.480469 -6.59375 7.121094 -8.238281 4.726562 -8.238281 C 2.074219 -8.238281 0.765625 -6.386719 0.765625 -4.007812 C 0.765625 -1.597656 1.980469 0.253906 4.726562 0.253906 C 7.378906 0.253906 8.304688 -1.246094 8.464844 -2.460938 L 7.296875 -2.460938 C 7.058594 -1.453125 6.339844 -0.71875 4.773438 -0.71875 Z M 4.742188 -7.265625 C 6.226562 -7.265625 7.171875 -6.5 7.234375 -4.664062 L 2.058594 -4.664062 C 2.234375 -6.546875 3.226562 -7.265625 4.742188 -7.265625 Z M 4.742188 -7.265625 "/></g></g></g><g fill="#c01e3a" fill-opacity="1"><g transform="translate(299.787847, 329.303067)"><g><path d="M 5.507812 -8.238281 C 3.929688 -8.238281 2.9375 -7.347656 2.441406 -5.894531 L 2.441406 -7.984375 L 1.164062 -7.984375 L 1.164062 0 L 2.441406 0 L 2.441406 -3.050781 C 2.441406 -5.796875 3.386719 -7.171875 5.15625 -7.171875 C 6.324219 -7.171875 7.074219 -6.660156 7.074219 -4.949219 L 7.074219 0 L 8.351562 0 L 8.351562 -5.09375 C 8.351562 -7.152344 7.503906 -8.238281 5.507812 -8.238281 Z M 5.507812 -8.238281 "/></g></g></g><g fill="#c01e3a" fill-opacity="1"><g transform="translate(104.067333, 349.517415)"><g><path d="M 5.429688 -8.238281 C 3.960938 -8.238281 2.953125 -7.585938 2.410156 -6.453125 L 2.410156 -7.984375 L 1.132812 -7.984375 L 1.132812 3.195312 L 2.410156 3.195312 L 2.410156 -1.515625 C 2.953125 -0.382812 3.960938 0.253906 5.429688 0.253906 C 7.9375 0.253906 9.085938 -1.53125 9.085938 -3.992188 C 9.085938 -6.4375 7.9375 -8.238281 5.429688 -8.238281 Z M 5.175781 -0.78125 C 3.480469 -0.78125 2.410156 -1.742188 2.410156 -3.992188 C 2.410156 -6.242188 3.480469 -7.203125 5.175781 -7.203125 C 6.996094 -7.203125 7.792969 -6.132812 7.792969 -3.992188 C 7.792969 -1.835938 6.996094 -0.78125 5.175781 -0.78125 Z M 5.175781 -0.78125 "/></g></g></g><g fill="#c01e3a" fill-opacity="1"><g transform="translate(113.616118, 349.517415)"><g><path d="M 5.367188 -8.097656 C 3.847656 -8.097656 2.921875 -7.203125 2.441406 -5.875 L 2.441406 -7.984375 L 1.164062 -7.984375 L 1.164062 0 L 2.441406 0 L 2.441406 -2.9375 C 2.441406 -5.191406 2.953125 -6.914062 5.316406 -6.835938 L 5.652344 -6.835938 L 5.652344 -8.097656 Z M 5.367188 -8.097656 "/></g></g></g><g fill="#c01e3a" fill-opacity="1"><g transform="translate(119.444364, 349.517415)"><g><path d="M 0.988281 -9.292969 L 2.636719 -9.292969 L 2.636719 -10.621094 L 0.988281 -10.621094 Z M 1.164062 0 L 2.441406 0 L 2.441406 -7.984375 L 1.164062 -7.984375 Z M 1.164062 0 "/></g></g></g><g fill="#c01e3a" fill-opacity="1"><g transform="translate(122.749666, 349.517415)"><g><path d="M 4.789062 0.253906 C 7.472656 0.253906 8.800781 -1.613281 8.800781 -4.007812 C 8.800781 -6.371094 7.472656 -8.238281 4.789062 -8.238281 C 2.09375 -8.238281 0.765625 -6.386719 0.765625 -4.007812 C 0.765625 -1.597656 2.09375 0.253906 4.789062 0.253906 Z M 2.058594 -3.992188 C 2.058594 -6.242188 2.984375 -7.203125 4.789062 -7.203125 C 6.59375 -7.203125 7.503906 -6.242188 7.503906 -3.992188 C 7.503906 -1.757812 6.59375 -0.78125 4.789062 -0.78125 C 2.984375 -0.78125 2.058594 -1.757812 2.058594 -3.992188 Z M 2.058594 -3.992188 "/></g></g></g><g fill="#c01e3a" fill-opacity="1"><g transform="translate(131.995065, 349.517415)"><g><path d="M 5.367188 -8.097656 C 3.847656 -8.097656 2.921875 -7.203125 2.441406 -5.875 L 2.441406 -7.984375 L 1.164062 -7.984375 L 1.164062 0 L 2.441406 0 L 2.441406 -2.9375 C 2.441406 -5.191406 2.953125 -6.914062 5.316406 -6.835938 L 5.652344 -6.835938 L 5.652344 -8.097656 Z M 5.367188 -8.097656 "/></g></g></g><g fill="#c01e3a" fill-opacity="1"><g transform="translate(137.823312, 349.517415)"><g><path d="M 0.988281 -9.292969 L 2.636719 -9.292969 L 2.636719 -10.621094 L 0.988281 -10.621094 Z M 1.164062 0 L 2.441406 0 L 2.441406 -7.984375 L 1.164062 -7.984375 Z M 1.164062 0 "/></g></g></g><g fill="#c01e3a" fill-opacity="1"><g transform="translate(141.128616, 349.517415)"><g><path d="M 3.769531 0 L 5.652344 0 L 5.652344 -1.039062 L 3.113281 -1.039062 L 3.113281 -6.980469 L 5.75 -6.980469 L 5.75 -7.984375 L 3.113281 -7.984375 L 3.113281 -9.757812 L 2.425781 -9.757812 L 1.949219 -8.097656 L 0.320312 -7.695312 L 0.320312 -6.980469 L 1.835938 -6.980469 L 1.835938 -1.867188 C 1.835938 -0.589844 2.234375 0 3.769531 0 Z M 3.769531 0 "/></g></g></g><g fill="#c01e3a" fill-opacity="1"><g transform="translate(147.052665, 349.517415)"><g><path d="M 7.21875 -7.984375 L 4.742188 -1.835938 L 4.503906 -1.070312 L 4.230469 -1.835938 L 1.789062 -7.984375 L 0.445312 -7.984375 L 3.609375 0 L 4.054688 0 L 3.179688 2.15625 L 0.957031 2.15625 L 0.957031 3.195312 L 2.476562 3.195312 C 3.914062 3.195312 4.230469 2.601562 4.726562 1.324219 L 8.480469 -7.984375 Z M 7.21875 -7.984375 "/></g></g></g><g fill="#c01e3a" fill-opacity="1"><g transform="translate(155.61144, 349.517415)"><g/></g></g><g fill="#c01e3a" fill-opacity="1"><g transform="translate(158.8848, 349.517415)"><g><path d="M 0.605469 -2.667969 C 0.640625 -0.988281 1.691406 0.253906 4.296875 0.253906 C 6.417969 0.253906 7.554688 -0.542969 7.554688 -2.171875 C 7.554688 -3.480469 6.882812 -4.265625 5.046875 -4.535156 L 3.355469 -4.773438 C 2.347656 -4.917969 2.058594 -5.398438 2.058594 -5.957031 C 2.058594 -6.738281 2.617188 -7.28125 3.976562 -7.28125 C 5.445312 -7.28125 6.050781 -6.53125 6.132812 -5.699219 L 7.394531 -5.699219 C 7.296875 -7.203125 6.101562 -8.257812 4.007812 -8.257812 C 1.996094 -8.257812 0.8125 -7.347656 0.8125 -5.859375 C 0.8125 -4.632812 1.597656 -3.898438 2.984375 -3.703125 L 4.839844 -3.433594 C 5.84375 -3.289062 6.292969 -2.875 6.292969 -2.109375 C 6.292969 -1.214844 5.734375 -0.71875 4.328125 -0.71875 C 2.492188 -0.71875 1.882812 -1.582031 1.789062 -2.667969 Z M 0.605469 -2.667969 "/></g></g></g><g fill="#c01e3a" fill-opacity="1"><g transform="translate(166.804848, 349.517415)"><g><path d="M 6.898438 -7.984375 L 6.898438 -4.933594 C 6.898438 -2.285156 5.957031 -0.796875 4.296875 -0.796875 C 3.066406 -0.796875 2.285156 -1.261719 2.285156 -3.035156 L 2.285156 -7.984375 L 1.007812 -7.984375 L 1.007812 -2.890625 C 1.007812 -0.796875 1.917969 0.253906 3.929688 0.253906 C 5.476562 0.253906 6.417969 -0.605469 6.898438 -2.027344 L 6.898438 0 L 8.175781 0 L 8.175781 -7.984375 Z M 6.898438 -7.984375 "/></g></g></g><g fill="#c01e3a" fill-opacity="1"><g transform="translate(175.82669, 349.517415)"><g><path d="M 5.429688 -8.238281 C 3.960938 -8.238281 2.953125 -7.585938 2.410156 -6.453125 L 2.410156 -7.984375 L 1.132812 -7.984375 L 1.132812 3.195312 L 2.410156 3.195312 L 2.410156 -1.515625 C 2.953125 -0.382812 3.960938 0.253906 5.429688 0.253906 C 7.9375 0.253906 9.085938 -1.53125 9.085938 -3.992188 C 9.085938 -6.4375 7.9375 -8.238281 5.429688 -8.238281 Z M 5.175781 -0.78125 C 3.480469 -0.78125 2.410156 -1.742188 2.410156 -3.992188 C 2.410156 -6.242188 3.480469 -7.203125 5.175781 -7.203125 C 6.996094 -7.203125 7.792969 -6.132812 7.792969 -3.992188 C 7.792969 -1.835938 6.996094 -0.78125 5.175781 -0.78125 Z M 5.175781 -0.78125 "/></g></g></g><g fill="#c01e3a" fill-opacity="1"><g transform="translate(185.375473, 349.517415)"><g><path d="M 5.429688 -8.238281 C 3.960938 -8.238281 2.953125 -7.585938 2.410156 -6.453125 L 2.410156 -7.984375 L 1.132812 -7.984375 L 1.132812 3.195312 L 2.410156 3.195312 L 2.410156 -1.515625 C 2.953125 -0.382812 3.960938 0.253906 5.429688 0.253906 C 7.9375 0.253906 9.085938 -1.53125 9.085938 -3.992188 C 9.085938 -6.4375 7.9375 -8.238281 5.429688 -8.238281 Z M 5.175781 -0.78125 C 3.480469 -0.78125 2.410156 -1.742188 2.410156 -3.992188 C 2.410156 -6.242188 3.480469 -7.203125 5.175781 -7.203125 C 6.996094 -7.203125 7.792969 -6.132812 7.792969 -3.992188 C 7.792969 -1.835938 6.996094 -0.78125 5.175781 -0.78125 Z M 5.175781 -0.78125 "/></g></g></g><g fill="#c01e3a" fill-opacity="1"><g transform="translate(194.924256, 349.517415)"><g><path d="M 4.789062 0.253906 C 7.472656 0.253906 8.800781 -1.613281 8.800781 -4.007812 C 8.800781 -6.371094 7.472656 -8.238281 4.789062 -8.238281 C 2.09375 -8.238281 0.765625 -6.386719 0.765625 -4.007812 C 0.765625 -1.597656 2.09375 0.253906 4.789062 0.253906 Z M 2.058594 -3.992188 C 2.058594 -6.242188 2.984375 -7.203125 4.789062 -7.203125 C 6.59375 -7.203125 7.503906 -6.242188 7.503906 -3.992188 C 7.503906 -1.757812 6.59375 -0.78125 4.789062 -0.78125 C 2.984375 -0.78125 2.058594 -1.757812 2.058594 -3.992188 Z M 2.058594 -3.992188 "/></g></g></g><g fill="#c01e3a" fill-opacity="1"><g transform="translate(204.169659, 349.517415)"><g><path d="M 5.367188 -8.097656 C 3.847656 -8.097656 2.921875 -7.203125 2.441406 -5.875 L 2.441406 -7.984375 L 1.164062 -7.984375 L 1.164062 0 L 2.441406 0 L 2.441406 -2.9375 C 2.441406 -5.191406 2.953125 -6.914062 5.316406 -6.835938 L 5.652344 -6.835938 L 5.652344 -8.097656 Z M 5.367188 -8.097656 "/></g></g></g><g fill="#c01e3a" fill-opacity="1"><g transform="translate(209.997904, 349.517415)"><g><path d="M 3.769531 0 L 5.652344 0 L 5.652344 -1.039062 L 3.113281 -1.039062 L 3.113281 -6.980469 L 5.75 -6.980469 L 5.75 -7.984375 L 3.113281 -7.984375 L 3.113281 -9.757812 L 2.425781 -9.757812 L 1.949219 -8.097656 L 0.320312 -7.695312 L 0.320312 -6.980469 L 1.835938 -6.980469 L 1.835938 -1.867188 C 1.835938 -0.589844 2.234375 0 3.769531 0 Z M 3.769531 0 "/></g></g></g><g fill="#c01e3a" fill-opacity="1"><g transform="translate(215.921949, 349.517415)"><g/></g></g><g fill="#c01e3a" fill-opacity="1"><g transform="translate(219.195309, 349.517415)"><g><path d="M 3.769531 0 L 5.652344 0 L 5.652344 -1.039062 L 3.113281 -1.039062 L 3.113281 -6.980469 L 5.75 -6.980469 L 5.75 -7.984375 L 3.113281 -7.984375 L 3.113281 -9.757812 L 2.425781 -9.757812 L 1.949219 -8.097656 L 0.320312 -7.695312 L 0.320312 -6.980469 L 1.835938 -6.980469 L 1.835938 -1.867188 C 1.835938 -0.589844 2.234375 0 3.769531 0 Z M 3.769531 0 "/></g></g></g><g fill="#c01e3a" fill-opacity="1"><g transform="translate(225.119355, 349.517415)"><g><path d="M 4.789062 0.253906 C 7.472656 0.253906 8.800781 -1.613281 8.800781 -4.007812 C 8.800781 -6.371094 7.472656 -8.238281 4.789062 -8.238281 C 2.09375 -8.238281 0.765625 -6.386719 0.765625 -4.007812 C 0.765625 -1.597656 2.09375 0.253906 4.789062 0.253906 Z M 2.058594 -3.992188 C 2.058594 -6.242188 2.984375 -7.203125 4.789062 -7.203125 C 6.59375 -7.203125 7.503906 -6.242188 7.503906 -3.992188 C 7.503906 -1.757812 6.59375 -0.78125 4.789062 -0.78125 C 2.984375 -0.78125 2.058594 -1.757812 2.058594 -3.992188 Z M 2.058594 -3.992188 "/></g></g></g><g fill="#c01e3a" fill-opacity="1"><g transform="translate(234.364752, 349.517415)"><g/></g></g><g fill="#c01e3a" fill-opacity="1"><g transform="translate(237.638112, 349.517415)"><g><path d="M 4.773438 -0.71875 C 3.179688 -0.71875 2.125 -1.515625 2.027344 -3.703125 L 8.449219 -3.703125 C 8.480469 -3.898438 8.480469 -4.054688 8.480469 -4.265625 C 8.480469 -6.59375 7.121094 -8.238281 4.726562 -8.238281 C 2.074219 -8.238281 0.765625 -6.386719 0.765625 -4.007812 C 0.765625 -1.597656 1.980469 0.253906 4.726562 0.253906 C 7.378906 0.253906 8.304688 -1.246094 8.464844 -2.460938 L 7.296875 -2.460938 C 7.058594 -1.453125 6.339844 -0.71875 4.773438 -0.71875 Z M 4.742188 -7.265625 C 6.226562 -7.265625 7.171875 -6.5 7.234375 -4.664062 L 2.058594 -4.664062 C 2.234375 -6.546875 3.226562 -7.265625 4.742188 -7.265625 Z M 4.742188 -7.265625 "/></g></g></g><g fill="#c01e3a" fill-opacity="1"><g transform="translate(246.51624, 349.517415)"><g><path d="M 5.507812 -8.238281 C 3.929688 -8.238281 2.9375 -7.347656 2.441406 -5.894531 L 2.441406 -7.984375 L 1.164062 -7.984375 L 1.164062 0 L 2.441406 0 L 2.441406 -3.050781 C 2.441406 -5.796875 3.386719 -7.171875 5.15625 -7.171875 C 6.324219 -7.171875 7.074219 -6.660156 7.074219 -4.949219 L 7.074219 0 L 8.351562 0 L 8.351562 -5.09375 C 8.351562 -7.152344 7.503906 -8.238281 5.507812 -8.238281 Z M 5.507812 -8.238281 "/></g></g></g><g fill="#c01e3a" fill-opacity="1"><g transform="translate(255.554053, 349.517415)"><g><path d="M 0.605469 -2.667969 C 0.640625 -0.988281 1.691406 0.253906 4.296875 0.253906 C 6.417969 0.253906 7.554688 -0.542969 7.554688 -2.171875 C 7.554688 -3.480469 6.882812 -4.265625 5.046875 -4.535156 L 3.355469 -4.773438 C 2.347656 -4.917969 2.058594 -5.398438 2.058594 -5.957031 C 2.058594 -6.738281 2.617188 -7.28125 3.976562 -7.28125 C 5.445312 -7.28125 6.050781 -6.53125 6.132812 -5.699219 L 7.394531 -5.699219 C 7.296875 -7.203125 6.101562 -8.257812 4.007812 -8.257812 C 1.996094 -8.257812 0.8125 -7.347656 0.8125 -5.859375 C 0.8125 -4.632812 1.597656 -3.898438 2.984375 -3.703125 L 4.839844 -3.433594 C 5.84375 -3.289062 6.292969 -2.875 6.292969 -2.109375 C 6.292969 -1.214844 5.734375 -0.71875 4.328125 -0.71875 C 2.492188 -0.71875 1.882812 -1.582031 1.789062 -2.667969 Z M 0.605469 -2.667969 "/></g></g></g><g fill="#c01e3a" fill-opacity="1"><g transform="translate(263.474102, 349.517415)"><g><path d="M 6.898438 -7.984375 L 6.898438 -4.933594 C 6.898438 -2.285156 5.957031 -0.796875 4.296875 -0.796875 C 3.066406 -0.796875 2.285156 -1.261719 2.285156 -3.035156 L 2.285156 -7.984375 L 1.007812 -7.984375 L 1.007812 -2.890625 C 1.007812 -0.796875 1.917969 0.253906 3.929688 0.253906 C 5.476562 0.253906 6.417969 -0.605469 6.898438 -2.027344 L 6.898438 0 L 8.175781 0 L 8.175781 -7.984375 Z M 6.898438 -7.984375 "/></g></g></g><g fill="#c01e3a" fill-opacity="1"><g transform="translate(272.495944, 349.517415)"><g><path d="M 5.367188 -8.097656 C 3.847656 -8.097656 2.921875 -7.203125 2.441406 -5.875 L 2.441406 -7.984375 L 1.164062 -7.984375 L 1.164062 0 L 2.441406 0 L 2.441406 -2.9375 C 2.441406 -5.191406 2.953125 -6.914062 5.316406 -6.835938 L 5.652344 -6.835938 L 5.652344 -8.097656 Z M 5.367188 -8.097656 "/></g></g></g><g fill="#c01e3a" fill-opacity="1"><g transform="translate(278.324188, 349.517415)"><g><path d="M 4.773438 -0.71875 C 3.179688 -0.71875 2.125 -1.515625 2.027344 -3.703125 L 8.449219 -3.703125 C 8.480469 -3.898438 8.480469 -4.054688 8.480469 -4.265625 C 8.480469 -6.59375 7.121094 -8.238281 4.726562 -8.238281 C 2.074219 -8.238281 0.765625 -6.386719 0.765625 -4.007812 C 0.765625 -1.597656 1.980469 0.253906 4.726562 0.253906 C 7.378906 0.253906 8.304688 -1.246094 8.464844 -2.460938 L 7.296875 -2.460938 C 7.058594 -1.453125 6.339844 -0.71875 4.773438 -0.71875 Z M 4.742188 -7.265625 C 6.226562 -7.265625 7.171875 -6.5 7.234375 -4.664062 L 2.058594 -4.664062 C 2.234375 -6.546875 3.226562 -7.265625 4.742188 -7.265625 Z M 4.742188 -7.265625 "/></g></g></g><g fill="#c01e3a" fill-opacity="1"><g transform="translate(287.202317, 349.517415)"><g/></g></g><g fill="#c01e3a" fill-opacity="1"><g transform="translate(290.475677, 349.517415)"><g><path d="M 3.769531 0 L 5.652344 0 L 5.652344 -1.039062 L 3.113281 -1.039062 L 3.113281 -6.980469 L 5.75 -6.980469 L 5.75 -7.984375 L 3.113281 -7.984375 L 3.113281 -9.757812 L 2.425781 -9.757812 L 1.949219 -8.097656 L 0.320312 -7.695312 L 0.320312 -6.980469 L 1.835938 -6.980469 L 1.835938 -1.867188 C 1.835938 -0.589844 2.234375 0 3.769531 0 Z M 3.769531 0 "/></g></g></g><g fill="#c01e3a" fill-opacity="1"><g transform="translate(296.399723, 349.517415)"><g><path d="M 5.507812 -8.238281 C 3.929688 -8.238281 2.9375 -7.347656 2.441406 -5.894531 L 2.441406 -11.179688 L 1.164062 -11.179688 L 1.164062 0 L 2.441406 0 L 2.441406 -3.050781 C 2.441406 -5.796875 3.386719 -7.171875 5.15625 -7.171875 C 6.324219 -7.171875 7.074219 -6.660156 7.074219 -4.949219 L 7.074219 0 L 8.351562 0 L 8.351562 -5.09375 C 8.351562 -7.152344 7.503906 -8.238281 5.507812 -8.238281 Z M 5.507812 -8.238281 "/></g></g></g><g fill="#c01e3a" fill-opacity="1"><g transform="translate(305.437547, 349.517415)"><g><path d="M 3.5625 0.207031 C 5.414062 0.207031 6.261719 -0.910156 6.5625 -1.867188 C 6.5625 -1.277344 6.609375 -0.6875 6.675781 0 L 7.839844 0 C 7.761719 -0.78125 7.746094 -1.40625 7.746094 -1.980469 L 7.746094 -5.8125 C 7.746094 -7.25 6.753906 -8.257812 4.566406 -8.257812 C 2.363281 -8.257812 1.164062 -7.171875 1.117188 -5.476562 L 2.378906 -5.476562 C 2.460938 -6.515625 3.050781 -7.25 4.613281 -7.25 C 6.164062 -7.25 6.578125 -6.628906 6.578125 -5.8125 C 6.578125 -5.207031 6.226562 -4.984375 5.382812 -4.839844 L 3.355469 -4.503906 C 1.628906 -4.214844 0.925781 -3.402344 0.925781 -2.109375 C 0.925781 -0.589844 2.027344 0.207031 3.5625 0.207031 Z M 3.816406 -0.796875 C 2.875 -0.796875 2.21875 -1.246094 2.21875 -2.15625 C 2.21875 -3.019531 2.730469 -3.433594 3.816406 -3.65625 L 5.140625 -3.929688 C 5.75 -4.054688 6.179688 -4.183594 6.578125 -4.472656 L 6.578125 -3.785156 C 6.578125 -2.269531 5.699219 -0.796875 3.816406 -0.796875 Z M 3.816406 -0.796875 "/></g></g></g><g fill="#c01e3a" fill-opacity="1"><g transform="translate(313.868577, 349.517415)"><g><path d="M 3.769531 0 L 5.652344 0 L 5.652344 -1.039062 L 3.113281 -1.039062 L 3.113281 -6.980469 L 5.75 -6.980469 L 5.75 -7.984375 L 3.113281 -7.984375 L 3.113281 -9.757812 L 2.425781 -9.757812 L 1.949219 -8.097656 L 0.320312 -7.695312 L 0.320312 -6.980469 L 1.835938 -6.980469 L 1.835938 -1.867188 C 1.835938 -0.589844 2.234375 0 3.769531 0 Z M 3.769531 0 "/></g></g></g><g fill="#c01e3a" fill-opacity="1"><g transform="translate(126.211871, 369.731763)"><g><path d="M 3.5625 0.207031 C 5.414062 0.207031 6.261719 -0.910156 6.5625 -1.867188 C 6.5625 -1.277344 6.609375 -0.6875 6.675781 0 L 7.839844 0 C 7.761719 -0.78125 7.746094 -1.40625 7.746094 -1.980469 L 7.746094 -5.8125 C 7.746094 -7.25 6.753906 -8.257812 4.566406 -8.257812 C 2.363281 -8.257812 1.164062 -7.171875 1.117188 -5.476562 L 2.378906 -5.476562 C 2.460938 -6.515625 3.050781 -7.25 4.613281 -7.25 C 6.164062 -7.25 6.578125 -6.628906 6.578125 -5.8125 C 6.578125 -5.207031 6.226562 -4.984375 5.382812 -4.839844 L 3.355469 -4.503906 C 1.628906 -4.214844 0.925781 -3.402344 0.925781 -2.109375 C 0.925781 -0.589844 2.027344 0.207031 3.5625 0.207031 Z M 3.816406 -0.796875 C 2.875 -0.796875 2.21875 -1.246094 2.21875 -2.15625 C 2.21875 -3.019531 2.730469 -3.433594 3.816406 -3.65625 L 5.140625 -3.929688 C 5.75 -4.054688 6.179688 -4.183594 6.578125 -4.472656 L 6.578125 -3.785156 C 6.578125 -2.269531 5.699219 -0.796875 3.816406 -0.796875 Z M 3.816406 -0.796875 "/></g></g></g><g fill="#c01e3a" fill-opacity="1"><g transform="translate(134.642902, 369.731763)"><g><path d="M 5.507812 -8.238281 C 3.929688 -8.238281 2.9375 -7.347656 2.441406 -5.894531 L 2.441406 -7.984375 L 1.164062 -7.984375 L 1.164062 0 L 2.441406 0 L 2.441406 -3.050781 C 2.441406 -5.796875 3.386719 -7.171875 5.15625 -7.171875 C 6.324219 -7.171875 7.074219 -6.660156 7.074219 -4.949219 L 7.074219 0 L 8.351562 0 L 8.351562 -5.09375 C 8.351562 -7.152344 7.503906 -8.238281 5.507812 -8.238281 Z M 5.507812 -8.238281 "/></g></g></g><g fill="#c01e3a" fill-opacity="1"><g transform="translate(143.680716, 369.731763)"><g><path d="M 7.21875 -7.984375 L 4.742188 -1.835938 L 4.503906 -1.070312 L 4.230469 -1.835938 L 1.789062 -7.984375 L 0.445312 -7.984375 L 3.609375 0 L 4.054688 0 L 3.179688 2.15625 L 0.957031 2.15625 L 0.957031 3.195312 L 2.476562 3.195312 C 3.914062 3.195312 4.230469 2.601562 4.726562 1.324219 L 8.480469 -7.984375 Z M 7.21875 -7.984375 "/></g></g></g><g fill="#c01e3a" fill-opacity="1"><g transform="translate(152.239492, 369.731763)"><g/></g></g><g fill="#c01e3a" fill-opacity="1"><g transform="translate(155.512854, 369.731763)"><g><path d="M 0.988281 -9.292969 L 2.636719 -9.292969 L 2.636719 -10.621094 L 0.988281 -10.621094 Z M 1.164062 0 L 2.441406 0 L 2.441406 -7.984375 L 1.164062 -7.984375 Z M 1.164062 0 "/></g></g></g><g fill="#c01e3a" fill-opacity="1"><g transform="translate(158.818158, 369.731763)"><g><path d="M 0.605469 -2.667969 C 0.640625 -0.988281 1.691406 0.253906 4.296875 0.253906 C 6.417969 0.253906 7.554688 -0.542969 7.554688 -2.171875 C 7.554688 -3.480469 6.882812 -4.265625 5.046875 -4.535156 L 3.355469 -4.773438 C 2.347656 -4.917969 2.058594 -5.398438 2.058594 -5.957031 C 2.058594 -6.738281 2.617188 -7.28125 3.976562 -7.28125 C 5.445312 -7.28125 6.050781 -6.53125 6.132812 -5.699219 L 7.394531 -5.699219 C 7.296875 -7.203125 6.101562 -8.257812 4.007812 -8.257812 C 1.996094 -8.257812 0.8125 -7.347656 0.8125 -5.859375 C 0.8125 -4.632812 1.597656 -3.898438 2.984375 -3.703125 L 4.839844 -3.433594 C 5.84375 -3.289062 6.292969 -2.875 6.292969 -2.109375 C 6.292969 -1.214844 5.734375 -0.71875 4.328125 -0.71875 C 2.492188 -0.71875 1.882812 -1.582031 1.789062 -2.667969 Z M 0.605469 -2.667969 "/></g></g></g><g fill="#c01e3a" fill-opacity="1"><g transform="translate(166.738207, 369.731763)"><g><path d="M 0.605469 -2.667969 C 0.640625 -0.988281 1.691406 0.253906 4.296875 0.253906 C 6.417969 0.253906 7.554688 -0.542969 7.554688 -2.171875 C 7.554688 -3.480469 6.882812 -4.265625 5.046875 -4.535156 L 3.355469 -4.773438 C 2.347656 -4.917969 2.058594 -5.398438 2.058594 -5.957031 C 2.058594 -6.738281 2.617188 -7.28125 3.976562 -7.28125 C 5.445312 -7.28125 6.050781 -6.53125 6.132812 -5.699219 L 7.394531 -5.699219 C 7.296875 -7.203125 6.101562 -8.257812 4.007812 -8.257812 C 1.996094 -8.257812 0.8125 -7.347656 0.8125 -5.859375 C 0.8125 -4.632812 1.597656 -3.898438 2.984375 -3.703125 L 4.839844 -3.433594 C 5.84375 -3.289062 6.292969 -2.875 6.292969 -2.109375 C 6.292969 -1.214844 5.734375 -0.71875 4.328125 -0.71875 C 2.492188 -0.71875 1.882812 -1.582031 1.789062 -2.667969 Z M 0.605469 -2.667969 "/></g></g></g><g fill="#c01e3a" fill-opacity="1"><g transform="translate(174.658255, 369.731763)"><g><path d="M 6.898438 -7.984375 L 6.898438 -4.933594 C 6.898438 -2.285156 5.957031 -0.796875 4.296875 -0.796875 C 3.066406 -0.796875 2.285156 -1.261719 2.285156 -3.035156 L 2.285156 -7.984375 L 1.007812 -7.984375 L 1.007812 -2.890625 C 1.007812 -0.796875 1.917969 0.253906 3.929688 0.253906 C 5.476562 0.253906 6.417969 -0.605469 6.898438 -2.027344 L 6.898438 0 L 8.175781 0 L 8.175781 -7.984375 Z M 6.898438 -7.984375 "/></g></g></g><g fill="#c01e3a" fill-opacity="1"><g transform="translate(183.680097, 369.731763)"><g><path d="M 4.773438 -0.71875 C 3.179688 -0.71875 2.125 -1.515625 2.027344 -3.703125 L 8.449219 -3.703125 C 8.480469 -3.898438 8.480469 -4.054688 8.480469 -4.265625 C 8.480469 -6.59375 7.121094 -8.238281 4.726562 -8.238281 C 2.074219 -8.238281 0.765625 -6.386719 0.765625 -4.007812 C 0.765625 -1.597656 1.980469 0.253906 4.726562 0.253906 C 7.378906 0.253906 8.304688 -1.246094 8.464844 -2.460938 L 7.296875 -2.460938 C 7.058594 -1.453125 6.339844 -0.71875 4.773438 -0.71875 Z M 4.742188 -7.265625 C 6.226562 -7.265625 7.171875 -6.5 7.234375 -4.664062 L 2.058594 -4.664062 C 2.234375 -6.546875 3.226562 -7.265625 4.742188 -7.265625 Z M 4.742188 -7.265625 "/></g></g></g><g fill="#c01e3a" fill-opacity="1"><g transform="translate(192.558226, 369.731763)"><g><path d="M 0.605469 -2.667969 C 0.640625 -0.988281 1.691406 0.253906 4.296875 0.253906 C 6.417969 0.253906 7.554688 -0.542969 7.554688 -2.171875 C 7.554688 -3.480469 6.882812 -4.265625 5.046875 -4.535156 L 3.355469 -4.773438 C 2.347656 -4.917969 2.058594 -5.398438 2.058594 -5.957031 C 2.058594 -6.738281 2.617188 -7.28125 3.976562 -7.28125 C 5.445312 -7.28125 6.050781 -6.53125 6.132812 -5.699219 L 7.394531 -5.699219 C 7.296875 -7.203125 6.101562 -8.257812 4.007812 -8.257812 C 1.996094 -8.257812 0.8125 -7.347656 0.8125 -5.859375 C 0.8125 -4.632812 1.597656 -3.898438 2.984375 -3.703125 L 4.839844 -3.433594 C 5.84375 -3.289062 6.292969 -2.875 6.292969 -2.109375 C 6.292969 -1.214844 5.734375 -0.71875 4.328125 -0.71875 C 2.492188 -0.71875 1.882812 -1.582031 1.789062 -2.667969 Z M 0.605469 -2.667969 "/></g></g></g><g fill="#c01e3a" fill-opacity="1"><g transform="translate(200.478275, 369.731763)"><g/></g></g><g fill="#c01e3a" fill-opacity="1"><g transform="translate(203.751634, 369.731763)"><g><path d="M 3.769531 0 L 5.652344 0 L 5.652344 -1.039062 L 3.113281 -1.039062 L 3.113281 -6.980469 L 5.75 -6.980469 L 5.75 -7.984375 L 3.113281 -7.984375 L 3.113281 -9.757812 L 2.425781 -9.757812 L 1.949219 -8.097656 L 0.320312 -7.695312 L 0.320312 -6.980469 L 1.835938 -6.980469 L 1.835938 -1.867188 C 1.835938 -0.589844 2.234375 0 3.769531 0 Z M 3.769531 0 "/></g></g></g><g fill="#c01e3a" fill-opacity="1"><g transform="translate(209.67568, 369.731763)"><g><path d="M 5.507812 -8.238281 C 3.929688 -8.238281 2.9375 -7.347656 2.441406 -5.894531 L 2.441406 -11.179688 L 1.164062 -11.179688 L 1.164062 0 L 2.441406 0 L 2.441406 -3.050781 C 2.441406 -5.796875 3.386719 -7.171875 5.15625 -7.171875 C 6.324219 -7.171875 7.074219 -6.660156 7.074219 -4.949219 L 7.074219 0 L 8.351562 0 L 8.351562 -5.09375 C 8.351562 -7.152344 7.503906 -8.238281 5.507812 -8.238281 Z M 5.507812 -8.238281 "/></g></g></g><g fill="#c01e3a" fill-opacity="1"><g transform="translate(218.713493, 369.731763)"><g><path d="M 4.773438 -0.71875 C 3.179688 -0.71875 2.125 -1.515625 2.027344 -3.703125 L 8.449219 -3.703125 C 8.480469 -3.898438 8.480469 -4.054688 8.480469 -4.265625 C 8.480469 -6.59375 7.121094 -8.238281 4.726562 -8.238281 C 2.074219 -8.238281 0.765625 -6.386719 0.765625 -4.007812 C 0.765625 -1.597656 1.980469 0.253906 4.726562 0.253906 C 7.378906 0.253906 8.304688 -1.246094 8.464844 -2.460938 L 7.296875 -2.460938 C 7.058594 -1.453125 6.339844 -0.71875 4.773438 -0.71875 Z M 4.742188 -7.265625 C 6.226562 -7.265625 7.171875 -6.5 7.234375 -4.664062 L 2.058594 -4.664062 C 2.234375 -6.546875 3.226562 -7.265625 4.742188 -7.265625 Z M 4.742188 -7.265625 "/></g></g></g><g fill="#c01e3a" fill-opacity="1"><g transform="translate(227.591622, 369.731763)"><g><path d="M 7.21875 -7.984375 L 4.742188 -1.835938 L 4.503906 -1.070312 L 4.230469 -1.835938 L 1.789062 -7.984375 L 0.445312 -7.984375 L 3.609375 0 L 4.054688 0 L 3.179688 2.15625 L 0.957031 2.15625 L 0.957031 3.195312 L 2.476562 3.195312 C 3.914062 3.195312 4.230469 2.601562 4.726562 1.324219 L 8.480469 -7.984375 Z M 7.21875 -7.984375 "/></g></g></g><g fill="#c01e3a" fill-opacity="1"><g transform="translate(236.150394, 369.731763)"><g/></g></g><g fill="#c01e3a" fill-opacity="1"><g transform="translate(239.423754, 369.731763)"><g><path d="M 1.835938 0 L 3.113281 0 L 3.113281 -6.980469 L 5.445312 -6.980469 L 5.445312 -7.984375 L 3.019531 -7.984375 L 3.019531 -10.203125 L 5.894531 -10.203125 L 5.894531 -11.179688 L 3.863281 -11.179688 C 2.332031 -11.179688 1.835938 -10.636719 1.835938 -9.566406 L 1.835938 -8.03125 L 0.496094 -7.695312 L 0.496094 -6.980469 L 1.835938 -6.980469 Z M 1.835938 0 "/></g></g></g><g fill="#c01e3a" fill-opacity="1"><g transform="translate(244.996513, 369.731763)"><g><path d="M 3.5625 0.207031 C 5.414062 0.207031 6.261719 -0.910156 6.5625 -1.867188 C 6.5625 -1.277344 6.609375 -0.6875 6.675781 0 L 7.839844 0 C 7.761719 -0.78125 7.746094 -1.40625 7.746094 -1.980469 L 7.746094 -5.8125 C 7.746094 -7.25 6.753906 -8.257812 4.566406 -8.257812 C 2.363281 -8.257812 1.164062 -7.171875 1.117188 -5.476562 L 2.378906 -5.476562 C 2.460938 -6.515625 3.050781 -7.25 4.613281 -7.25 C 6.164062 -7.25 6.578125 -6.628906 6.578125 -5.8125 C 6.578125 -5.207031 6.226562 -4.984375 5.382812 -4.839844 L 3.355469 -4.503906 C 1.628906 -4.214844 0.925781 -3.402344 0.925781 -2.109375 C 0.925781 -0.589844 2.027344 0.207031 3.5625 0.207031 Z M 3.816406 -0.796875 C 2.875 -0.796875 2.21875 -1.246094 2.21875 -2.15625 C 2.21875 -3.019531 2.730469 -3.433594 3.816406 -3.65625 L 5.140625 -3.929688 C 5.75 -4.054688 6.179688 -4.183594 6.578125 -4.472656 L 6.578125 -3.785156 C 6.578125 -2.269531 5.699219 -0.796875 3.816406 -0.796875 Z M 3.816406 -0.796875 "/></g></g></g><g fill="#c01e3a" fill-opacity="1"><g transform="translate(253.427543, 369.731763)"><g><path d="M 0.765625 -3.992188 C 0.765625 -1.550781 2.140625 0.253906 4.757812 0.253906 C 7.1875 0.253906 8.480469 -1.214844 8.574219 -3.050781 L 7.363281 -3.050781 C 7.203125 -1.691406 6.371094 -0.78125 4.757812 -0.78125 C 3.082031 -0.78125 2.058594 -1.675781 2.058594 -3.992188 C 2.058594 -6.292969 3.113281 -7.203125 4.808594 -7.203125 C 6.292969 -7.203125 7.089844 -6.371094 7.28125 -5.0625 L 8.480469 -5.0625 C 8.351562 -6.914062 7.152344 -8.238281 4.757812 -8.238281 C 2.171875 -8.238281 0.765625 -6.4375 0.765625 -3.992188 Z M 0.765625 -3.992188 "/></g></g></g><g fill="#c01e3a" fill-opacity="1"><g transform="translate(262.353573, 369.731763)"><g><path d="M 4.773438 -0.71875 C 3.179688 -0.71875 2.125 -1.515625 2.027344 -3.703125 L 8.449219 -3.703125 C 8.480469 -3.898438 8.480469 -4.054688 8.480469 -4.265625 C 8.480469 -6.59375 7.121094 -8.238281 4.726562 -8.238281 C 2.074219 -8.238281 0.765625 -6.386719 0.765625 -4.007812 C 0.765625 -1.597656 1.980469 0.253906 4.726562 0.253906 C 7.378906 0.253906 8.304688 -1.246094 8.464844 -2.460938 L 7.296875 -2.460938 C 7.058594 -1.453125 6.339844 -0.71875 4.773438 -0.71875 Z M 4.742188 -7.265625 C 6.226562 -7.265625 7.171875 -6.5 7.234375 -4.664062 L 2.058594 -4.664062 C 2.234375 -6.546875 3.226562 -7.265625 4.742188 -7.265625 Z M 4.742188 -7.265625 "/></g></g></g><g fill="#c01e3a" fill-opacity="1"><g transform="translate(271.231702, 369.731763)"><g/></g></g><g fill="#c01e3a" fill-opacity="1"><g transform="translate(274.505062, 369.731763)"><g><path d="M 3.5625 0.207031 C 5.414062 0.207031 6.261719 -0.910156 6.5625 -1.867188 C 6.5625 -1.277344 6.609375 -0.6875 6.675781 0 L 7.839844 0 C 7.761719 -0.78125 7.746094 -1.40625 7.746094 -1.980469 L 7.746094 -5.8125 C 7.746094 -7.25 6.753906 -8.257812 4.566406 -8.257812 C 2.363281 -8.257812 1.164062 -7.171875 1.117188 -5.476562 L 2.378906 -5.476562 C 2.460938 -6.515625 3.050781 -7.25 4.613281 -7.25 C 6.164062 -7.25 6.578125 -6.628906 6.578125 -5.8125 C 6.578125 -5.207031 6.226562 -4.984375 5.382812 -4.839844 L 3.355469 -4.503906 C 1.628906 -4.214844 0.925781 -3.402344 0.925781 -2.109375 C 0.925781 -0.589844 2.027344 0.207031 3.5625 0.207031 Z M 3.816406 -0.796875 C 2.875 -0.796875 2.21875 -1.246094 2.21875 -2.15625 C 2.21875 -3.019531 2.730469 -3.433594 3.816406 -3.65625 L 5.140625 -3.929688 C 5.75 -4.054688 6.179688 -4.183594 6.578125 -4.472656 L 6.578125 -3.785156 C 6.578125 -2.269531 5.699219 -0.796875 3.816406 -0.796875 Z M 3.816406 -0.796875 "/></g></g></g><g fill="#c01e3a" fill-opacity="1"><g transform="translate(282.936092, 369.731763)"><g><path d="M 5.367188 -8.097656 C 3.847656 -8.097656 2.921875 -7.203125 2.441406 -5.875 L 2.441406 -7.984375 L 1.164062 -7.984375 L 1.164062 0 L 2.441406 0 L 2.441406 -2.9375 C 2.441406 -5.191406 2.953125 -6.914062 5.316406 -6.835938 L 5.652344 -6.835938 L 5.652344 -8.097656 Z M 5.367188 -8.097656 "/></g></g></g><g fill="#c01e3a" fill-opacity="1"><g transform="translate(288.764336, 369.731763)"><g><path d="M 4.773438 -0.71875 C 3.179688 -0.71875 2.125 -1.515625 2.027344 -3.703125 L 8.449219 -3.703125 C 8.480469 -3.898438 8.480469 -4.054688 8.480469 -4.265625 C 8.480469 -6.59375 7.121094 -8.238281 4.726562 -8.238281 C 2.074219 -8.238281 0.765625 -6.386719 0.765625 -4.007812 C 0.765625 -1.597656 1.980469 0.253906 4.726562 0.253906 C 7.378906 0.253906 8.304688 -1.246094 8.464844 -2.460938 L 7.296875 -2.460938 C 7.058594 -1.453125 6.339844 -0.71875 4.773438 -0.71875 Z M 4.742188 -7.265625 C 6.226562 -7.265625 7.171875 -6.5 7.234375 -4.664062 L 2.058594 -4.664062 C 2.234375 -6.546875 3.226562 -7.265625 4.742188 -7.265625 Z M 4.742188 -7.265625 "/></g></g></g><g fill="#c01e3a" fill-opacity="1"><g transform="translate(150.976786, 389.94611)"><g><path d="M 5.367188 -8.097656 C 3.847656 -8.097656 2.921875 -7.203125 2.441406 -5.875 L 2.441406 -7.984375 L 1.164062 -7.984375 L 1.164062 0 L 2.441406 0 L 2.441406 -2.9375 C 2.441406 -5.191406 2.953125 -6.914062 5.316406 -6.835938 L 5.652344 -6.835938 L 5.652344 -8.097656 Z M 5.367188 -8.097656 "/></g></g></g><g fill="#c01e3a" fill-opacity="1"><g transform="translate(156.805033, 389.94611)"><g><path d="M 4.773438 -0.71875 C 3.179688 -0.71875 2.125 -1.515625 2.027344 -3.703125 L 8.449219 -3.703125 C 8.480469 -3.898438 8.480469 -4.054688 8.480469 -4.265625 C 8.480469 -6.59375 7.121094 -8.238281 4.726562 -8.238281 C 2.074219 -8.238281 0.765625 -6.386719 0.765625 -4.007812 C 0.765625 -1.597656 1.980469 0.253906 4.726562 0.253906 C 7.378906 0.253906 8.304688 -1.246094 8.464844 -2.460938 L 7.296875 -2.460938 C 7.058594 -1.453125 6.339844 -0.71875 4.773438 -0.71875 Z M 4.742188 -7.265625 C 6.226562 -7.265625 7.171875 -6.5 7.234375 -4.664062 L 2.058594 -4.664062 C 2.234375 -6.546875 3.226562 -7.265625 4.742188 -7.265625 Z M 4.742188 -7.265625 "/></g></g></g><g fill="#c01e3a" fill-opacity="1"><g transform="translate(165.683163, 389.94611)"><g><path d="M 0.605469 -2.667969 C 0.640625 -0.988281 1.691406 0.253906 4.296875 0.253906 C 6.417969 0.253906 7.554688 -0.542969 7.554688 -2.171875 C 7.554688 -3.480469 6.882812 -4.265625 5.046875 -4.535156 L 3.355469 -4.773438 C 2.347656 -4.917969 2.058594 -5.398438 2.058594 -5.957031 C 2.058594 -6.738281 2.617188 -7.28125 3.976562 -7.28125 C 5.445312 -7.28125 6.050781 -6.53125 6.132812 -5.699219 L 7.394531 -5.699219 C 7.296875 -7.203125 6.101562 -8.257812 4.007812 -8.257812 C 1.996094 -8.257812 0.8125 -7.347656 0.8125 -5.859375 C 0.8125 -4.632812 1.597656 -3.898438 2.984375 -3.703125 L 4.839844 -3.433594 C 5.84375 -3.289062 6.292969 -2.875 6.292969 -2.109375 C 6.292969 -1.214844 5.734375 -0.71875 4.328125 -0.71875 C 2.492188 -0.71875 1.882812 -1.582031 1.789062 -2.667969 Z M 0.605469 -2.667969 "/></g></g></g><g fill="#c01e3a" fill-opacity="1"><g transform="translate(173.603213, 389.94611)"><g><path d="M 4.789062 0.253906 C 7.472656 0.253906 8.800781 -1.613281 8.800781 -4.007812 C 8.800781 -6.371094 7.472656 -8.238281 4.789062 -8.238281 C 2.09375 -8.238281 0.765625 -6.386719 0.765625 -4.007812 C 0.765625 -1.597656 2.09375 0.253906 4.789062 0.253906 Z M 2.058594 -3.992188 C 2.058594 -6.242188 2.984375 -7.203125 4.789062 -7.203125 C 6.59375 -7.203125 7.503906 -6.242188 7.503906 -3.992188 C 7.503906 -1.757812 6.59375 -0.78125 4.789062 -0.78125 C 2.984375 -0.78125 2.058594 -1.757812 2.058594 -3.992188 Z M 2.058594 -3.992188 "/></g></g></g><g fill="#c01e3a" fill-opacity="1"><g transform="translate(182.848612, 389.94611)"><g><path d="M 1.148438 0 L 2.425781 0 L 2.425781 -11.179688 L 1.148438 -11.179688 Z M 1.148438 0 "/></g></g></g><g fill="#c01e3a" fill-opacity="1"><g transform="translate(186.106015, 389.94611)"><g><path d="M 7.121094 -7.984375 L 4.421875 -1.117188 L 1.742188 -7.984375 L 0.398438 -7.984375 L 3.546875 0 L 5.238281 0 L 8.382812 -7.984375 Z M 7.121094 -7.984375 "/></g></g></g><g fill="#c01e3a" fill-opacity="1"><g transform="translate(194.553007, 389.94611)"><g><path d="M 4.773438 -0.71875 C 3.179688 -0.71875 2.125 -1.515625 2.027344 -3.703125 L 8.449219 -3.703125 C 8.480469 -3.898438 8.480469 -4.054688 8.480469 -4.265625 C 8.480469 -6.59375 7.121094 -8.238281 4.726562 -8.238281 C 2.074219 -8.238281 0.765625 -6.386719 0.765625 -4.007812 C 0.765625 -1.597656 1.980469 0.253906 4.726562 0.253906 C 7.378906 0.253906 8.304688 -1.246094 8.464844 -2.460938 L 7.296875 -2.460938 C 7.058594 -1.453125 6.339844 -0.71875 4.773438 -0.71875 Z M 4.742188 -7.265625 C 6.226562 -7.265625 7.171875 -6.5 7.234375 -4.664062 L 2.058594 -4.664062 C 2.234375 -6.546875 3.226562 -7.265625 4.742188 -7.265625 Z M 4.742188 -7.265625 "/></g></g></g><g fill="#c01e3a" fill-opacity="1"><g transform="translate(203.431136, 389.94611)"><g><path d="M 7.457031 -11.179688 L 7.457031 -6.46875 C 6.914062 -7.601562 5.910156 -8.238281 4.441406 -8.238281 C 1.933594 -8.238281 0.78125 -6.453125 0.78125 -3.992188 C 0.78125 -1.550781 1.933594 0.253906 4.441406 0.253906 C 5.910156 0.253906 6.914062 -0.398438 7.457031 -1.53125 L 7.457031 0 L 8.734375 0 L 8.734375 -11.179688 Z M 4.695312 -0.78125 C 2.875 -0.78125 2.074219 -1.851562 2.074219 -3.992188 C 2.074219 -6.148438 2.875 -7.203125 4.695312 -7.203125 C 6.386719 -7.203125 7.457031 -6.242188 7.457031 -3.992188 C 7.457031 -1.742188 6.386719 -0.78125 4.695312 -0.78125 Z M 4.695312 -0.78125 "/></g></g></g><g fill="#c01e3a" fill-opacity="1"><g transform="translate(212.979919, 389.94611)"><g/></g></g><g fill="#c01e3a" fill-opacity="1"><g transform="translate(216.253278, 389.94611)"><g><path d="M 7.457031 -7.984375 L 7.457031 -6.453125 C 6.914062 -7.585938 5.910156 -8.238281 4.441406 -8.238281 C 1.933594 -8.238281 0.78125 -6.4375 0.78125 -3.992188 C 0.78125 -1.53125 1.933594 0.253906 4.441406 0.253906 C 5.910156 0.253906 6.914062 -0.382812 7.457031 -1.515625 L 7.457031 3.195312 L 8.734375 3.195312 L 8.734375 -7.984375 Z M 4.695312 -0.78125 C 2.875 -0.78125 2.074219 -1.835938 2.074219 -3.992188 C 2.074219 -6.132812 2.875 -7.203125 4.695312 -7.203125 C 6.386719 -7.203125 7.457031 -6.242188 7.457031 -3.992188 C 7.457031 -1.742188 6.386719 -0.78125 4.695312 -0.78125 Z M 4.695312 -0.78125 "/></g></g></g><g fill="#c01e3a" fill-opacity="1"><g transform="translate(225.802061, 389.94611)"><g><path d="M 6.898438 -7.984375 L 6.898438 -4.933594 C 6.898438 -2.285156 5.957031 -0.796875 4.296875 -0.796875 C 3.066406 -0.796875 2.285156 -1.261719 2.285156 -3.035156 L 2.285156 -7.984375 L 1.007812 -7.984375 L 1.007812 -2.890625 C 1.007812 -0.796875 1.917969 0.253906 3.929688 0.253906 C 5.476562 0.253906 6.417969 -0.605469 6.898438 -2.027344 L 6.898438 0 L 8.175781 0 L 8.175781 -7.984375 Z M 6.898438 -7.984375 "/></g></g></g><g fill="#c01e3a" fill-opacity="1"><g transform="translate(234.823904, 389.94611)"><g><path d="M 0.988281 -9.292969 L 2.636719 -9.292969 L 2.636719 -10.621094 L 0.988281 -10.621094 Z M 1.164062 0 L 2.441406 0 L 2.441406 -7.984375 L 1.164062 -7.984375 Z M 1.164062 0 "/></g></g></g><g fill="#c01e3a" fill-opacity="1"><g transform="translate(238.129204, 389.94611)"><g><path d="M 0.765625 -3.992188 C 0.765625 -1.550781 2.140625 0.253906 4.757812 0.253906 C 7.1875 0.253906 8.480469 -1.214844 8.574219 -3.050781 L 7.363281 -3.050781 C 7.203125 -1.691406 6.371094 -0.78125 4.757812 -0.78125 C 3.082031 -0.78125 2.058594 -1.675781 2.058594 -3.992188 C 2.058594 -6.292969 3.113281 -7.203125 4.808594 -7.203125 C 6.292969 -7.203125 7.089844 -6.371094 7.28125 -5.0625 L 8.480469 -5.0625 C 8.351562 -6.914062 7.152344 -8.238281 4.757812 -8.238281 C 2.171875 -8.238281 0.765625 -6.4375 0.765625 -3.992188 Z M 0.765625 -3.992188 "/></g></g></g><g fill="#c01e3a" fill-opacity="1"><g transform="translate(247.055234, 389.94611)"><g><path d="M 7.105469 0 L 8.71875 0 L 4.886719 -4.613281 L 8.382812 -7.953125 L 8.382812 -7.984375 L 6.804688 -7.984375 L 3.210938 -4.535156 C 2.953125 -4.296875 2.683594 -4.007812 2.441406 -3.703125 L 2.441406 -11.179688 L 1.164062 -11.179688 L 1.164062 0 L 2.441406 0 L 2.441406 -2.285156 L 4.089844 -3.847656 Z M 7.105469 0 "/></g></g></g><g fill="#c01e3a" fill-opacity="1"><g transform="translate(255.80562, 389.94611)"><g><path d="M 1.148438 0 L 2.425781 0 L 2.425781 -11.179688 L 1.148438 -11.179688 Z M 1.148438 0 "/></g></g></g><g fill="#c01e3a" fill-opacity="1"><g transform="translate(259.063021, 389.94611)"><g><path d="M 7.21875 -7.984375 L 4.742188 -1.835938 L 4.503906 -1.070312 L 4.230469 -1.835938 L 1.789062 -7.984375 L 0.445312 -7.984375 L 3.609375 0 L 4.054688 0 L 3.179688 2.15625 L 0.957031 2.15625 L 0.957031 3.195312 L 2.476562 3.195312 C 3.914062 3.195312 4.230469 2.601562 4.726562 1.324219 L 8.480469 -7.984375 Z M 7.21875 -7.984375 "/></g></g></g><g fill="#c01e3a" fill-opacity="1"><g transform="translate(267.621793, 389.94611)"><g><path d="M 0.335938 0 L 1.996094 0 L 1.996094 -1.40625 L 0.335938 -1.40625 Z M 0.335938 0 "/></g></g></g><g fill="#c01e3a" fill-opacity="1"><g transform="translate(269.607404, 389.94611)"><g/></g></g><g fill="#c01e3a" fill-opacity="1"><g transform="translate(211.923981, 410.160458)"><g/></g></g><g fill="#2e2e2e" fill-opacity="1"><g transform="translate(121.549046, 283.535556)"><g><path d="M 9.433594 -15.265625 L 1.332031 -15.265625 L 1.332031 0 L 4.84375 0 L 4.84375 -5.324219 L 9.433594 -5.324219 C 12.902344 -5.324219 14.277344 -7.550781 14.277344 -10.375 C 14.277344 -13.039062 12.902344 -15.265625 9.433594 -15.265625 Z M 8.332031 -8.035156 L 4.84375 -8.035156 L 4.84375 -12.554688 L 8.355469 -12.554688 C 10.054688 -12.554688 10.652344 -11.636719 10.652344 -10.351562 C 10.652344 -9.019531 10.03125 -8.035156 8.332031 -8.035156 Z M 8.332031 -8.035156 "/></g></g></g><g fill="#2e2e2e" fill-opacity="1"><g transform="translate(136.5136, 283.535556)"><g><path d="M 8.148438 -11.660156 C 6.21875 -11.660156 5.1875 -10.652344 4.636719 -9.019531 L 4.636719 -11.476562 L 1.332031 -11.476562 L 1.332031 0 L 4.730469 0 L 4.730469 -4.523438 C 4.730469 -7.117188 5.507812 -8.355469 7.78125 -8.355469 L 8.90625 -8.355469 L 8.90625 -11.660156 Z M 8.148438 -11.660156 "/></g></g></g><g fill="#2e2e2e" fill-opacity="1"><g transform="translate(145.946784, 283.535556)"><g><path d="M 1.171875 -12.992188 L 4.867188 -12.992188 L 4.867188 -15.265625 L 1.171875 -15.265625 Z M 1.332031 0 L 4.730469 0 L 4.730469 -11.476562 L 1.332031 -11.476562 Z M 1.332031 0 "/></g></g></g><g fill="#2e2e2e" fill-opacity="1"><g transform="translate(151.983105, 283.535556)"><g><path d="M 7.207031 0.367188 C 11.796875 0.367188 13.566406 -2.570312 13.566406 -5.761719 C 13.566406 -8.90625 11.796875 -11.84375 7.207031 -11.84375 C 2.640625 -11.84375 0.847656 -8.929688 0.847656 -5.761719 C 0.847656 -2.546875 2.640625 0.367188 7.207031 0.367188 Z M 4.269531 -5.738281 C 4.269531 -8.285156 5.140625 -9.183594 7.207031 -9.183594 C 9.296875 -9.183594 10.167969 -8.285156 10.167969 -5.738281 C 10.167969 -3.191406 9.296875 -2.296875 7.207031 -2.296875 C 5.140625 -2.296875 4.269531 -3.191406 4.269531 -5.738281 Z M 4.269531 -5.738281 "/></g></g></g><g fill="#2e2e2e" fill-opacity="1"><g transform="translate(166.396819, 283.535556)"><g><path d="M 8.148438 -11.660156 C 6.21875 -11.660156 5.1875 -10.652344 4.636719 -9.019531 L 4.636719 -11.476562 L 1.332031 -11.476562 L 1.332031 0 L 4.730469 0 L 4.730469 -4.523438 C 4.730469 -7.117188 5.507812 -8.355469 7.78125 -8.355469 L 8.90625 -8.355469 L 8.90625 -11.660156 Z M 8.148438 -11.660156 "/></g></g></g><g fill="#2e2e2e" fill-opacity="1"><g transform="translate(175.830004, 283.535556)"><g><path d="M 1.171875 -12.992188 L 4.867188 -12.992188 L 4.867188 -15.265625 L 1.171875 -15.265625 Z M 1.332031 0 L 4.730469 0 L 4.730469 -11.476562 L 1.332031 -11.476562 Z M 1.332031 0 "/></g></g></g><g fill="#2e2e2e" fill-opacity="1"><g transform="translate(181.866324, 283.535556)"><g><path d="M 6.566406 0 L 8.722656 0 L 8.722656 -2.707031 L 5.738281 -2.707031 L 5.738281 -8.90625 L 9.042969 -8.90625 L 9.042969 -11.476562 L 5.738281 -11.476562 L 5.738281 -14.207031 L 4.015625 -14.207031 L 2.617188 -11.5 L 0.253906 -10.535156 L 0.253906 -8.90625 L 2.339844 -8.90625 L 2.339844 -4.132812 C 2.339844 -1.398438 3.304688 0 6.566406 0 Z M 6.566406 0 "/></g></g></g><g fill="#2e2e2e" fill-opacity="1"><g transform="translate(191.506064, 283.535556)"><g><path d="M 9.871094 -11.476562 L 7.414062 -4.316406 L 6.886719 -2.433594 L 6.289062 -4.316406 L 3.765625 -11.476562 L 0.296875 -11.476562 L 4.222656 -0.207031 L 6.175781 -0.207031 L 5.417969 1.90625 L 0.988281 1.90625 L 0.988281 4.589844 L 3.855469 4.589844 C 7.160156 4.589844 8.148438 3.144531 9.089844 0.34375 L 13.105469 -11.476562 Z M 9.871094 -11.476562 "/></g></g></g><g fill="#2e2e2e" fill-opacity="1"><g transform="translate(204.841039, 283.535556)"><g/></g></g><g fill="#2e2e2e" fill-opacity="1"><g transform="translate(210.647841, 283.535556)"><g><path d="M 0.894531 -5.027344 C 1.011719 -2.25 2.730469 0.390625 7.757812 0.390625 C 12.53125 0.390625 14.390625 -1.5625 14.390625 -4.566406 C 14.390625 -7.230469 12.832031 -8.699219 9.734375 -9.042969 L 6.542969 -9.433594 C 5.28125 -9.570312 4.75 -10.238281 4.75 -11.132812 C 4.75 -12.328125 5.738281 -13.085938 7.597656 -13.085938 C 9.617188 -13.085938 10.628906 -12.164062 10.8125 -10.742188 L 14.230469 -10.742188 C 14.046875 -13.453125 12.164062 -15.65625 7.597656 -15.65625 C 3.304688 -15.65625 1.238281 -13.679688 1.238281 -10.925781 C 1.238281 -8.402344 2.753906 -6.910156 5.464844 -6.589844 L 8.835938 -6.152344 C 10.191406 -5.96875 10.878906 -5.371094 10.878906 -4.222656 C 10.878906 -3.007812 10.121094 -2.203125 7.804688 -2.203125 C 5.394531 -2.203125 4.382812 -3.398438 4.292969 -5.027344 Z M 0.894531 -5.027344 "/></g></g></g><g fill="#2e2e2e" fill-opacity="1"><g transform="translate(225.979629, 283.535556)"><g><path d="M 9.570312 -11.476562 L 9.570312 -6.265625 C 9.570312 -3.671875 8.515625 -2.410156 6.816406 -2.410156 C 5.371094 -2.410156 4.566406 -3.144531 4.566406 -4.957031 L 4.566406 -11.476562 L 1.171875 -11.476562 L 1.171875 -4.453125 C 1.171875 -1.445312 2.503906 0.367188 5.507812 0.367188 C 7.574219 0.367188 8.859375 -0.664062 9.570312 -2.203125 L 9.570312 0 L 12.96875 0 L 12.96875 -11.476562 Z M 9.570312 -11.476562 "/></g></g></g><g fill="#2e2e2e" fill-opacity="1"><g transform="translate(240.278579, 283.535556)"><g><path d="M 8.769531 -11.84375 C 6.792969 -11.84375 5.484375 -11.085938 4.683594 -9.824219 L 4.683594 -11.476562 L 1.285156 -11.476562 L 1.285156 4.589844 L 4.683594 4.589844 L 4.683594 -1.675781 C 5.484375 -0.390625 6.792969 0.367188 8.769531 0.367188 C 12.53125 0.367188 14.070312 -2.480469 14.070312 -5.738281 C 14.070312 -9.042969 12.53125 -11.84375 8.769531 -11.84375 Z M 7.734375 -2.296875 C 5.578125 -2.296875 4.683594 -3.398438 4.683594 -5.738281 C 4.683594 -8.078125 5.578125 -9.183594 7.734375 -9.183594 C 9.894531 -9.183594 10.652344 -8.125 10.652344 -5.738281 C 10.652344 -3.375 9.894531 -2.296875 7.734375 -2.296875 Z M 7.734375 -2.296875 "/></g></g></g><g fill="#2e2e2e" fill-opacity="1"><g transform="translate(255.174282, 283.535556)"><g><path d="M 8.769531 -11.84375 C 6.792969 -11.84375 5.484375 -11.085938 4.683594 -9.824219 L 4.683594 -11.476562 L 1.285156 -11.476562 L 1.285156 4.589844 L 4.683594 4.589844 L 4.683594 -1.675781 C 5.484375 -0.390625 6.792969 0.367188 8.769531 0.367188 C 12.53125 0.367188 14.070312 -2.480469 14.070312 -5.738281 C 14.070312 -9.042969 12.53125 -11.84375 8.769531 -11.84375 Z M 7.734375 -2.296875 C 5.578125 -2.296875 4.683594 -3.398438 4.683594 -5.738281 C 4.683594 -8.078125 5.578125 -9.183594 7.734375 -9.183594 C 9.894531 -9.183594 10.652344 -8.125 10.652344 -5.738281 C 10.652344 -3.375 9.894531 -2.296875 7.734375 -2.296875 Z M 7.734375 -2.296875 "/></g></g></g><g fill="#2e2e2e" fill-opacity="1"><g transform="translate(270.069984, 283.535556)"><g><path d="M 7.207031 0.367188 C 11.796875 0.367188 13.566406 -2.570312 13.566406 -5.761719 C 13.566406 -8.90625 11.796875 -11.84375 7.207031 -11.84375 C 2.640625 -11.84375 0.847656 -8.929688 0.847656 -5.761719 C 0.847656 -2.546875 2.640625 0.367188 7.207031 0.367188 Z M 4.269531 -5.738281 C 4.269531 -8.285156 5.140625 -9.183594 7.207031 -9.183594 C 9.296875 -9.183594 10.167969 -8.285156 10.167969 -5.738281 C 10.167969 -3.191406 9.296875 -2.296875 7.207031 -2.296875 C 5.140625 -2.296875 4.269531 -3.191406 4.269531 -5.738281 Z M 4.269531 -5.738281 "/></g></g></g><g fill="#2e2e2e" fill-opacity="1"><g transform="translate(284.483699, 283.535556)"><g><path d="M 8.148438 -11.660156 C 6.21875 -11.660156 5.1875 -10.652344 4.636719 -9.019531 L 4.636719 -11.476562 L 1.332031 -11.476562 L 1.332031 0 L 4.730469 0 L 4.730469 -4.523438 C 4.730469 -7.117188 5.507812 -8.355469 7.78125 -8.355469 L 8.90625 -8.355469 L 8.90625 -11.660156 Z M 8.148438 -11.660156 "/></g></g></g><g fill="#2e2e2e" fill-opacity="1"><g transform="translate(293.916883, 283.535556)"><g><path d="M 6.566406 0 L 8.722656 0 L 8.722656 -2.707031 L 5.738281 -2.707031 L 5.738281 -8.90625 L 9.042969 -8.90625 L 9.042969 -11.476562 L 5.738281 -11.476562 L 5.738281 -14.207031 L 4.015625 -14.207031 L 2.617188 -11.5 L 0.253906 -10.535156 L 0.253906 -8.90625 L 2.339844 -8.90625 L 2.339844 -4.132812 C 2.339844 -1.398438 3.304688 0 6.566406 0 Z M 6.566406 0 "/></g></g></g></svg>