<svg xmlns="http://www.w3.org/2000/svg" xmlns:xlink="http://www.w3.org/1999/xlink" width="567" zoomAndPan="magnify" viewBox="0 0 425.25 503.249982" height="671" preserveAspectRatio="xMidYMid meet" version="1.0"><defs><g/><clipPath id="19387049f9"><path d="M 126.164062 75.488281 L 298.660156 75.488281 L 298.660156 247.984375 L 126.164062 247.984375 Z M 126.164062 75.488281 " clip-rule="nonzero"/></clipPath><clipPath id="27a69e715c"><path d="M 212.410156 75.488281 C 164.777344 75.488281 126.164062 114.101562 126.164062 161.734375 C 126.164062 209.367188 164.777344 247.984375 212.410156 247.984375 C 260.042969 247.984375 298.660156 209.367188 298.660156 161.734375 C 298.660156 114.101562 260.042969 75.488281 212.410156 75.488281 " clip-rule="nonzero"/></clipPath><clipPath id="35988c791e"><path d="M 75.46875 297.738281 L 349.484375 297.738281 L 349.484375 416.027344 L 75.46875 416.027344 Z M 75.46875 297.738281 " clip-rule="nonzero"/></clipPath><clipPath id="44388661b8"><path d="M 90.449219 297.738281 L 334.503906 297.738281 C 338.476562 297.738281 342.285156 299.316406 345.097656 302.132812 C 347.90625 304.949219 349.484375 308.765625 349.484375 312.746094 L 349.484375 401.015625 C 349.484375 404.996094 347.90625 408.8125 345.097656 411.628906 C 342.285156 414.445312 338.476562 416.023438 334.503906 416.023438 L 90.449219 416.023438 C 86.472656 416.023438 82.664062 414.445312 79.855469 411.628906 C 77.046875 408.8125 75.46875 404.996094 75.46875 401.015625 L 75.46875 312.746094 C 75.46875 308.765625 77.046875 304.949219 79.855469 302.132812 C 82.664062 299.316406 86.472656 297.738281 90.449219 297.738281 " clip-rule="nonzero"/></clipPath><clipPath id="a40cf84216"><path d="M 170.339844 129.636719 L 275.605469 129.636719 L 275.605469 224.574219 L 170.339844 224.574219 Z M 170.339844 129.636719 " clip-rule="nonzero"/></clipPath></defs><g clip-path="url(#19387049f9)"><g clip-path="url(#27a69e715c)"><path fill="#c01e3a" d="M 126.164062 75.488281 L 298.660156 75.488281 L 298.660156 247.984375 L 126.164062 247.984375 Z M 126.164062 75.488281 " fill-opacity="1" fill-rule="nonzero"/></g></g><g clip-path="url(#35988c791e)"><g clip-path="url(#44388661b8)"><path stroke-linecap="round" transform="matrix(0.749063, 0, 0, 0.750535, 75.466898, 297.736681)" fill="none" stroke-linejoin="miter" d="M 20.001407 0.00213235 L 345.814565 0.00213235 C 351.118063 0.00213235 356.202538 2.104799 359.957228 5.85733 C 363.706702 9.609861 365.8135 14.694775 365.8135 19.998283 L 365.8135 137.607086 C 365.8135 142.910594 363.706702 147.995508 359.957228 151.748039 C 356.202538 155.50057 351.118063 157.603236 345.814565 157.603236 L 20.001407 157.603236 C 14.692694 157.603236 9.608219 155.50057 5.858744 151.748039 C 2.10927 147.995508 0.00247207 142.910594 0.00247207 137.607086 L 0.00247207 19.998283 C 0.00247207 14.694775 2.10927 9.609861 5.858744 5.85733 C 9.608219 2.104799 14.692694 0.00213235 20.001407 0.00213235 " stroke="#c01e3a" stroke-width="2" stroke-opacity="1" stroke-miterlimit="4"/></g></g><g clip-path="url(#a40cf84216)"><path fill="#2a2928" d="M 275.53125 158.570312 C 275.050781 148.71875 272.140625 139.070312 267.246094 130.523438 C 266.410156 129.066406 264.160156 130.378906 264.996094 131.839844 C 272.101562 144.246094 274.601562 158.914062 271.992188 172.972656 C 269.882812 184.324219 264.40625 194.882812 256.484375 203.257812 C 248.578125 211.617188 238.304688 217.515625 227.148438 220.265625 C 214.148438 223.46875 200.136719 222.097656 187.96875 216.546875 C 182.441406 214.027344 177.328125 210.636719 172.800781 206.589844 C 171.554688 205.472656 169.703125 207.308594 170.960938 208.433594 C 181.394531 217.765625 194.582031 223.375 208.542969 224.410156 C 220.5625 225.300781 232.734375 222.539062 243.28125 216.738281 C 264.132812 205.261719 276.691406 182.273438 275.53125 158.570312 " fill-opacity="1" fill-rule="nonzero"/></g><path fill="#2a2928" d="M 155.871094 180.730469 C 151.660156 167.777344 151.902344 153.742188 156.574219 140.953125 C 160.488281 130.242188 167.652344 120.738281 176.734375 113.867188 C 186.027344 106.835938 197.304688 102.660156 208.921875 101.878906 C 223.128906 100.921875 237.253906 105.148438 248.714844 113.558594 C 248.9375 113.722656 249.160156 113.890625 249.382812 114.058594 C 250.722656 115.074219 252.019531 112.808594 250.699219 111.808594 C 239.34375 103.238281 225.316406 98.796875 211.101562 99.171875 C 199.417969 99.476562 187.929688 103.175781 178.199219 109.640625 C 168.714844 115.945312 161.050781 124.871094 156.191406 135.167969 C 150.742188 146.714844 149.085938 159.714844 151.117188 172.296875 C 151.617188 175.394531 152.390625 178.441406 153.359375 181.421875 C 153.875 183.015625 156.390625 182.332031 155.871094 180.730469 " fill-opacity="1" fill-rule="nonzero"/><path fill="#2a2928" d="M 154.71875 185.144531 C 155.519531 187.113281 156.402344 189.046875 157.378906 190.9375 C 158.15625 192.429688 160.402344 191.113281 159.628906 189.625 C 158.753906 187.933594 157.949219 186.214844 157.230469 184.449219 C 156.605469 182.914062 154.085938 183.585938 154.71875 185.144531 " fill-opacity="1" fill-rule="nonzero"/><path fill="#2a2928" d="M 245.527344 119.410156 C 246.089844 119.84375 246.820312 119.957031 247.371094 119.410156 C 247.824219 118.957031 247.933594 118.003906 247.371094 117.566406 C 245.800781 116.355469 244.195312 115.207031 242.519531 114.148438 C 241.09375 113.25 239.789062 115.507812 241.203125 116.398438 C 242.691406 117.339844 244.136719 118.335938 245.527344 119.410156 " fill-opacity="1" fill-rule="nonzero"/><path fill="#2a2928" d="M 190.941406 213.691406 C 201.960938 218.332031 214.292969 219.277344 225.921875 216.53125 C 237.113281 213.886719 247.339844 207.605469 254.9375 199 C 262.660156 190.257812 267.394531 179.246094 268.648438 167.671875 C 269.917969 155.972656 267.296875 144.019531 261.480469 133.820312 C 260.648438 132.359375 258.398438 133.671875 259.230469 135.132812 C 266.171875 147.296875 268.109375 161.8125 264.628906 175.375 C 261.761719 186.558594 255.152344 196.519531 246.199219 203.765625 C 237.085938 211.144531 225.53125 215.203125 213.84375 215.46875 C 202.035156 215.742188 190.433594 211.976562 180.914062 205.019531 C 171.636719 198.246094 164.765625 188.367188 161.417969 177.402344 C 157.925781 165.953125 158.5 153.5 162.78125 142.347656 C 166.890625 131.644531 174.644531 122.472656 184.3125 116.378906 C 194.851562 109.734375 207.476562 107.144531 219.804688 108.675781 C 225.601562 109.394531 231.289062 111.195312 236.515625 113.773438 C 238.019531 114.511719 239.339844 112.265625 237.832031 111.523438 C 225.347656 105.371094 210.929688 103.984375 197.511719 107.707031 C 186.453125 110.777344 176.480469 117.402344 169.214844 126.273438 C 161.800781 135.324219 157.449219 146.539062 156.644531 158.199219 C 155.832031 169.992188 158.925781 181.914062 165.214844 191.898438 C 171.304688 201.570312 180.414062 209.257812 190.941406 213.691406 " fill-opacity="1" fill-rule="nonzero"/><path fill="#2a2928" d="M 231.75 167.988281 C 231.15625 168.582031 231.28125 169.242188 231.414062 169.96875 C 231.632812 171.148438 231.851562 172.324219 232.070312 173.503906 C 233.304688 180.152344 234.535156 186.800781 235.769531 193.445312 C 230.90625 190.972656 226.050781 188.5 221.1875 186.027344 C 218.8125 184.820312 216.433594 183.609375 214.054688 182.398438 C 213.289062 182.011719 212.730469 182.257812 212.0625 182.621094 C 211.011719 183.191406 209.957031 183.765625 208.90625 184.335938 C 202.945312 187.574219 196.984375 190.8125 191.023438 194.050781 C 191.867188 188.6875 192.714844 183.324219 193.558594 177.957031 C 193.972656 175.324219 194.386719 172.6875 194.804688 170.050781 C 194.941406 169.183594 194.617188 168.742188 194.050781 168.207031 C 193.179688 167.382812 192.3125 166.558594 191.445312 165.734375 C 186.503906 161.046875 181.566406 156.355469 176.625 151.671875 C 182.082031 150.800781 187.539062 149.933594 192.996094 149.0625 C 195.632812 148.644531 198.265625 148.226562 200.898438 147.804688 C 201.625 147.6875 201.859375 147.125 202.132812 146.550781 C 202.664062 145.4375 203.195312 144.324219 203.726562 143.207031 C 206.640625 137.097656 209.550781 130.988281 212.464844 124.878906 C 216.203125 132.203125 219.941406 139.53125 223.679688 146.855469 C 223.945312 147.378906 224.394531 147.558594 224.835938 147.503906 C 232.894531 148.566406 240.957031 149.625 249.019531 150.6875 C 245.148438 154.566406 241.277344 158.445312 237.402344 162.324219 C 235.519531 164.210938 233.636719 166.101562 231.75 167.988281 Z M 251.796875 148.445312 C 243.082031 147.300781 234.371094 146.152344 225.65625 145.007812 C 221.621094 137.097656 217.585938 129.191406 213.550781 121.28125 C 213.125 120.449219 211.714844 120.414062 211.300781 121.28125 C 207.476562 129.308594 203.652344 137.328125 199.828125 145.351562 C 191.042969 146.75 182.261719 148.148438 173.476562 149.546875 C 172.496094 149.703125 172.242188 151.101562 172.902344 151.726562 C 179.332031 157.828125 185.757812 163.929688 192.1875 170.027344 C 190.816406 178.722656 189.449219 187.414062 188.078125 196.105469 C 187.90625 197.210938 188.910156 198.164062 189.992188 197.578125 C 197.753906 193.359375 205.515625 189.140625 213.28125 184.925781 C 221.140625 188.925781 229.003906 192.925781 236.867188 196.925781 C 237.929688 197.464844 238.992188 196.589844 238.78125 195.453125 C 237.175781 186.789062 235.566406 178.125 233.960938 169.460938 C 240.210938 163.199219 246.464844 156.933594 252.71875 150.671875 C 253.601562 149.785156 252.859375 148.585938 251.796875 148.445312 " fill-opacity="1" fill-rule="nonzero"/><path fill="#2a2928" d="M 253.589844 122.507812 C 254.183594 120.003906 254.78125 117.503906 255.375 115.003906 C 255.96875 117.503906 256.566406 120.003906 257.160156 122.507812 C 257.261719 122.933594 257.644531 123.316406 258.070312 123.417969 C 260.570312 124.011719 263.070312 124.605469 265.570312 125.203125 C 263.070312 125.796875 260.570312 126.390625 258.070312 126.988281 C 258.0625 126.988281 258.058594 126.992188 258.050781 126.992188 C 257.835938 127.035156 257.632812 127.136719 257.472656 127.300781 C 257.308594 127.460938 257.207031 127.664062 257.164062 127.878906 C 257.164062 127.882812 257.160156 127.890625 257.160156 127.898438 C 256.566406 130.398438 255.96875 132.898438 255.375 135.398438 C 254.78125 132.898438 254.183594 130.398438 253.589844 127.898438 C 253.488281 127.472656 253.105469 127.085938 252.679688 126.988281 C 250.179688 126.390625 247.679688 125.796875 245.179688 125.203125 C 247.679688 124.605469 250.179688 124.011719 252.679688 123.417969 C 253.105469 123.316406 253.488281 122.933594 253.589844 122.507812 Z M 239.207031 123.945312 C 237.960938 124.242188 237.960938 126.160156 239.207031 126.457031 C 243.222656 127.414062 247.238281 128.371094 251.253906 129.324219 C 252.210938 133.339844 253.164062 137.359375 254.121094 141.375 C 254.414062 142.621094 256.335938 142.621094 256.628906 141.375 C 257.585938 137.359375 258.542969 133.339844 259.496094 129.324219 C 263.511719 128.371094 267.527344 127.414062 271.542969 126.457031 C 272.789062 126.160156 272.789062 124.242188 271.542969 123.945312 C 267.527344 122.988281 263.511719 122.035156 259.496094 121.078125 C 258.542969 117.0625 257.585938 113.046875 256.628906 109.03125 C 256.335938 107.78125 254.414062 107.78125 254.121094 109.03125 C 253.164062 113.046875 252.210938 117.0625 251.253906 121.078125 C 247.238281 122.035156 243.222656 122.988281 239.207031 123.945312 " fill-opacity="1" fill-rule="nonzero"/><path fill="#2a2928" d="M 160.359375 202.601562 C 159.8125 202.46875 159.261719 202.339844 158.714844 202.207031 C 159.261719 202.078125 159.8125 201.949219 160.359375 201.816406 C 160.785156 201.714844 161.167969 201.332031 161.269531 200.90625 C 161.398438 200.359375 161.53125 199.808594 161.660156 199.261719 C 161.789062 199.808594 161.921875 200.359375 162.050781 200.90625 C 162.152344 201.332031 162.535156 201.714844 162.960938 201.816406 C 163.507812 201.949219 164.058594 202.078125 164.605469 202.207031 C 164.058594 202.339844 163.507812 202.46875 162.960938 202.601562 C 162.953125 202.601562 162.949219 202.601562 162.945312 202.605469 C 162.726562 202.648438 162.527344 202.75 162.367188 202.914062 C 162.199219 203.074219 162.101562 203.277344 162.058594 203.492188 C 162.054688 203.5 162.054688 203.503906 162.050781 203.511719 C 161.921875 204.058594 161.789062 204.605469 161.660156 205.15625 C 161.53125 204.605469 161.398438 204.058594 161.269531 203.511719 C 161.167969 203.085938 160.785156 202.699219 160.359375 202.601562 Z M 170.578125 203.464844 C 171.824219 203.167969 171.824219 201.25 170.578125 200.953125 C 168.515625 200.460938 166.453125 199.96875 164.390625 199.480469 C 163.898438 197.414062 163.40625 195.351562 162.917969 193.285156 C 162.621094 192.042969 160.703125 192.042969 160.40625 193.285156 C 159.914062 195.351562 159.421875 197.414062 158.933594 199.480469 C 156.871094 199.96875 154.804688 200.460938 152.742188 200.953125 C 151.496094 201.25 151.496094 203.167969 152.742188 203.464844 C 154.804688 203.957031 156.871094 204.445312 158.933594 204.9375 C 159.421875 207 159.914062 209.066406 160.40625 211.128906 C 160.703125 212.375 162.621094 212.375 162.917969 211.128906 C 163.40625 209.066406 163.898438 207 164.390625 204.9375 C 166.453125 204.445312 168.515625 203.957031 170.578125 203.464844 " fill-opacity="1" fill-rule="nonzero"/><g fill="#c01e3a" fill-opacity="1"><g transform="translate(120.166964, 319.940147)"><g><path d="M 6.882812 -9.550781 L 6.882812 -10.621094 L 1.070312 -10.621094 L 1.070312 -9.550781 L 3.320312 -9.550781 L 3.320312 -1.070312 L 1.070312 -1.070312 L 1.070312 0 L 6.882812 0 L 6.882812 -1.070312 L 4.632812 -1.070312 L 4.632812 -9.550781 Z M 6.882812 -9.550781 "/></g></g></g><g fill="#c01e3a" fill-opacity="1"><g transform="translate(127.799588, 319.940147)"><g><path d="M 5.507812 -8.238281 C 3.929688 -8.238281 2.9375 -7.347656 2.441406 -5.894531 L 2.441406 -7.984375 L 1.164062 -7.984375 L 1.164062 0 L 2.441406 0 L 2.441406 -3.050781 C 2.441406 -5.796875 3.386719 -7.171875 5.15625 -7.171875 C 6.324219 -7.171875 7.074219 -6.660156 7.074219 -4.949219 L 7.074219 0 L 8.351562 0 L 8.351562 -5.09375 C 8.351562 -7.152344 7.503906 -8.238281 5.507812 -8.238281 Z M 5.507812 -8.238281 "/></g></g></g><g fill="#c01e3a" fill-opacity="1"><g transform="translate(136.837402, 319.940147)"><g><path d="M 0.765625 -3.992188 C 0.765625 -1.550781 2.140625 0.253906 4.757812 0.253906 C 7.1875 0.253906 8.480469 -1.214844 8.574219 -3.050781 L 7.363281 -3.050781 C 7.203125 -1.691406 6.371094 -0.78125 4.757812 -0.78125 C 3.082031 -0.78125 2.058594 -1.675781 2.058594 -3.992188 C 2.058594 -6.292969 3.113281 -7.203125 4.808594 -7.203125 C 6.292969 -7.203125 7.089844 -6.371094 7.28125 -5.0625 L 8.480469 -5.0625 C 8.351562 -6.914062 7.152344 -8.238281 4.757812 -8.238281 C 2.171875 -8.238281 0.765625 -6.4375 0.765625 -3.992188 Z M 0.765625 -3.992188 "/></g></g></g><g fill="#c01e3a" fill-opacity="1"><g transform="translate(145.763434, 319.940147)"><g><path d="M 5.367188 -8.097656 C 3.847656 -8.097656 2.921875 -7.203125 2.441406 -5.875 L 2.441406 -7.984375 L 1.164062 -7.984375 L 1.164062 0 L 2.441406 0 L 2.441406 -2.9375 C 2.441406 -5.191406 2.953125 -6.914062 5.316406 -6.835938 L 5.652344 -6.835938 L 5.652344 -8.097656 Z M 5.367188 -8.097656 "/></g></g></g><g fill="#c01e3a" fill-opacity="1"><g transform="translate(151.591682, 319.940147)"><g><path d="M 4.773438 -0.71875 C 3.179688 -0.71875 2.125 -1.515625 2.027344 -3.703125 L 8.449219 -3.703125 C 8.480469 -3.898438 8.480469 -4.054688 8.480469 -4.265625 C 8.480469 -6.59375 7.121094 -8.238281 4.726562 -8.238281 C 2.074219 -8.238281 0.765625 -6.386719 0.765625 -4.007812 C 0.765625 -1.597656 1.980469 0.253906 4.726562 0.253906 C 7.378906 0.253906 8.304688 -1.246094 8.464844 -2.460938 L 7.296875 -2.460938 C 7.058594 -1.453125 6.339844 -0.71875 4.773438 -0.71875 Z M 4.742188 -7.265625 C 6.226562 -7.265625 7.171875 -6.5 7.234375 -4.664062 L 2.058594 -4.664062 C 2.234375 -6.546875 3.226562 -7.265625 4.742188 -7.265625 Z M 4.742188 -7.265625 "/></g></g></g><g fill="#c01e3a" fill-opacity="1"><g transform="translate(160.469813, 319.940147)"><g><path d="M 3.5625 0.207031 C 5.414062 0.207031 6.261719 -0.910156 6.5625 -1.867188 C 6.5625 -1.277344 6.609375 -0.6875 6.675781 0 L 7.839844 0 C 7.761719 -0.78125 7.746094 -1.40625 7.746094 -1.980469 L 7.746094 -5.8125 C 7.746094 -7.25 6.753906 -8.257812 4.566406 -8.257812 C 2.363281 -8.257812 1.164062 -7.171875 1.117188 -5.476562 L 2.378906 -5.476562 C 2.460938 -6.515625 3.050781 -7.25 4.613281 -7.25 C 6.164062 -7.25 6.578125 -6.628906 6.578125 -5.8125 C 6.578125 -5.207031 6.226562 -4.984375 5.382812 -4.839844 L 3.355469 -4.503906 C 1.628906 -4.214844 0.925781 -3.402344 0.925781 -2.109375 C 0.925781 -0.589844 2.027344 0.207031 3.5625 0.207031 Z M 3.816406 -0.796875 C 2.875 -0.796875 2.21875 -1.246094 2.21875 -2.15625 C 2.21875 -3.019531 2.730469 -3.433594 3.816406 -3.65625 L 5.140625 -3.929688 C 5.75 -4.054688 6.179688 -4.183594 6.578125 -4.472656 L 6.578125 -3.785156 C 6.578125 -2.269531 5.699219 -0.796875 3.816406 -0.796875 Z M 3.816406 -0.796875 "/></g></g></g><g fill="#c01e3a" fill-opacity="1"><g transform="translate(168.900843, 319.940147)"><g><path d="M 0.605469 -2.667969 C 0.640625 -0.988281 1.691406 0.253906 4.296875 0.253906 C 6.417969 0.253906 7.554688 -0.542969 7.554688 -2.171875 C 7.554688 -3.480469 6.882812 -4.265625 5.046875 -4.535156 L 3.355469 -4.773438 C 2.347656 -4.917969 2.058594 -5.398438 2.058594 -5.957031 C 2.058594 -6.738281 2.617188 -7.28125 3.976562 -7.28125 C 5.445312 -7.28125 6.050781 -6.53125 6.132812 -5.699219 L 7.394531 -5.699219 C 7.296875 -7.203125 6.101562 -8.257812 4.007812 -8.257812 C 1.996094 -8.257812 0.8125 -7.347656 0.8125 -5.859375 C 0.8125 -4.632812 1.597656 -3.898438 2.984375 -3.703125 L 4.839844 -3.433594 C 5.84375 -3.289062 6.292969 -2.875 6.292969 -2.109375 C 6.292969 -1.214844 5.734375 -0.71875 4.328125 -0.71875 C 2.492188 -0.71875 1.882812 -1.582031 1.789062 -2.667969 Z M 0.605469 -2.667969 "/></g></g></g><g fill="#c01e3a" fill-opacity="1"><g transform="translate(176.820892, 319.940147)"><g><path d="M 4.773438 -0.71875 C 3.179688 -0.71875 2.125 -1.515625 2.027344 -3.703125 L 8.449219 -3.703125 C 8.480469 -3.898438 8.480469 -4.054688 8.480469 -4.265625 C 8.480469 -6.59375 7.121094 -8.238281 4.726562 -8.238281 C 2.074219 -8.238281 0.765625 -6.386719 0.765625 -4.007812 C 0.765625 -1.597656 1.980469 0.253906 4.726562 0.253906 C 7.378906 0.253906 8.304688 -1.246094 8.464844 -2.460938 L 7.296875 -2.460938 C 7.058594 -1.453125 6.339844 -0.71875 4.773438 -0.71875 Z M 4.742188 -7.265625 C 6.226562 -7.265625 7.171875 -6.5 7.234375 -4.664062 L 2.058594 -4.664062 C 2.234375 -6.546875 3.226562 -7.265625 4.742188 -7.265625 Z M 4.742188 -7.265625 "/></g></g></g><g fill="#c01e3a" fill-opacity="1"><g transform="translate(185.699021, 319.940147)"><g><path d="M 7.457031 -11.179688 L 7.457031 -6.46875 C 6.914062 -7.601562 5.910156 -8.238281 4.441406 -8.238281 C 1.933594 -8.238281 0.78125 -6.453125 0.78125 -3.992188 C 0.78125 -1.550781 1.933594 0.253906 4.441406 0.253906 C 5.910156 0.253906 6.914062 -0.398438 7.457031 -1.53125 L 7.457031 0 L 8.734375 0 L 8.734375 -11.179688 Z M 4.695312 -0.78125 C 2.875 -0.78125 2.074219 -1.851562 2.074219 -3.992188 C 2.074219 -6.148438 2.875 -7.203125 4.695312 -7.203125 C 6.386719 -7.203125 7.457031 -6.242188 7.457031 -3.992188 C 7.457031 -1.742188 6.386719 -0.78125 4.695312 -0.78125 Z M 4.695312 -0.78125 "/></g></g></g><g fill="#c01e3a" fill-opacity="1"><g transform="translate(195.247804, 319.940147)"><g/></g></g><g fill="#c01e3a" fill-opacity="1"><g transform="translate(198.521163, 319.940147)"><g><path d="M 7.121094 -7.984375 L 4.421875 -1.117188 L 1.742188 -7.984375 L 0.398438 -7.984375 L 3.546875 0 L 5.238281 0 L 8.382812 -7.984375 Z M 7.121094 -7.984375 "/></g></g></g><g fill="#c01e3a" fill-opacity="1"><g transform="translate(206.968153, 319.940147)"><g><path d="M 0.988281 -9.292969 L 2.636719 -9.292969 L 2.636719 -10.621094 L 0.988281 -10.621094 Z M 1.164062 0 L 2.441406 0 L 2.441406 -7.984375 L 1.164062 -7.984375 Z M 1.164062 0 "/></g></g></g><g fill="#c01e3a" fill-opacity="1"><g transform="translate(210.273454, 319.940147)"><g><path d="M 0.605469 -2.667969 C 0.640625 -0.988281 1.691406 0.253906 4.296875 0.253906 C 6.417969 0.253906 7.554688 -0.542969 7.554688 -2.171875 C 7.554688 -3.480469 6.882812 -4.265625 5.046875 -4.535156 L 3.355469 -4.773438 C 2.347656 -4.917969 2.058594 -5.398438 2.058594 -5.957031 C 2.058594 -6.738281 2.617188 -7.28125 3.976562 -7.28125 C 5.445312 -7.28125 6.050781 -6.53125 6.132812 -5.699219 L 7.394531 -5.699219 C 7.296875 -7.203125 6.101562 -8.257812 4.007812 -8.257812 C 1.996094 -8.257812 0.8125 -7.347656 0.8125 -5.859375 C 0.8125 -4.632812 1.597656 -3.898438 2.984375 -3.703125 L 4.839844 -3.433594 C 5.84375 -3.289062 6.292969 -2.875 6.292969 -2.109375 C 6.292969 -1.214844 5.734375 -0.71875 4.328125 -0.71875 C 2.492188 -0.71875 1.882812 -1.582031 1.789062 -2.667969 Z M 0.605469 -2.667969 "/></g></g></g><g fill="#c01e3a" fill-opacity="1"><g transform="translate(218.193502, 319.940147)"><g><path d="M 0.988281 -9.292969 L 2.636719 -9.292969 L 2.636719 -10.621094 L 0.988281 -10.621094 Z M 1.164062 0 L 2.441406 0 L 2.441406 -7.984375 L 1.164062 -7.984375 Z M 1.164062 0 "/></g></g></g><g fill="#c01e3a" fill-opacity="1"><g transform="translate(221.498803, 319.940147)"><g><path d="M 5.429688 -8.238281 C 3.960938 -8.238281 2.953125 -7.601562 2.410156 -6.46875 L 2.410156 -11.179688 L 1.132812 -11.179688 L 1.132812 0 L 2.410156 0 L 2.410156 -1.53125 C 2.953125 -0.398438 3.960938 0.253906 5.429688 0.253906 C 7.9375 0.253906 9.085938 -1.550781 9.085938 -3.992188 C 9.085938 -6.453125 7.9375 -8.238281 5.429688 -8.238281 Z M 5.175781 -0.78125 C 3.480469 -0.78125 2.410156 -1.742188 2.410156 -3.992188 C 2.410156 -6.242188 3.480469 -7.203125 5.175781 -7.203125 C 6.996094 -7.203125 7.792969 -6.148438 7.792969 -3.992188 C 7.792969 -1.851562 6.996094 -0.78125 5.175781 -0.78125 Z M 5.175781 -0.78125 "/></g></g></g><g fill="#c01e3a" fill-opacity="1"><g transform="translate(231.047586, 319.940147)"><g><path d="M 0.988281 -9.292969 L 2.636719 -9.292969 L 2.636719 -10.621094 L 0.988281 -10.621094 Z M 1.164062 0 L 2.441406 0 L 2.441406 -7.984375 L 1.164062 -7.984375 Z M 1.164062 0 "/></g></g></g><g fill="#c01e3a" fill-opacity="1"><g transform="translate(234.352887, 319.940147)"><g><path d="M 1.148438 0 L 2.425781 0 L 2.425781 -11.179688 L 1.148438 -11.179688 Z M 1.148438 0 "/></g></g></g><g fill="#c01e3a" fill-opacity="1"><g transform="translate(237.610287, 319.940147)"><g><path d="M 0.988281 -9.292969 L 2.636719 -9.292969 L 2.636719 -10.621094 L 0.988281 -10.621094 Z M 1.164062 0 L 2.441406 0 L 2.441406 -7.984375 L 1.164062 -7.984375 Z M 1.164062 0 "/></g></g></g><g fill="#c01e3a" fill-opacity="1"><g transform="translate(240.915588, 319.940147)"><g><path d="M 3.769531 0 L 5.652344 0 L 5.652344 -1.039062 L 3.113281 -1.039062 L 3.113281 -6.980469 L 5.75 -6.980469 L 5.75 -7.984375 L 3.113281 -7.984375 L 3.113281 -9.757812 L 2.425781 -9.757812 L 1.949219 -8.097656 L 0.320312 -7.695312 L 0.320312 -6.980469 L 1.835938 -6.980469 L 1.835938 -1.867188 C 1.835938 -0.589844 2.234375 0 3.769531 0 Z M 3.769531 0 "/></g></g></g><g fill="#c01e3a" fill-opacity="1"><g transform="translate(246.839634, 319.940147)"><g><path d="M 7.21875 -7.984375 L 4.742188 -1.835938 L 4.503906 -1.070312 L 4.230469 -1.835938 L 1.789062 -7.984375 L 0.445312 -7.984375 L 3.609375 0 L 4.054688 0 L 3.179688 2.15625 L 0.957031 2.15625 L 0.957031 3.195312 L 2.476562 3.195312 C 3.914062 3.195312 4.230469 2.601562 4.726562 1.324219 L 8.480469 -7.984375 Z M 7.21875 -7.984375 "/></g></g></g><g fill="#c01e3a" fill-opacity="1"><g transform="translate(255.398407, 319.940147)"><g/></g></g><g fill="#c01e3a" fill-opacity="1"><g transform="translate(258.671766, 319.940147)"><g><path d="M 4.789062 0.253906 C 7.472656 0.253906 8.800781 -1.613281 8.800781 -4.007812 C 8.800781 -6.371094 7.472656 -8.238281 4.789062 -8.238281 C 2.09375 -8.238281 0.765625 -6.386719 0.765625 -4.007812 C 0.765625 -1.597656 2.09375 0.253906 4.789062 0.253906 Z M 2.058594 -3.992188 C 2.058594 -6.242188 2.984375 -7.203125 4.789062 -7.203125 C 6.59375 -7.203125 7.503906 -6.242188 7.503906 -3.992188 C 7.503906 -1.757812 6.59375 -0.78125 4.789062 -0.78125 C 2.984375 -0.78125 2.058594 -1.757812 2.058594 -3.992188 Z M 2.058594 -3.992188 "/></g></g></g><g fill="#c01e3a" fill-opacity="1"><g transform="translate(267.917163, 319.940147)"><g><path d="M 5.507812 -8.238281 C 3.929688 -8.238281 2.9375 -7.347656 2.441406 -5.894531 L 2.441406 -7.984375 L 1.164062 -7.984375 L 1.164062 0 L 2.441406 0 L 2.441406 -3.050781 C 2.441406 -5.796875 3.386719 -7.171875 5.15625 -7.171875 C 6.324219 -7.171875 7.074219 -6.660156 7.074219 -4.949219 L 7.074219 0 L 8.351562 0 L 8.351562 -5.09375 C 8.351562 -7.152344 7.503906 -8.238281 5.507812 -8.238281 Z M 5.507812 -8.238281 "/></g></g></g><g fill="#c01e3a" fill-opacity="1"><g transform="translate(276.954976, 319.940147)"><g/></g></g><g fill="#c01e3a" fill-opacity="1"><g transform="translate(280.228336, 319.940147)"><g><path d="M 4.789062 0.253906 C 7.472656 0.253906 8.800781 -1.613281 8.800781 -4.007812 C 8.800781 -6.371094 7.472656 -8.238281 4.789062 -8.238281 C 2.09375 -8.238281 0.765625 -6.386719 0.765625 -4.007812 C 0.765625 -1.597656 2.09375 0.253906 4.789062 0.253906 Z M 2.058594 -3.992188 C 2.058594 -6.242188 2.984375 -7.203125 4.789062 -7.203125 C 6.59375 -7.203125 7.503906 -6.242188 7.503906 -3.992188 C 7.503906 -1.757812 6.59375 -0.78125 4.789062 -0.78125 C 2.984375 -0.78125 2.058594 -1.757812 2.058594 -3.992188 Z M 2.058594 -3.992188 "/></g></g></g><g fill="#c01e3a" fill-opacity="1"><g transform="translate(289.473733, 319.940147)"><g><path d="M 6.898438 -7.984375 L 6.898438 -4.933594 C 6.898438 -2.285156 5.957031 -0.796875 4.296875 -0.796875 C 3.066406 -0.796875 2.285156 -1.261719 2.285156 -3.035156 L 2.285156 -7.984375 L 1.007812 -7.984375 L 1.007812 -2.890625 C 1.007812 -0.796875 1.917969 0.253906 3.929688 0.253906 C 5.476562 0.253906 6.417969 -0.605469 6.898438 -2.027344 L 6.898438 0 L 8.175781 0 L 8.175781 -7.984375 Z M 6.898438 -7.984375 "/></g></g></g><g fill="#c01e3a" fill-opacity="1"><g transform="translate(298.495575, 319.940147)"><g><path d="M 5.367188 -8.097656 C 3.847656 -8.097656 2.921875 -7.203125 2.441406 -5.875 L 2.441406 -7.984375 L 1.164062 -7.984375 L 1.164062 0 L 2.441406 0 L 2.441406 -2.9375 C 2.441406 -5.191406 2.953125 -6.914062 5.316406 -6.835938 L 5.652344 -6.835938 L 5.652344 -8.097656 Z M 5.367188 -8.097656 "/></g></g></g><g fill="#c01e3a" fill-opacity="1"><g transform="translate(121.968474, 340.154495)"><g><path d="M 12.296875 -7.984375 L 10.21875 -0.957031 L 7.695312 -7.984375 L 6.371094 -7.984375 L 3.847656 -0.957031 L 1.789062 -7.984375 L 0.445312 -7.984375 L 2.890625 0 L 4.710938 0 L 6.996094 -6.46875 L 9.292969 0 L 11.113281 0 L 13.542969 -7.984375 Z M 12.296875 -7.984375 "/></g></g></g><g fill="#c01e3a" fill-opacity="1"><g transform="translate(135.652966, 340.154495)"><g><path d="M 4.773438 -0.71875 C 3.179688 -0.71875 2.125 -1.515625 2.027344 -3.703125 L 8.449219 -3.703125 C 8.480469 -3.898438 8.480469 -4.054688 8.480469 -4.265625 C 8.480469 -6.59375 7.121094 -8.238281 4.726562 -8.238281 C 2.074219 -8.238281 0.765625 -6.386719 0.765625 -4.007812 C 0.765625 -1.597656 1.980469 0.253906 4.726562 0.253906 C 7.378906 0.253906 8.304688 -1.246094 8.464844 -2.460938 L 7.296875 -2.460938 C 7.058594 -1.453125 6.339844 -0.71875 4.773438 -0.71875 Z M 4.742188 -7.265625 C 6.226562 -7.265625 7.171875 -6.5 7.234375 -4.664062 L 2.058594 -4.664062 C 2.234375 -6.546875 3.226562 -7.265625 4.742188 -7.265625 Z M 4.742188 -7.265625 "/></g></g></g><g fill="#c01e3a" fill-opacity="1"><g transform="translate(144.531097, 340.154495)"><g><path d="M 5.429688 -8.238281 C 3.960938 -8.238281 2.953125 -7.601562 2.410156 -6.46875 L 2.410156 -11.179688 L 1.132812 -11.179688 L 1.132812 0 L 2.410156 0 L 2.410156 -1.53125 C 2.953125 -0.398438 3.960938 0.253906 5.429688 0.253906 C 7.9375 0.253906 9.085938 -1.550781 9.085938 -3.992188 C 9.085938 -6.453125 7.9375 -8.238281 5.429688 -8.238281 Z M 5.175781 -0.78125 C 3.480469 -0.78125 2.410156 -1.742188 2.410156 -3.992188 C 2.410156 -6.242188 3.480469 -7.203125 5.175781 -7.203125 C 6.996094 -7.203125 7.792969 -6.148438 7.792969 -3.992188 C 7.792969 -1.851562 6.996094 -0.78125 5.175781 -0.78125 Z M 5.175781 -0.78125 "/></g></g></g><g fill="#c01e3a" fill-opacity="1"><g transform="translate(154.079882, 340.154495)"><g><path d="M 0.605469 -2.667969 C 0.640625 -0.988281 1.691406 0.253906 4.296875 0.253906 C 6.417969 0.253906 7.554688 -0.542969 7.554688 -2.171875 C 7.554688 -3.480469 6.882812 -4.265625 5.046875 -4.535156 L 3.355469 -4.773438 C 2.347656 -4.917969 2.058594 -5.398438 2.058594 -5.957031 C 2.058594 -6.738281 2.617188 -7.28125 3.976562 -7.28125 C 5.445312 -7.28125 6.050781 -6.53125 6.132812 -5.699219 L 7.394531 -5.699219 C 7.296875 -7.203125 6.101562 -8.257812 4.007812 -8.257812 C 1.996094 -8.257812 0.8125 -7.347656 0.8125 -5.859375 C 0.8125 -4.632812 1.597656 -3.898438 2.984375 -3.703125 L 4.839844 -3.433594 C 5.84375 -3.289062 6.292969 -2.875 6.292969 -2.109375 C 6.292969 -1.214844 5.734375 -0.71875 4.328125 -0.71875 C 2.492188 -0.71875 1.882812 -1.582031 1.789062 -2.667969 Z M 0.605469 -2.667969 "/></g></g></g><g fill="#c01e3a" fill-opacity="1"><g transform="translate(161.999931, 340.154495)"><g><path d="M 0.988281 -9.292969 L 2.636719 -9.292969 L 2.636719 -10.621094 L 0.988281 -10.621094 Z M 1.164062 0 L 2.441406 0 L 2.441406 -7.984375 L 1.164062 -7.984375 Z M 1.164062 0 "/></g></g></g><g fill="#c01e3a" fill-opacity="1"><g transform="translate(165.305235, 340.154495)"><g><path d="M 3.769531 0 L 5.652344 0 L 5.652344 -1.039062 L 3.113281 -1.039062 L 3.113281 -6.980469 L 5.75 -6.980469 L 5.75 -7.984375 L 3.113281 -7.984375 L 3.113281 -9.757812 L 2.425781 -9.757812 L 1.949219 -8.097656 L 0.320312 -7.695312 L 0.320312 -6.980469 L 1.835938 -6.980469 L 1.835938 -1.867188 C 1.835938 -0.589844 2.234375 0 3.769531 0 Z M 3.769531 0 "/></g></g></g><g fill="#c01e3a" fill-opacity="1"><g transform="translate(171.229283, 340.154495)"><g><path d="M 4.773438 -0.71875 C 3.179688 -0.71875 2.125 -1.515625 2.027344 -3.703125 L 8.449219 -3.703125 C 8.480469 -3.898438 8.480469 -4.054688 8.480469 -4.265625 C 8.480469 -6.59375 7.121094 -8.238281 4.726562 -8.238281 C 2.074219 -8.238281 0.765625 -6.386719 0.765625 -4.007812 C 0.765625 -1.597656 1.980469 0.253906 4.726562 0.253906 C 7.378906 0.253906 8.304688 -1.246094 8.464844 -2.460938 L 7.296875 -2.460938 C 7.058594 -1.453125 6.339844 -0.71875 4.773438 -0.71875 Z M 4.742188 -7.265625 C 6.226562 -7.265625 7.171875 -6.5 7.234375 -4.664062 L 2.058594 -4.664062 C 2.234375 -6.546875 3.226562 -7.265625 4.742188 -7.265625 Z M 4.742188 -7.265625 "/></g></g></g><g fill="#c01e3a" fill-opacity="1"><g transform="translate(180.107412, 340.154495)"><g/></g></g><g fill="#c01e3a" fill-opacity="1"><g transform="translate(183.380772, 340.154495)"><g><path d="M 3.5625 0.207031 C 5.414062 0.207031 6.261719 -0.910156 6.5625 -1.867188 C 6.5625 -1.277344 6.609375 -0.6875 6.675781 0 L 7.839844 0 C 7.761719 -0.78125 7.746094 -1.40625 7.746094 -1.980469 L 7.746094 -5.8125 C 7.746094 -7.25 6.753906 -8.257812 4.566406 -8.257812 C 2.363281 -8.257812 1.164062 -7.171875 1.117188 -5.476562 L 2.378906 -5.476562 C 2.460938 -6.515625 3.050781 -7.25 4.613281 -7.25 C 6.164062 -7.25 6.578125 -6.628906 6.578125 -5.8125 C 6.578125 -5.207031 6.226562 -4.984375 5.382812 -4.839844 L 3.355469 -4.503906 C 1.628906 -4.214844 0.925781 -3.402344 0.925781 -2.109375 C 0.925781 -0.589844 2.027344 0.207031 3.5625 0.207031 Z M 3.816406 -0.796875 C 2.875 -0.796875 2.21875 -1.246094 2.21875 -2.15625 C 2.21875 -3.019531 2.730469 -3.433594 3.816406 -3.65625 L 5.140625 -3.929688 C 5.75 -4.054688 6.179688 -4.183594 6.578125 -4.472656 L 6.578125 -3.785156 C 6.578125 -2.269531 5.699219 -0.796875 3.816406 -0.796875 Z M 3.816406 -0.796875 "/></g></g></g><g fill="#c01e3a" fill-opacity="1"><g transform="translate(191.811802, 340.154495)"><g><path d="M 5.507812 -8.238281 C 3.929688 -8.238281 2.9375 -7.347656 2.441406 -5.894531 L 2.441406 -7.984375 L 1.164062 -7.984375 L 1.164062 0 L 2.441406 0 L 2.441406 -3.050781 C 2.441406 -5.796875 3.386719 -7.171875 5.15625 -7.171875 C 6.324219 -7.171875 7.074219 -6.660156 7.074219 -4.949219 L 7.074219 0 L 8.351562 0 L 8.351562 -5.09375 C 8.351562 -7.152344 7.503906 -8.238281 5.507812 -8.238281 Z M 5.507812 -8.238281 "/></g></g></g><g fill="#c01e3a" fill-opacity="1"><g transform="translate(200.849615, 340.154495)"><g><path d="M 7.457031 -11.179688 L 7.457031 -6.46875 C 6.914062 -7.601562 5.910156 -8.238281 4.441406 -8.238281 C 1.933594 -8.238281 0.78125 -6.453125 0.78125 -3.992188 C 0.78125 -1.550781 1.933594 0.253906 4.441406 0.253906 C 5.910156 0.253906 6.914062 -0.398438 7.457031 -1.53125 L 7.457031 0 L 8.734375 0 L 8.734375 -11.179688 Z M 4.695312 -0.78125 C 2.875 -0.78125 2.074219 -1.851562 2.074219 -3.992188 C 2.074219 -6.148438 2.875 -7.203125 4.695312 -7.203125 C 6.386719 -7.203125 7.457031 -6.242188 7.457031 -3.992188 C 7.457031 -1.742188 6.386719 -0.78125 4.695312 -0.78125 Z M 4.695312 -0.78125 "/></g></g></g><g fill="#c01e3a" fill-opacity="1"><g transform="translate(210.398398, 340.154495)"><g/></g></g><g fill="#c01e3a" fill-opacity="1"><g transform="translate(213.671757, 340.154495)"><g><path d="M 0.605469 -2.667969 C 0.640625 -0.988281 1.691406 0.253906 4.296875 0.253906 C 6.417969 0.253906 7.554688 -0.542969 7.554688 -2.171875 C 7.554688 -3.480469 6.882812 -4.265625 5.046875 -4.535156 L 3.355469 -4.773438 C 2.347656 -4.917969 2.058594 -5.398438 2.058594 -5.957031 C 2.058594 -6.738281 2.617188 -7.28125 3.976562 -7.28125 C 5.445312 -7.28125 6.050781 -6.53125 6.132812 -5.699219 L 7.394531 -5.699219 C 7.296875 -7.203125 6.101562 -8.257812 4.007812 -8.257812 C 1.996094 -8.257812 0.8125 -7.347656 0.8125 -5.859375 C 0.8125 -4.632812 1.597656 -3.898438 2.984375 -3.703125 L 4.839844 -3.433594 C 5.84375 -3.289062 6.292969 -2.875 6.292969 -2.109375 C 6.292969 -1.214844 5.734375 -0.71875 4.328125 -0.71875 C 2.492188 -0.71875 1.882812 -1.582031 1.789062 -2.667969 Z M 0.605469 -2.667969 "/></g></g></g><g fill="#c01e3a" fill-opacity="1"><g transform="translate(221.591806, 340.154495)"><g><path d="M 4.789062 0.253906 C 7.472656 0.253906 8.800781 -1.613281 8.800781 -4.007812 C 8.800781 -6.371094 7.472656 -8.238281 4.789062 -8.238281 C 2.09375 -8.238281 0.765625 -6.386719 0.765625 -4.007812 C 0.765625 -1.597656 2.09375 0.253906 4.789062 0.253906 Z M 2.058594 -3.992188 C 2.058594 -6.242188 2.984375 -7.203125 4.789062 -7.203125 C 6.59375 -7.203125 7.503906 -6.242188 7.503906 -3.992188 C 7.503906 -1.757812 6.59375 -0.78125 4.789062 -0.78125 C 2.984375 -0.78125 2.058594 -1.757812 2.058594 -3.992188 Z M 2.058594 -3.992188 "/></g></g></g><g fill="#c01e3a" fill-opacity="1"><g transform="translate(230.837203, 340.154495)"><g><path d="M 0.765625 -3.992188 C 0.765625 -1.550781 2.140625 0.253906 4.757812 0.253906 C 7.1875 0.253906 8.480469 -1.214844 8.574219 -3.050781 L 7.363281 -3.050781 C 7.203125 -1.691406 6.371094 -0.78125 4.757812 -0.78125 C 3.082031 -0.78125 2.058594 -1.675781 2.058594 -3.992188 C 2.058594 -6.292969 3.113281 -7.203125 4.808594 -7.203125 C 6.292969 -7.203125 7.089844 -6.371094 7.28125 -5.0625 L 8.480469 -5.0625 C 8.351562 -6.914062 7.152344 -8.238281 4.757812 -8.238281 C 2.171875 -8.238281 0.765625 -6.4375 0.765625 -3.992188 Z M 0.765625 -3.992188 "/></g></g></g><g fill="#c01e3a" fill-opacity="1"><g transform="translate(239.763233, 340.154495)"><g><path d="M 0.988281 -9.292969 L 2.636719 -9.292969 L 2.636719 -10.621094 L 0.988281 -10.621094 Z M 1.164062 0 L 2.441406 0 L 2.441406 -7.984375 L 1.164062 -7.984375 Z M 1.164062 0 "/></g></g></g><g fill="#c01e3a" fill-opacity="1"><g transform="translate(243.068534, 340.154495)"><g><path d="M 3.5625 0.207031 C 5.414062 0.207031 6.261719 -0.910156 6.5625 -1.867188 C 6.5625 -1.277344 6.609375 -0.6875 6.675781 0 L 7.839844 0 C 7.761719 -0.78125 7.746094 -1.40625 7.746094 -1.980469 L 7.746094 -5.8125 C 7.746094 -7.25 6.753906 -8.257812 4.566406 -8.257812 C 2.363281 -8.257812 1.164062 -7.171875 1.117188 -5.476562 L 2.378906 -5.476562 C 2.460938 -6.515625 3.050781 -7.25 4.613281 -7.25 C 6.164062 -7.25 6.578125 -6.628906 6.578125 -5.8125 C 6.578125 -5.207031 6.226562 -4.984375 5.382812 -4.839844 L 3.355469 -4.503906 C 1.628906 -4.214844 0.925781 -3.402344 0.925781 -2.109375 C 0.925781 -0.589844 2.027344 0.207031 3.5625 0.207031 Z M 3.816406 -0.796875 C 2.875 -0.796875 2.21875 -1.246094 2.21875 -2.15625 C 2.21875 -3.019531 2.730469 -3.433594 3.816406 -3.65625 L 5.140625 -3.929688 C 5.75 -4.054688 6.179688 -4.183594 6.578125 -4.472656 L 6.578125 -3.785156 C 6.578125 -2.269531 5.699219 -0.796875 3.816406 -0.796875 Z M 3.816406 -0.796875 "/></g></g></g><g fill="#c01e3a" fill-opacity="1"><g transform="translate(251.499564, 340.154495)"><g><path d="M 1.148438 0 L 2.425781 0 L 2.425781 -11.179688 L 1.148438 -11.179688 Z M 1.148438 0 "/></g></g></g><g fill="#c01e3a" fill-opacity="1"><g transform="translate(254.756964, 340.154495)"><g/></g></g><g fill="#c01e3a" fill-opacity="1"><g transform="translate(258.030324, 340.154495)"><g><path d="M 10.953125 -8.238281 C 9.359375 -8.238281 8.433594 -7.394531 7.96875 -5.988281 C 7.746094 -7.472656 6.898438 -8.238281 5.351562 -8.238281 C 3.816406 -8.238281 2.90625 -7.394531 2.441406 -6.019531 L 2.441406 -7.984375 L 1.164062 -7.984375 L 1.164062 0 L 2.441406 0 L 2.441406 -3.050781 C 2.441406 -5.796875 3.242188 -7.171875 4.949219 -7.171875 C 6.117188 -7.171875 6.785156 -6.609375 6.785156 -5 L 6.785156 0 L 8.03125 0 L 8.03125 -3.050781 C 8.03125 -5.796875 8.816406 -7.171875 10.554688 -7.171875 C 11.722656 -7.171875 12.375 -6.609375 12.375 -5 L 12.375 0 L 13.652344 0 L 13.652344 -5.140625 C 13.652344 -7.1875 12.777344 -8.238281 10.953125 -8.238281 Z M 10.953125 -8.238281 "/></g></g></g><g fill="#c01e3a" fill-opacity="1"><g transform="translate(272.369509, 340.154495)"><g><path d="M 4.773438 -0.71875 C 3.179688 -0.71875 2.125 -1.515625 2.027344 -3.703125 L 8.449219 -3.703125 C 8.480469 -3.898438 8.480469 -4.054688 8.480469 -4.265625 C 8.480469 -6.59375 7.121094 -8.238281 4.726562 -8.238281 C 2.074219 -8.238281 0.765625 -6.386719 0.765625 -4.007812 C 0.765625 -1.597656 1.980469 0.253906 4.726562 0.253906 C 7.378906 0.253906 8.304688 -1.246094 8.464844 -2.460938 L 7.296875 -2.460938 C 7.058594 -1.453125 6.339844 -0.71875 4.773438 -0.71875 Z M 4.742188 -7.265625 C 6.226562 -7.265625 7.171875 -6.5 7.234375 -4.664062 L 2.058594 -4.664062 C 2.234375 -6.546875 3.226562 -7.265625 4.742188 -7.265625 Z M 4.742188 -7.265625 "/></g></g></g><g fill="#c01e3a" fill-opacity="1"><g transform="translate(281.247638, 340.154495)"><g><path d="M 7.457031 -11.179688 L 7.457031 -6.46875 C 6.914062 -7.601562 5.910156 -8.238281 4.441406 -8.238281 C 1.933594 -8.238281 0.78125 -6.453125 0.78125 -3.992188 C 0.78125 -1.550781 1.933594 0.253906 4.441406 0.253906 C 5.910156 0.253906 6.914062 -0.398438 7.457031 -1.53125 L 7.457031 0 L 8.734375 0 L 8.734375 -11.179688 Z M 4.695312 -0.78125 C 2.875 -0.78125 2.074219 -1.851562 2.074219 -3.992188 C 2.074219 -6.148438 2.875 -7.203125 4.695312 -7.203125 C 6.386719 -7.203125 7.457031 -6.242188 7.457031 -3.992188 C 7.457031 -1.742188 6.386719 -0.78125 4.695312 -0.78125 Z M 4.695312 -0.78125 "/></g></g></g><g fill="#c01e3a" fill-opacity="1"><g transform="translate(290.796421, 340.154495)"><g><path d="M 0.988281 -9.292969 L 2.636719 -9.292969 L 2.636719 -10.621094 L 0.988281 -10.621094 Z M 1.164062 0 L 2.441406 0 L 2.441406 -7.984375 L 1.164062 -7.984375 Z M 1.164062 0 "/></g></g></g><g fill="#c01e3a" fill-opacity="1"><g transform="translate(294.101722, 340.154495)"><g><path d="M 3.5625 0.207031 C 5.414062 0.207031 6.261719 -0.910156 6.5625 -1.867188 C 6.5625 -1.277344 6.609375 -0.6875 6.675781 0 L 7.839844 0 C 7.761719 -0.78125 7.746094 -1.40625 7.746094 -1.980469 L 7.746094 -5.8125 C 7.746094 -7.25 6.753906 -8.257812 4.566406 -8.257812 C 2.363281 -8.257812 1.164062 -7.171875 1.117188 -5.476562 L 2.378906 -5.476562 C 2.460938 -6.515625 3.050781 -7.25 4.613281 -7.25 C 6.164062 -7.25 6.578125 -6.628906 6.578125 -5.8125 C 6.578125 -5.207031 6.226562 -4.984375 5.382812 -4.839844 L 3.355469 -4.503906 C 1.628906 -4.214844 0.925781 -3.402344 0.925781 -2.109375 C 0.925781 -0.589844 2.027344 0.207031 3.5625 0.207031 Z M 3.816406 -0.796875 C 2.875 -0.796875 2.21875 -1.246094 2.21875 -2.15625 C 2.21875 -3.019531 2.730469 -3.433594 3.816406 -3.65625 L 5.140625 -3.929688 C 5.75 -4.054688 6.179688 -4.183594 6.578125 -4.472656 L 6.578125 -3.785156 C 6.578125 -2.269531 5.699219 -0.796875 3.816406 -0.796875 Z M 3.816406 -0.796875 "/></g></g></g><g fill="#c01e3a" fill-opacity="1"><g transform="translate(117.488095, 360.368842)"><g><path d="M 0.765625 -3.992188 C 0.765625 -1.550781 2.140625 0.253906 4.757812 0.253906 C 7.1875 0.253906 8.480469 -1.214844 8.574219 -3.050781 L 7.363281 -3.050781 C 7.203125 -1.691406 6.371094 -0.78125 4.757812 -0.78125 C 3.082031 -0.78125 2.058594 -1.675781 2.058594 -3.992188 C 2.058594 -6.292969 3.113281 -7.203125 4.808594 -7.203125 C 6.292969 -7.203125 7.089844 -6.371094 7.28125 -5.0625 L 8.480469 -5.0625 C 8.351562 -6.914062 7.152344 -8.238281 4.757812 -8.238281 C 2.171875 -8.238281 0.765625 -6.4375 0.765625 -3.992188 Z M 0.765625 -3.992188 "/></g></g></g><g fill="#c01e3a" fill-opacity="1"><g transform="translate(126.414126, 360.368842)"><g><path d="M 5.507812 -8.238281 C 3.929688 -8.238281 2.9375 -7.347656 2.441406 -5.894531 L 2.441406 -11.179688 L 1.164062 -11.179688 L 1.164062 0 L 2.441406 0 L 2.441406 -3.050781 C 2.441406 -5.796875 3.386719 -7.171875 5.15625 -7.171875 C 6.324219 -7.171875 7.074219 -6.660156 7.074219 -4.949219 L 7.074219 0 L 8.351562 0 L 8.351562 -5.09375 C 8.351562 -7.152344 7.503906 -8.238281 5.507812 -8.238281 Z M 5.507812 -8.238281 "/></g></g></g><g fill="#c01e3a" fill-opacity="1"><g transform="translate(135.45194, 360.368842)"><g><path d="M 3.5625 0.207031 C 5.414062 0.207031 6.261719 -0.910156 6.5625 -1.867188 C 6.5625 -1.277344 6.609375 -0.6875 6.675781 0 L 7.839844 0 C 7.761719 -0.78125 7.746094 -1.40625 7.746094 -1.980469 L 7.746094 -5.8125 C 7.746094 -7.25 6.753906 -8.257812 4.566406 -8.257812 C 2.363281 -8.257812 1.164062 -7.171875 1.117188 -5.476562 L 2.378906 -5.476562 C 2.460938 -6.515625 3.050781 -7.25 4.613281 -7.25 C 6.164062 -7.25 6.578125 -6.628906 6.578125 -5.8125 C 6.578125 -5.207031 6.226562 -4.984375 5.382812 -4.839844 L 3.355469 -4.503906 C 1.628906 -4.214844 0.925781 -3.402344 0.925781 -2.109375 C 0.925781 -0.589844 2.027344 0.207031 3.5625 0.207031 Z M 3.816406 -0.796875 C 2.875 -0.796875 2.21875 -1.246094 2.21875 -2.15625 C 2.21875 -3.019531 2.730469 -3.433594 3.816406 -3.65625 L 5.140625 -3.929688 C 5.75 -4.054688 6.179688 -4.183594 6.578125 -4.472656 L 6.578125 -3.785156 C 6.578125 -2.269531 5.699219 -0.796875 3.816406 -0.796875 Z M 3.816406 -0.796875 "/></g></g></g><g fill="#c01e3a" fill-opacity="1"><g transform="translate(143.882973, 360.368842)"><g><path d="M 5.507812 -8.238281 C 3.929688 -8.238281 2.9375 -7.347656 2.441406 -5.894531 L 2.441406 -7.984375 L 1.164062 -7.984375 L 1.164062 0 L 2.441406 0 L 2.441406 -3.050781 C 2.441406 -5.796875 3.386719 -7.171875 5.15625 -7.171875 C 6.324219 -7.171875 7.074219 -6.660156 7.074219 -4.949219 L 7.074219 0 L 8.351562 0 L 8.351562 -5.09375 C 8.351562 -7.152344 7.503906 -8.238281 5.507812 -8.238281 Z M 5.507812 -8.238281 "/></g></g></g><g fill="#c01e3a" fill-opacity="1"><g transform="translate(152.920786, 360.368842)"><g><path d="M 5.507812 -8.238281 C 3.929688 -8.238281 2.9375 -7.347656 2.441406 -5.894531 L 2.441406 -7.984375 L 1.164062 -7.984375 L 1.164062 0 L 2.441406 0 L 2.441406 -3.050781 C 2.441406 -5.796875 3.386719 -7.171875 5.15625 -7.171875 C 6.324219 -7.171875 7.074219 -6.660156 7.074219 -4.949219 L 7.074219 0 L 8.351562 0 L 8.351562 -5.09375 C 8.351562 -7.152344 7.503906 -8.238281 5.507812 -8.238281 Z M 5.507812 -8.238281 "/></g></g></g><g fill="#c01e3a" fill-opacity="1"><g transform="translate(161.958599, 360.368842)"><g><path d="M 4.773438 -0.71875 C 3.179688 -0.71875 2.125 -1.515625 2.027344 -3.703125 L 8.449219 -3.703125 C 8.480469 -3.898438 8.480469 -4.054688 8.480469 -4.265625 C 8.480469 -6.59375 7.121094 -8.238281 4.726562 -8.238281 C 2.074219 -8.238281 0.765625 -6.386719 0.765625 -4.007812 C 0.765625 -1.597656 1.980469 0.253906 4.726562 0.253906 C 7.378906 0.253906 8.304688 -1.246094 8.464844 -2.460938 L 7.296875 -2.460938 C 7.058594 -1.453125 6.339844 -0.71875 4.773438 -0.71875 Z M 4.742188 -7.265625 C 6.226562 -7.265625 7.171875 -6.5 7.234375 -4.664062 L 2.058594 -4.664062 C 2.234375 -6.546875 3.226562 -7.265625 4.742188 -7.265625 Z M 4.742188 -7.265625 "/></g></g></g><g fill="#c01e3a" fill-opacity="1"><g transform="translate(170.836728, 360.368842)"><g><path d="M 1.148438 0 L 2.425781 0 L 2.425781 -11.179688 L 1.148438 -11.179688 Z M 1.148438 0 "/></g></g></g><g fill="#c01e3a" fill-opacity="1"><g transform="translate(174.094128, 360.368842)"><g><path d="M 0.605469 -2.667969 C 0.640625 -0.988281 1.691406 0.253906 4.296875 0.253906 C 6.417969 0.253906 7.554688 -0.542969 7.554688 -2.171875 C 7.554688 -3.480469 6.882812 -4.265625 5.046875 -4.535156 L 3.355469 -4.773438 C 2.347656 -4.917969 2.058594 -5.398438 2.058594 -5.957031 C 2.058594 -6.738281 2.617188 -7.28125 3.976562 -7.28125 C 5.445312 -7.28125 6.050781 -6.53125 6.132812 -5.699219 L 7.394531 -5.699219 C 7.296875 -7.203125 6.101562 -8.257812 4.007812 -8.257812 C 1.996094 -8.257812 0.8125 -7.347656 0.8125 -5.859375 C 0.8125 -4.632812 1.597656 -3.898438 2.984375 -3.703125 L 4.839844 -3.433594 C 5.84375 -3.289062 6.292969 -2.875 6.292969 -2.109375 C 6.292969 -1.214844 5.734375 -0.71875 4.328125 -0.71875 C 2.492188 -0.71875 1.882812 -1.582031 1.789062 -2.667969 Z M 0.605469 -2.667969 "/></g></g></g><g fill="#c01e3a" fill-opacity="1"><g transform="translate(182.014177, 360.368842)"><g><path d="M 0.335938 -0.0625 L 1.148438 -0.0625 L 1.148438 1.292969 L 0.335938 1.292969 L 0.335938 2.125 L 0.671875 2.125 C 1.582031 2.125 1.980469 1.804688 1.980469 0.925781 L 1.980469 -1.40625 L 0.335938 -1.40625 Z M 0.335938 -0.0625 "/></g></g></g><g fill="#c01e3a" fill-opacity="1"><g transform="translate(184.010099, 360.368842)"><g/></g></g><g fill="#c01e3a" fill-opacity="1"><g transform="translate(187.283459, 360.368842)"><g><path d="M 5.507812 -8.238281 C 3.929688 -8.238281 2.9375 -7.347656 2.441406 -5.894531 L 2.441406 -11.179688 L 1.164062 -11.179688 L 1.164062 0 L 2.441406 0 L 2.441406 -3.050781 C 2.441406 -5.796875 3.386719 -7.171875 5.15625 -7.171875 C 6.324219 -7.171875 7.074219 -6.660156 7.074219 -4.949219 L 7.074219 0 L 8.351562 0 L 8.351562 -5.09375 C 8.351562 -7.152344 7.503906 -8.238281 5.507812 -8.238281 Z M 5.507812 -8.238281 "/></g></g></g><g fill="#c01e3a" fill-opacity="1"><g transform="translate(196.321272, 360.368842)"><g><path d="M 0.988281 -9.292969 L 2.636719 -9.292969 L 2.636719 -10.621094 L 0.988281 -10.621094 Z M 1.164062 0 L 2.441406 0 L 2.441406 -7.984375 L 1.164062 -7.984375 Z M 1.164062 0 "/></g></g></g><g fill="#c01e3a" fill-opacity="1"><g transform="translate(199.626573, 360.368842)"><g><path d="M 7.425781 -7.984375 L 7.425781 -6.609375 C 6.882812 -7.632812 5.910156 -8.207031 4.457031 -8.207031 C 1.949219 -8.207031 0.765625 -6.644531 0.765625 -4.199219 C 0.765625 -1.742188 1.949219 -0.175781 4.457031 -0.175781 C 5.894531 -0.175781 6.882812 -0.6875 7.425781 -1.726562 L 7.425781 0 C 7.425781 1.707031 6.644531 2.363281 4.757812 2.363281 C 2.984375 2.363281 2.316406 1.566406 2.21875 0.511719 L 0.957031 0.511719 C 1.101562 2.332031 2.378906 3.371094 4.757812 3.371094 C 7.664062 3.371094 8.703125 2.140625 8.703125 0.015625 L 8.703125 -7.984375 Z M 4.757812 -1.183594 C 2.9375 -1.183594 2.074219 -2.042969 2.074219 -4.199219 C 2.074219 -6.355469 2.9375 -7.203125 4.757812 -7.203125 C 6.453125 -7.203125 7.425781 -6.355469 7.425781 -4.199219 C 7.425781 -2.027344 6.453125 -1.183594 4.757812 -1.183594 Z M 4.757812 -1.183594 "/></g></g></g><g fill="#c01e3a" fill-opacity="1"><g transform="translate(209.143426, 360.368842)"><g><path d="M 5.507812 -8.238281 C 3.929688 -8.238281 2.9375 -7.347656 2.441406 -5.894531 L 2.441406 -11.179688 L 1.164062 -11.179688 L 1.164062 0 L 2.441406 0 L 2.441406 -3.050781 C 2.441406 -5.796875 3.386719 -7.171875 5.15625 -7.171875 C 6.324219 -7.171875 7.074219 -6.660156 7.074219 -4.949219 L 7.074219 0 L 8.351562 0 L 8.351562 -5.09375 C 8.351562 -7.152344 7.503906 -8.238281 5.507812 -8.238281 Z M 5.507812 -8.238281 "/></g></g></g><g fill="#c01e3a" fill-opacity="1"><g transform="translate(218.181244, 360.368842)"><g><path d="M 1.148438 0 L 2.425781 0 L 2.425781 -11.179688 L 1.148438 -11.179688 Z M 1.148438 0 "/></g></g></g><g fill="#c01e3a" fill-opacity="1"><g transform="translate(221.438645, 360.368842)"><g><path d="M 0.988281 -9.292969 L 2.636719 -9.292969 L 2.636719 -10.621094 L 0.988281 -10.621094 Z M 1.164062 0 L 2.441406 0 L 2.441406 -7.984375 L 1.164062 -7.984375 Z M 1.164062 0 "/></g></g></g><g fill="#c01e3a" fill-opacity="1"><g transform="translate(224.743946, 360.368842)"><g><path d="M 7.425781 -7.984375 L 7.425781 -6.609375 C 6.882812 -7.632812 5.910156 -8.207031 4.457031 -8.207031 C 1.949219 -8.207031 0.765625 -6.644531 0.765625 -4.199219 C 0.765625 -1.742188 1.949219 -0.175781 4.457031 -0.175781 C 5.894531 -0.175781 6.882812 -0.6875 7.425781 -1.726562 L 7.425781 0 C 7.425781 1.707031 6.644531 2.363281 4.757812 2.363281 C 2.984375 2.363281 2.316406 1.566406 2.21875 0.511719 L 0.957031 0.511719 C 1.101562 2.332031 2.378906 3.371094 4.757812 3.371094 C 7.664062 3.371094 8.703125 2.140625 8.703125 0.015625 L 8.703125 -7.984375 Z M 4.757812 -1.183594 C 2.9375 -1.183594 2.074219 -2.042969 2.074219 -4.199219 C 2.074219 -6.355469 2.9375 -7.203125 4.757812 -7.203125 C 6.453125 -7.203125 7.425781 -6.355469 7.425781 -4.199219 C 7.425781 -2.027344 6.453125 -1.183594 4.757812 -1.183594 Z M 4.757812 -1.183594 "/></g></g></g><g fill="#c01e3a" fill-opacity="1"><g transform="translate(234.260799, 360.368842)"><g><path d="M 5.507812 -8.238281 C 3.929688 -8.238281 2.9375 -7.347656 2.441406 -5.894531 L 2.441406 -11.179688 L 1.164062 -11.179688 L 1.164062 0 L 2.441406 0 L 2.441406 -3.050781 C 2.441406 -5.796875 3.386719 -7.171875 5.15625 -7.171875 C 6.324219 -7.171875 7.074219 -6.660156 7.074219 -4.949219 L 7.074219 0 L 8.351562 0 L 8.351562 -5.09375 C 8.351562 -7.152344 7.503906 -8.238281 5.507812 -8.238281 Z M 5.507812 -8.238281 "/></g></g></g><g fill="#c01e3a" fill-opacity="1"><g transform="translate(243.298611, 360.368842)"><g><path d="M 3.769531 0 L 5.652344 0 L 5.652344 -1.039062 L 3.113281 -1.039062 L 3.113281 -6.980469 L 5.75 -6.980469 L 5.75 -7.984375 L 3.113281 -7.984375 L 3.113281 -9.757812 L 2.425781 -9.757812 L 1.949219 -8.097656 L 0.320312 -7.695312 L 0.320312 -6.980469 L 1.835938 -6.980469 L 1.835938 -1.867188 C 1.835938 -0.589844 2.234375 0 3.769531 0 Z M 3.769531 0 "/></g></g></g><g fill="#c01e3a" fill-opacity="1"><g transform="translate(249.222657, 360.368842)"><g><path d="M 0.988281 -9.292969 L 2.636719 -9.292969 L 2.636719 -10.621094 L 0.988281 -10.621094 Z M 1.164062 0 L 2.441406 0 L 2.441406 -7.984375 L 1.164062 -7.984375 Z M 1.164062 0 "/></g></g></g><g fill="#c01e3a" fill-opacity="1"><g transform="translate(252.527958, 360.368842)"><g><path d="M 5.507812 -8.238281 C 3.929688 -8.238281 2.9375 -7.347656 2.441406 -5.894531 L 2.441406 -7.984375 L 1.164062 -7.984375 L 1.164062 0 L 2.441406 0 L 2.441406 -3.050781 C 2.441406 -5.796875 3.386719 -7.171875 5.15625 -7.171875 C 6.324219 -7.171875 7.074219 -6.660156 7.074219 -4.949219 L 7.074219 0 L 8.351562 0 L 8.351562 -5.09375 C 8.351562 -7.152344 7.503906 -8.238281 5.507812 -8.238281 Z M 5.507812 -8.238281 "/></g></g></g><g fill="#c01e3a" fill-opacity="1"><g transform="translate(261.565771, 360.368842)"><g><path d="M 7.425781 -7.984375 L 7.425781 -6.609375 C 6.882812 -7.632812 5.910156 -8.207031 4.457031 -8.207031 C 1.949219 -8.207031 0.765625 -6.644531 0.765625 -4.199219 C 0.765625 -1.742188 1.949219 -0.175781 4.457031 -0.175781 C 5.894531 -0.175781 6.882812 -0.6875 7.425781 -1.726562 L 7.425781 0 C 7.425781 1.707031 6.644531 2.363281 4.757812 2.363281 C 2.984375 2.363281 2.316406 1.566406 2.21875 0.511719 L 0.957031 0.511719 C 1.101562 2.332031 2.378906 3.371094 4.757812 3.371094 C 7.664062 3.371094 8.703125 2.140625 8.703125 0.015625 L 8.703125 -7.984375 Z M 4.757812 -1.183594 C 2.9375 -1.183594 2.074219 -2.042969 2.074219 -4.199219 C 2.074219 -6.355469 2.9375 -7.203125 4.757812 -7.203125 C 6.453125 -7.203125 7.425781 -6.355469 7.425781 -4.199219 C 7.425781 -2.027344 6.453125 -1.183594 4.757812 -1.183594 Z M 4.757812 -1.183594 "/></g></g></g><g fill="#c01e3a" fill-opacity="1"><g transform="translate(271.082624, 360.368842)"><g/></g></g><g fill="#c01e3a" fill-opacity="1"><g transform="translate(274.355983, 360.368842)"><g><path d="M 7.21875 -7.984375 L 4.742188 -1.835938 L 4.503906 -1.070312 L 4.230469 -1.835938 L 1.789062 -7.984375 L 0.445312 -7.984375 L 3.609375 0 L 4.054688 0 L 3.179688 2.15625 L 0.957031 2.15625 L 0.957031 3.195312 L 2.476562 3.195312 C 3.914062 3.195312 4.230469 2.601562 4.726562 1.324219 L 8.480469 -7.984375 Z M 7.21875 -7.984375 "/></g></g></g><g fill="#c01e3a" fill-opacity="1"><g transform="translate(282.914756, 360.368842)"><g><path d="M 4.789062 0.253906 C 7.472656 0.253906 8.800781 -1.613281 8.800781 -4.007812 C 8.800781 -6.371094 7.472656 -8.238281 4.789062 -8.238281 C 2.09375 -8.238281 0.765625 -6.386719 0.765625 -4.007812 C 0.765625 -1.597656 2.09375 0.253906 4.789062 0.253906 Z M 2.058594 -3.992188 C 2.058594 -6.242188 2.984375 -7.203125 4.789062 -7.203125 C 6.59375 -7.203125 7.503906 -6.242188 7.503906 -3.992188 C 7.503906 -1.757812 6.59375 -0.78125 4.789062 -0.78125 C 2.984375 -0.78125 2.058594 -1.757812 2.058594 -3.992188 Z M 2.058594 -3.992188 "/></g></g></g><g fill="#c01e3a" fill-opacity="1"><g transform="translate(292.160153, 360.368842)"><g><path d="M 6.898438 -7.984375 L 6.898438 -4.933594 C 6.898438 -2.285156 5.957031 -0.796875 4.296875 -0.796875 C 3.066406 -0.796875 2.285156 -1.261719 2.285156 -3.035156 L 2.285156 -7.984375 L 1.007812 -7.984375 L 1.007812 -2.890625 C 1.007812 -0.796875 1.917969 0.253906 3.929688 0.253906 C 5.476562 0.253906 6.417969 -0.605469 6.898438 -2.027344 L 6.898438 0 L 8.175781 0 L 8.175781 -7.984375 Z M 6.898438 -7.984375 "/></g></g></g><g fill="#c01e3a" fill-opacity="1"><g transform="translate(301.181995, 360.368842)"><g><path d="M 5.367188 -8.097656 C 3.847656 -8.097656 2.921875 -7.203125 2.441406 -5.875 L 2.441406 -7.984375 L 1.164062 -7.984375 L 1.164062 0 L 2.441406 0 L 2.441406 -2.9375 C 2.441406 -5.191406 2.953125 -6.914062 5.316406 -6.835938 L 5.652344 -6.835938 L 5.652344 -8.097656 Z M 5.367188 -8.097656 "/></g></g></g><g fill="#c01e3a" fill-opacity="1"><g transform="translate(117.359416, 380.58319)"><g><path d="M 5.429688 -8.238281 C 3.960938 -8.238281 2.953125 -7.585938 2.410156 -6.453125 L 2.410156 -7.984375 L 1.132812 -7.984375 L 1.132812 3.195312 L 2.410156 3.195312 L 2.410156 -1.515625 C 2.953125 -0.382812 3.960938 0.253906 5.429688 0.253906 C 7.9375 0.253906 9.085938 -1.53125 9.085938 -3.992188 C 9.085938 -6.4375 7.9375 -8.238281 5.429688 -8.238281 Z M 5.175781 -0.78125 C 3.480469 -0.78125 2.410156 -1.742188 2.410156 -3.992188 C 2.410156 -6.242188 3.480469 -7.203125 5.175781 -7.203125 C 6.996094 -7.203125 7.792969 -6.132812 7.792969 -3.992188 C 7.792969 -1.835938 6.996094 -0.78125 5.175781 -0.78125 Z M 5.175781 -0.78125 "/></g></g></g><g fill="#c01e3a" fill-opacity="1"><g transform="translate(126.9082, 380.58319)"><g><path d="M 5.367188 -8.097656 C 3.847656 -8.097656 2.921875 -7.203125 2.441406 -5.875 L 2.441406 -7.984375 L 1.164062 -7.984375 L 1.164062 0 L 2.441406 0 L 2.441406 -2.9375 C 2.441406 -5.191406 2.953125 -6.914062 5.316406 -6.835938 L 5.652344 -6.835938 L 5.652344 -8.097656 Z M 5.367188 -8.097656 "/></g></g></g><g fill="#c01e3a" fill-opacity="1"><g transform="translate(132.736446, 380.58319)"><g><path d="M 4.789062 0.253906 C 7.472656 0.253906 8.800781 -1.613281 8.800781 -4.007812 C 8.800781 -6.371094 7.472656 -8.238281 4.789062 -8.238281 C 2.09375 -8.238281 0.765625 -6.386719 0.765625 -4.007812 C 0.765625 -1.597656 2.09375 0.253906 4.789062 0.253906 Z M 2.058594 -3.992188 C 2.058594 -6.242188 2.984375 -7.203125 4.789062 -7.203125 C 6.59375 -7.203125 7.503906 -6.242188 7.503906 -3.992188 C 7.503906 -1.757812 6.59375 -0.78125 4.789062 -0.78125 C 2.984375 -0.78125 2.058594 -1.757812 2.058594 -3.992188 Z M 2.058594 -3.992188 "/></g></g></g><g fill="#c01e3a" fill-opacity="1"><g transform="translate(141.981846, 380.58319)"><g><path d="M 1.835938 0 L 3.113281 0 L 3.113281 -6.980469 L 5.445312 -6.980469 L 5.445312 -7.984375 L 3.019531 -7.984375 L 3.019531 -10.203125 L 5.894531 -10.203125 L 5.894531 -11.179688 L 3.863281 -11.179688 C 2.332031 -11.179688 1.835938 -10.636719 1.835938 -9.566406 L 1.835938 -8.03125 L 0.496094 -7.695312 L 0.496094 -6.980469 L 1.835938 -6.980469 Z M 1.835938 0 "/></g></g></g><g fill="#c01e3a" fill-opacity="1"><g transform="translate(147.554609, 380.58319)"><g><path d="M 0.988281 -9.292969 L 2.636719 -9.292969 L 2.636719 -10.621094 L 0.988281 -10.621094 Z M 1.164062 0 L 2.441406 0 L 2.441406 -7.984375 L 1.164062 -7.984375 Z M 1.164062 0 "/></g></g></g><g fill="#c01e3a" fill-opacity="1"><g transform="translate(150.859912, 380.58319)"><g><path d="M 1.148438 0 L 2.425781 0 L 2.425781 -11.179688 L 1.148438 -11.179688 Z M 1.148438 0 "/></g></g></g><g fill="#c01e3a" fill-opacity="1"><g transform="translate(154.117316, 380.58319)"><g><path d="M 4.773438 -0.71875 C 3.179688 -0.71875 2.125 -1.515625 2.027344 -3.703125 L 8.449219 -3.703125 C 8.480469 -3.898438 8.480469 -4.054688 8.480469 -4.265625 C 8.480469 -6.59375 7.121094 -8.238281 4.726562 -8.238281 C 2.074219 -8.238281 0.765625 -6.386719 0.765625 -4.007812 C 0.765625 -1.597656 1.980469 0.253906 4.726562 0.253906 C 7.378906 0.253906 8.304688 -1.246094 8.464844 -2.460938 L 7.296875 -2.460938 C 7.058594 -1.453125 6.339844 -0.71875 4.773438 -0.71875 Z M 4.742188 -7.265625 C 6.226562 -7.265625 7.171875 -6.5 7.234375 -4.664062 L 2.058594 -4.664062 C 2.234375 -6.546875 3.226562 -7.265625 4.742188 -7.265625 Z M 4.742188 -7.265625 "/></g></g></g><g fill="#c01e3a" fill-opacity="1"><g transform="translate(162.995447, 380.58319)"><g/></g></g><g fill="#c01e3a" fill-opacity="1"><g transform="translate(166.268807, 380.58319)"><g><path d="M 3.769531 0 L 5.652344 0 L 5.652344 -1.039062 L 3.113281 -1.039062 L 3.113281 -6.980469 L 5.75 -6.980469 L 5.75 -7.984375 L 3.113281 -7.984375 L 3.113281 -9.757812 L 2.425781 -9.757812 L 1.949219 -8.097656 L 0.320312 -7.695312 L 0.320312 -6.980469 L 1.835938 -6.980469 L 1.835938 -1.867188 C 1.835938 -0.589844 2.234375 0 3.769531 0 Z M 3.769531 0 "/></g></g></g><g fill="#c01e3a" fill-opacity="1"><g transform="translate(172.192853, 380.58319)"><g><path d="M 4.789062 0.253906 C 7.472656 0.253906 8.800781 -1.613281 8.800781 -4.007812 C 8.800781 -6.371094 7.472656 -8.238281 4.789062 -8.238281 C 2.09375 -8.238281 0.765625 -6.386719 0.765625 -4.007812 C 0.765625 -1.597656 2.09375 0.253906 4.789062 0.253906 Z M 2.058594 -3.992188 C 2.058594 -6.242188 2.984375 -7.203125 4.789062 -7.203125 C 6.59375 -7.203125 7.503906 -6.242188 7.503906 -3.992188 C 7.503906 -1.757812 6.59375 -0.78125 4.789062 -0.78125 C 2.984375 -0.78125 2.058594 -1.757812 2.058594 -3.992188 Z M 2.058594 -3.992188 "/></g></g></g><g fill="#c01e3a" fill-opacity="1"><g transform="translate(181.43825, 380.58319)"><g/></g></g><g fill="#c01e3a" fill-opacity="1"><g transform="translate(184.711609, 380.58319)"><g><path d="M 4.789062 0.253906 C 7.472656 0.253906 8.800781 -1.613281 8.800781 -4.007812 C 8.800781 -6.371094 7.472656 -8.238281 4.789062 -8.238281 C 2.09375 -8.238281 0.765625 -6.386719 0.765625 -4.007812 C 0.765625 -1.597656 2.09375 0.253906 4.789062 0.253906 Z M 2.058594 -3.992188 C 2.058594 -6.242188 2.984375 -7.203125 4.789062 -7.203125 C 6.59375 -7.203125 7.503906 -6.242188 7.503906 -3.992188 C 7.503906 -1.757812 6.59375 -0.78125 4.789062 -0.78125 C 2.984375 -0.78125 2.058594 -1.757812 2.058594 -3.992188 Z M 2.058594 -3.992188 "/></g></g></g><g fill="#c01e3a" fill-opacity="1"><g transform="translate(193.957007, 380.58319)"><g><path d="M 6.898438 -7.984375 L 6.898438 -4.933594 C 6.898438 -2.285156 5.957031 -0.796875 4.296875 -0.796875 C 3.066406 -0.796875 2.285156 -1.261719 2.285156 -3.035156 L 2.285156 -7.984375 L 1.007812 -7.984375 L 1.007812 -2.890625 C 1.007812 -0.796875 1.917969 0.253906 3.929688 0.253906 C 5.476562 0.253906 6.417969 -0.605469 6.898438 -2.027344 L 6.898438 0 L 8.175781 0 L 8.175781 -7.984375 Z M 6.898438 -7.984375 "/></g></g></g><g fill="#c01e3a" fill-opacity="1"><g transform="translate(202.978849, 380.58319)"><g><path d="M 5.367188 -8.097656 C 3.847656 -8.097656 2.921875 -7.203125 2.441406 -5.875 L 2.441406 -7.984375 L 1.164062 -7.984375 L 1.164062 0 L 2.441406 0 L 2.441406 -2.9375 C 2.441406 -5.191406 2.953125 -6.914062 5.316406 -6.835938 L 5.652344 -6.835938 L 5.652344 -8.097656 Z M 5.367188 -8.097656 "/></g></g></g><g fill="#c01e3a" fill-opacity="1"><g transform="translate(208.807093, 380.58319)"><g/></g></g><g fill="#c01e3a" fill-opacity="1"><g transform="translate(212.080453, 380.58319)"><g><path d="M 7.425781 -7.984375 L 7.425781 -6.609375 C 6.882812 -7.632812 5.910156 -8.207031 4.457031 -8.207031 C 1.949219 -8.207031 0.765625 -6.644531 0.765625 -4.199219 C 0.765625 -1.742188 1.949219 -0.175781 4.457031 -0.175781 C 5.894531 -0.175781 6.882812 -0.6875 7.425781 -1.726562 L 7.425781 0 C 7.425781 1.707031 6.644531 2.363281 4.757812 2.363281 C 2.984375 2.363281 2.316406 1.566406 2.21875 0.511719 L 0.957031 0.511719 C 1.101562 2.332031 2.378906 3.371094 4.757812 3.371094 C 7.664062 3.371094 8.703125 2.140625 8.703125 0.015625 L 8.703125 -7.984375 Z M 4.757812 -1.183594 C 2.9375 -1.183594 2.074219 -2.042969 2.074219 -4.199219 C 2.074219 -6.355469 2.9375 -7.203125 4.757812 -7.203125 C 6.453125 -7.203125 7.425781 -6.355469 7.425781 -4.199219 C 7.425781 -2.027344 6.453125 -1.183594 4.757812 -1.183594 Z M 4.757812 -1.183594 "/></g></g></g><g fill="#c01e3a" fill-opacity="1"><g transform="translate(221.597312, 380.58319)"><g><path d="M 5.367188 -8.097656 C 3.847656 -8.097656 2.921875 -7.203125 2.441406 -5.875 L 2.441406 -7.984375 L 1.164062 -7.984375 L 1.164062 0 L 2.441406 0 L 2.441406 -2.9375 C 2.441406 -5.191406 2.953125 -6.914062 5.316406 -6.835938 L 5.652344 -6.835938 L 5.652344 -8.097656 Z M 5.367188 -8.097656 "/></g></g></g><g fill="#c01e3a" fill-opacity="1"><g transform="translate(227.425556, 380.58319)"><g><path d="M 4.789062 0.253906 C 7.472656 0.253906 8.800781 -1.613281 8.800781 -4.007812 C 8.800781 -6.371094 7.472656 -8.238281 4.789062 -8.238281 C 2.09375 -8.238281 0.765625 -6.386719 0.765625 -4.007812 C 0.765625 -1.597656 2.09375 0.253906 4.789062 0.253906 Z M 2.058594 -3.992188 C 2.058594 -6.242188 2.984375 -7.203125 4.789062 -7.203125 C 6.59375 -7.203125 7.503906 -6.242188 7.503906 -3.992188 C 7.503906 -1.757812 6.59375 -0.78125 4.789062 -0.78125 C 2.984375 -0.78125 2.058594 -1.757812 2.058594 -3.992188 Z M 2.058594 -3.992188 "/></g></g></g><g fill="#c01e3a" fill-opacity="1"><g transform="translate(236.670954, 380.58319)"><g><path d="M 12.296875 -7.984375 L 10.21875 -0.957031 L 7.695312 -7.984375 L 6.371094 -7.984375 L 3.847656 -0.957031 L 1.789062 -7.984375 L 0.445312 -7.984375 L 2.890625 0 L 4.710938 0 L 6.996094 -6.46875 L 9.292969 0 L 11.113281 0 L 13.542969 -7.984375 Z M 12.296875 -7.984375 "/></g></g></g><g fill="#c01e3a" fill-opacity="1"><g transform="translate(250.355444, 380.58319)"><g><path d="M 0.988281 -9.292969 L 2.636719 -9.292969 L 2.636719 -10.621094 L 0.988281 -10.621094 Z M 1.164062 0 L 2.441406 0 L 2.441406 -7.984375 L 1.164062 -7.984375 Z M 1.164062 0 "/></g></g></g><g fill="#c01e3a" fill-opacity="1"><g transform="translate(253.660745, 380.58319)"><g><path d="M 5.507812 -8.238281 C 3.929688 -8.238281 2.9375 -7.347656 2.441406 -5.894531 L 2.441406 -7.984375 L 1.164062 -7.984375 L 1.164062 0 L 2.441406 0 L 2.441406 -3.050781 C 2.441406 -5.796875 3.386719 -7.171875 5.15625 -7.171875 C 6.324219 -7.171875 7.074219 -6.660156 7.074219 -4.949219 L 7.074219 0 L 8.351562 0 L 8.351562 -5.09375 C 8.351562 -7.152344 7.503906 -8.238281 5.507812 -8.238281 Z M 5.507812 -8.238281 "/></g></g></g><g fill="#c01e3a" fill-opacity="1"><g transform="translate(262.698558, 380.58319)"><g><path d="M 7.425781 -7.984375 L 7.425781 -6.609375 C 6.882812 -7.632812 5.910156 -8.207031 4.457031 -8.207031 C 1.949219 -8.207031 0.765625 -6.644531 0.765625 -4.199219 C 0.765625 -1.742188 1.949219 -0.175781 4.457031 -0.175781 C 5.894531 -0.175781 6.882812 -0.6875 7.425781 -1.726562 L 7.425781 0 C 7.425781 1.707031 6.644531 2.363281 4.757812 2.363281 C 2.984375 2.363281 2.316406 1.566406 2.21875 0.511719 L 0.957031 0.511719 C 1.101562 2.332031 2.378906 3.371094 4.757812 3.371094 C 7.664062 3.371094 8.703125 2.140625 8.703125 0.015625 L 8.703125 -7.984375 Z M 4.757812 -1.183594 C 2.9375 -1.183594 2.074219 -2.042969 2.074219 -4.199219 C 2.074219 -6.355469 2.9375 -7.203125 4.757812 -7.203125 C 6.453125 -7.203125 7.425781 -6.355469 7.425781 -4.199219 C 7.425781 -2.027344 6.453125 -1.183594 4.757812 -1.183594 Z M 4.757812 -1.183594 "/></g></g></g><g fill="#c01e3a" fill-opacity="1"><g transform="translate(272.215411, 380.58319)"><g/></g></g><g fill="#c01e3a" fill-opacity="1"><g transform="translate(275.48877, 380.58319)"><g><path d="M 6.898438 -7.984375 L 6.898438 -4.933594 C 6.898438 -2.285156 5.957031 -0.796875 4.296875 -0.796875 C 3.066406 -0.796875 2.285156 -1.261719 2.285156 -3.035156 L 2.285156 -7.984375 L 1.007812 -7.984375 L 1.007812 -2.890625 C 1.007812 -0.796875 1.917969 0.253906 3.929688 0.253906 C 5.476562 0.253906 6.417969 -0.605469 6.898438 -2.027344 L 6.898438 0 L 8.175781 0 L 8.175781 -7.984375 Z M 6.898438 -7.984375 "/></g></g></g><g fill="#c01e3a" fill-opacity="1"><g transform="translate(284.510613, 380.58319)"><g><path d="M 0.605469 -2.667969 C 0.640625 -0.988281 1.691406 0.253906 4.296875 0.253906 C 6.417969 0.253906 7.554688 -0.542969 7.554688 -2.171875 C 7.554688 -3.480469 6.882812 -4.265625 5.046875 -4.535156 L 3.355469 -4.773438 C 2.347656 -4.917969 2.058594 -5.398438 2.058594 -5.957031 C 2.058594 -6.738281 2.617188 -7.28125 3.976562 -7.28125 C 5.445312 -7.28125 6.050781 -6.53125 6.132812 -5.699219 L 7.394531 -5.699219 C 7.296875 -7.203125 6.101562 -8.257812 4.007812 -8.257812 C 1.996094 -8.257812 0.8125 -7.347656 0.8125 -5.859375 C 0.8125 -4.632812 1.597656 -3.898438 2.984375 -3.703125 L 4.839844 -3.433594 C 5.84375 -3.289062 6.292969 -2.875 6.292969 -2.109375 C 6.292969 -1.214844 5.734375 -0.71875 4.328125 -0.71875 C 2.492188 -0.71875 1.882812 -1.582031 1.789062 -2.667969 Z M 0.605469 -2.667969 "/></g></g></g><g fill="#c01e3a" fill-opacity="1"><g transform="translate(292.430661, 380.58319)"><g><path d="M 4.773438 -0.71875 C 3.179688 -0.71875 2.125 -1.515625 2.027344 -3.703125 L 8.449219 -3.703125 C 8.480469 -3.898438 8.480469 -4.054688 8.480469 -4.265625 C 8.480469 -6.59375 7.121094 -8.238281 4.726562 -8.238281 C 2.074219 -8.238281 0.765625 -6.386719 0.765625 -4.007812 C 0.765625 -1.597656 1.980469 0.253906 4.726562 0.253906 C 7.378906 0.253906 8.304688 -1.246094 8.464844 -2.460938 L 7.296875 -2.460938 C 7.058594 -1.453125 6.339844 -0.71875 4.773438 -0.71875 Z M 4.742188 -7.265625 C 6.226562 -7.265625 7.171875 -6.5 7.234375 -4.664062 L 2.058594 -4.664062 C 2.234375 -6.546875 3.226562 -7.265625 4.742188 -7.265625 Z M 4.742188 -7.265625 "/></g></g></g><g fill="#c01e3a" fill-opacity="1"><g transform="translate(301.30879, 380.58319)"><g><path d="M 5.367188 -8.097656 C 3.847656 -8.097656 2.921875 -7.203125 2.441406 -5.875 L 2.441406 -7.984375 L 1.164062 -7.984375 L 1.164062 0 L 2.441406 0 L 2.441406 -2.9375 C 2.441406 -5.191406 2.953125 -6.914062 5.316406 -6.835938 L 5.652344 -6.835938 L 5.652344 -8.097656 Z M 5.367188 -8.097656 "/></g></g></g><g fill="#c01e3a" fill-opacity="1"><g transform="translate(193.233409, 400.797538)"><g><path d="M 5.429688 -8.238281 C 3.960938 -8.238281 2.953125 -7.601562 2.410156 -6.46875 L 2.410156 -11.179688 L 1.132812 -11.179688 L 1.132812 0 L 2.410156 0 L 2.410156 -1.53125 C 2.953125 -0.398438 3.960938 0.253906 5.429688 0.253906 C 7.9375 0.253906 9.085938 -1.550781 9.085938 -3.992188 C 9.085938 -6.453125 7.9375 -8.238281 5.429688 -8.238281 Z M 5.175781 -0.78125 C 3.480469 -0.78125 2.410156 -1.742188 2.410156 -3.992188 C 2.410156 -6.242188 3.480469 -7.203125 5.175781 -7.203125 C 6.996094 -7.203125 7.792969 -6.148438 7.792969 -3.992188 C 7.792969 -1.851562 6.996094 -0.78125 5.175781 -0.78125 Z M 5.175781 -0.78125 "/></g></g></g><g fill="#c01e3a" fill-opacity="1"><g transform="translate(202.782193, 400.797538)"><g><path d="M 3.5625 0.207031 C 5.414062 0.207031 6.261719 -0.910156 6.5625 -1.867188 C 6.5625 -1.277344 6.609375 -0.6875 6.675781 0 L 7.839844 0 C 7.761719 -0.78125 7.746094 -1.40625 7.746094 -1.980469 L 7.746094 -5.8125 C 7.746094 -7.25 6.753906 -8.257812 4.566406 -8.257812 C 2.363281 -8.257812 1.164062 -7.171875 1.117188 -5.476562 L 2.378906 -5.476562 C 2.460938 -6.515625 3.050781 -7.25 4.613281 -7.25 C 6.164062 -7.25 6.578125 -6.628906 6.578125 -5.8125 C 6.578125 -5.207031 6.226562 -4.984375 5.382812 -4.839844 L 3.355469 -4.503906 C 1.628906 -4.214844 0.925781 -3.402344 0.925781 -2.109375 C 0.925781 -0.589844 2.027344 0.207031 3.5625 0.207031 Z M 3.816406 -0.796875 C 2.875 -0.796875 2.21875 -1.246094 2.21875 -2.15625 C 2.21875 -3.019531 2.730469 -3.433594 3.816406 -3.65625 L 5.140625 -3.929688 C 5.75 -4.054688 6.179688 -4.183594 6.578125 -4.472656 L 6.578125 -3.785156 C 6.578125 -2.269531 5.699219 -0.796875 3.816406 -0.796875 Z M 3.816406 -0.796875 "/></g></g></g><g fill="#c01e3a" fill-opacity="1"><g transform="translate(211.213224, 400.797538)"><g><path d="M 0.605469 -2.667969 C 0.640625 -0.988281 1.691406 0.253906 4.296875 0.253906 C 6.417969 0.253906 7.554688 -0.542969 7.554688 -2.171875 C 7.554688 -3.480469 6.882812 -4.265625 5.046875 -4.535156 L 3.355469 -4.773438 C 2.347656 -4.917969 2.058594 -5.398438 2.058594 -5.957031 C 2.058594 -6.738281 2.617188 -7.28125 3.976562 -7.28125 C 5.445312 -7.28125 6.050781 -6.53125 6.132812 -5.699219 L 7.394531 -5.699219 C 7.296875 -7.203125 6.101562 -8.257812 4.007812 -8.257812 C 1.996094 -8.257812 0.8125 -7.347656 0.8125 -5.859375 C 0.8125 -4.632812 1.597656 -3.898438 2.984375 -3.703125 L 4.839844 -3.433594 C 5.84375 -3.289062 6.292969 -2.875 6.292969 -2.109375 C 6.292969 -1.214844 5.734375 -0.71875 4.328125 -0.71875 C 2.492188 -0.71875 1.882812 -1.582031 1.789062 -2.667969 Z M 0.605469 -2.667969 "/></g></g></g><g fill="#c01e3a" fill-opacity="1"><g transform="translate(219.133276, 400.797538)"><g><path d="M 4.773438 -0.71875 C 3.179688 -0.71875 2.125 -1.515625 2.027344 -3.703125 L 8.449219 -3.703125 C 8.480469 -3.898438 8.480469 -4.054688 8.480469 -4.265625 C 8.480469 -6.59375 7.121094 -8.238281 4.726562 -8.238281 C 2.074219 -8.238281 0.765625 -6.386719 0.765625 -4.007812 C 0.765625 -1.597656 1.980469 0.253906 4.726562 0.253906 C 7.378906 0.253906 8.304688 -1.246094 8.464844 -2.460938 L 7.296875 -2.460938 C 7.058594 -1.453125 6.339844 -0.71875 4.773438 -0.71875 Z M 4.742188 -7.265625 C 6.226562 -7.265625 7.171875 -6.5 7.234375 -4.664062 L 2.058594 -4.664062 C 2.234375 -6.546875 3.226562 -7.265625 4.742188 -7.265625 Z M 4.742188 -7.265625 "/></g></g></g><g fill="#c01e3a" fill-opacity="1"><g transform="translate(212.24285, 421.011886)"><g/></g></g><g fill="#2e2e2e" fill-opacity="1"><g transform="translate(99.17839, 283.171119)"><g><path d="M 0.894531 -5.027344 C 1.011719 -2.25 2.730469 0.390625 7.757812 0.390625 C 12.53125 0.390625 14.390625 -1.5625 14.390625 -4.566406 C 14.390625 -7.230469 12.832031 -8.699219 9.734375 -9.042969 L 6.542969 -9.433594 C 5.28125 -9.570312 4.75 -10.238281 4.75 -11.132812 C 4.75 -12.328125 5.738281 -13.085938 7.597656 -13.085938 C 9.617188 -13.085938 10.628906 -12.164062 10.8125 -10.742188 L 14.230469 -10.742188 C 14.046875 -13.453125 12.164062 -15.65625 7.597656 -15.65625 C 3.304688 -15.65625 1.238281 -13.679688 1.238281 -10.925781 C 1.238281 -8.402344 2.753906 -6.910156 5.464844 -6.589844 L 8.835938 -6.152344 C 10.191406 -5.96875 10.878906 -5.371094 10.878906 -4.222656 C 10.878906 -3.007812 10.121094 -2.203125 7.804688 -2.203125 C 5.394531 -2.203125 4.382812 -3.398438 4.292969 -5.027344 Z M 0.894531 -5.027344 "/></g></g></g><g fill="#2e2e2e" fill-opacity="1"><g transform="translate(114.510179, 283.171119)"><g><path d="M 8.769531 -11.84375 C 6.792969 -11.84375 5.484375 -11.085938 4.683594 -9.824219 L 4.683594 -11.476562 L 1.285156 -11.476562 L 1.285156 4.589844 L 4.683594 4.589844 L 4.683594 -1.675781 C 5.484375 -0.390625 6.792969 0.367188 8.769531 0.367188 C 12.53125 0.367188 14.070312 -2.480469 14.070312 -5.738281 C 14.070312 -9.042969 12.53125 -11.84375 8.769531 -11.84375 Z M 7.734375 -2.296875 C 5.578125 -2.296875 4.683594 -3.398438 4.683594 -5.738281 C 4.683594 -8.078125 5.578125 -9.183594 7.734375 -9.183594 C 9.894531 -9.183594 10.652344 -8.125 10.652344 -5.738281 C 10.652344 -3.375 9.894531 -2.296875 7.734375 -2.296875 Z M 7.734375 -2.296875 "/></g></g></g><g fill="#2e2e2e" fill-opacity="1"><g transform="translate(129.405882, 283.171119)"><g><path d="M 7.09375 -1.972656 C 5.464844 -1.972656 4.382812 -2.6875 4.175781 -4.867188 L 12.921875 -4.867188 C 12.96875 -5.117188 12.96875 -5.441406 12.96875 -5.785156 C 12.96875 -9.019531 11.363281 -11.84375 7.023438 -11.84375 C 2.777344 -11.84375 0.847656 -9.089844 0.847656 -5.761719 C 0.847656 -2.523438 2.546875 0.367188 7.023438 0.367188 C 11.15625 0.367188 12.625 -1.628906 12.945312 -3.464844 L 9.6875 -3.464844 C 9.367188 -2.617188 8.585938 -1.972656 7.09375 -1.972656 Z M 7.070312 -9.550781 C 8.769531 -9.550781 9.617188 -8.675781 9.734375 -6.933594 L 4.199219 -6.933594 C 4.476562 -8.882812 5.441406 -9.550781 7.070312 -9.550781 Z M 7.070312 -9.550781 "/></g></g></g><g fill="#2e2e2e" fill-opacity="1"><g transform="translate(143.176943, 283.171119)"><g><path d="M 0.847656 -5.738281 C 0.847656 -2.523438 2.730469 0.367188 7.207031 0.367188 C 11.246094 0.367188 13.152344 -2.042969 13.222656 -4.730469 L 9.917969 -4.730469 C 9.777344 -3.351562 8.976562 -2.296875 7.160156 -2.296875 C 5.324219 -2.296875 4.269531 -3.144531 4.269531 -5.738281 C 4.269531 -8.308594 5.371094 -9.183594 7.207031 -9.183594 C 8.953125 -9.183594 9.734375 -8.242188 9.847656 -6.816406 L 13.152344 -6.816406 C 13.0625 -9.640625 11.109375 -11.84375 7.140625 -11.84375 C 2.6875 -11.84375 0.847656 -8.953125 0.847656 -5.738281 Z M 0.847656 -5.738281 "/></g></g></g><g fill="#2e2e2e" fill-opacity="1"><g transform="translate(157.154571, 283.171119)"><g><path d="M 1.171875 -12.992188 L 4.867188 -12.992188 L 4.867188 -15.265625 L 1.171875 -15.265625 Z M 1.332031 0 L 4.730469 0 L 4.730469 -11.476562 L 1.332031 -11.476562 Z M 1.332031 0 "/></g></g></g><g fill="#2e2e2e" fill-opacity="1"><g transform="translate(163.190891, 283.171119)"><g><path d="M 4.820312 0.296875 C 7.160156 0.296875 8.539062 -0.871094 9.066406 -2.457031 C 9.066406 -1.515625 9.136719 -0.757812 9.25 0 L 12.210938 0 C 12.097656 -0.988281 12.027344 -1.90625 12.027344 -2.984375 L 12.027344 -7.941406 C 12.027344 -10.375 10.328125 -11.867188 6.839844 -11.867188 C 3.351562 -11.867188 1.332031 -10.191406 1.238281 -7.734375 L 4.566406 -7.734375 C 4.613281 -8.90625 5.347656 -9.527344 6.910156 -9.527344 C 8.445312 -9.527344 8.90625 -9 8.90625 -8.195312 C 8.90625 -7.527344 8.539062 -7.230469 7.484375 -7.046875 L 4.773438 -6.589844 C 1.8125 -6.082031 1.011719 -4.890625 1.011719 -3.054688 C 1.011719 -0.988281 2.503906 0.296875 4.820312 0.296875 Z M 5.96875 -2.019531 C 5.050781 -2.019531 4.363281 -2.480469 4.363281 -3.398438 C 4.363281 -4.269531 4.84375 -4.707031 6.058594 -5.003906 L 7.023438 -5.234375 C 7.734375 -5.394531 8.308594 -5.554688 8.90625 -5.96875 L 8.90625 -5.464844 C 8.90625 -3.328125 7.757812 -2.019531 5.96875 -2.019531 Z M 5.96875 -2.019531 "/></g></g></g><g fill="#2e2e2e" fill-opacity="1"><g transform="translate(176.479965, 283.171119)"><g><path d="M 1.332031 0 L 4.730469 0 L 4.730469 -16.066406 L 1.332031 -16.066406 Z M 1.332031 0 "/></g></g></g><g fill="#2e2e2e" fill-opacity="1"><g transform="translate(182.516285, 283.171119)"><g/></g></g><g fill="#2e2e2e" fill-opacity="1"><g transform="translate(188.323087, 283.171119)"><g><path d="M 14.023438 -3.71875 C 14.023438 -5.921875 12.808594 -6.703125 11.246094 -7.09375 C 13.0625 -7.484375 14.4375 -8.929688 14.4375 -11.085938 C 14.4375 -13.566406 12.761719 -15.265625 9.386719 -15.265625 L 1.332031 -15.265625 L 1.332031 0 L 4.84375 0 L 4.84375 -5.898438 L 7.988281 -5.898438 C 9.503906 -5.898438 10.535156 -5.164062 10.535156 -3.441406 L 10.535156 -2.640625 C 10.535156 -1.378906 10.652344 -0.550781 10.835938 0 L 14.324219 0 C 14.164062 -0.734375 14.023438 -1.421875 14.023438 -2.6875 Z M 8.609375 -8.402344 L 4.84375 -8.402344 L 4.84375 -12.554688 L 8.609375 -12.554688 C 10.121094 -12.554688 10.789062 -11.867188 10.789062 -10.582031 C 10.789062 -9.160156 10.191406 -8.402344 8.609375 -8.402344 Z M 8.609375 -8.402344 "/></g></g></g><g fill="#2e2e2e" fill-opacity="1"><g transform="translate(203.81553, 283.171119)"><g><path d="M 7.09375 -1.972656 C 5.464844 -1.972656 4.382812 -2.6875 4.175781 -4.867188 L 12.921875 -4.867188 C 12.96875 -5.117188 12.96875 -5.441406 12.96875 -5.785156 C 12.96875 -9.019531 11.363281 -11.84375 7.023438 -11.84375 C 2.777344 -11.84375 0.847656 -9.089844 0.847656 -5.761719 C 0.847656 -2.523438 2.546875 0.367188 7.023438 0.367188 C 11.15625 0.367188 12.625 -1.628906 12.945312 -3.464844 L 9.6875 -3.464844 C 9.367188 -2.617188 8.585938 -1.972656 7.09375 -1.972656 Z M 7.070312 -9.550781 C 8.769531 -9.550781 9.617188 -8.675781 9.734375 -6.933594 L 4.199219 -6.933594 C 4.476562 -8.882812 5.441406 -9.550781 7.070312 -9.550781 Z M 7.070312 -9.550781 "/></g></g></g><g fill="#2e2e2e" fill-opacity="1"><g transform="translate(217.586591, 283.171119)"><g><path d="M 0.847656 -5.738281 C 0.847656 -2.523438 2.730469 0.367188 7.207031 0.367188 C 11.246094 0.367188 13.152344 -2.042969 13.222656 -4.730469 L 9.917969 -4.730469 C 9.777344 -3.351562 8.976562 -2.296875 7.160156 -2.296875 C 5.324219 -2.296875 4.269531 -3.144531 4.269531 -5.738281 C 4.269531 -8.308594 5.371094 -9.183594 7.207031 -9.183594 C 8.953125 -9.183594 9.734375 -8.242188 9.847656 -6.816406 L 13.152344 -6.816406 C 13.0625 -9.640625 11.109375 -11.84375 7.140625 -11.84375 C 2.6875 -11.84375 0.847656 -8.953125 0.847656 -5.738281 Z M 0.847656 -5.738281 "/></g></g></g><g fill="#2e2e2e" fill-opacity="1"><g transform="translate(231.56422, 283.171119)"><g><path d="M 7.207031 0.367188 C 11.796875 0.367188 13.566406 -2.570312 13.566406 -5.761719 C 13.566406 -8.90625 11.796875 -11.84375 7.207031 -11.84375 C 2.640625 -11.84375 0.847656 -8.929688 0.847656 -5.761719 C 0.847656 -2.546875 2.640625 0.367188 7.207031 0.367188 Z M 4.269531 -5.738281 C 4.269531 -8.285156 5.140625 -9.183594 7.207031 -9.183594 C 9.296875 -9.183594 10.167969 -8.285156 10.167969 -5.738281 C 10.167969 -3.191406 9.296875 -2.296875 7.207031 -2.296875 C 5.140625 -2.296875 4.269531 -3.191406 4.269531 -5.738281 Z M 4.269531 -5.738281 "/></g></g></g><g fill="#2e2e2e" fill-opacity="1"><g transform="translate(245.977935, 283.171119)"><g><path d="M 10.261719 -11.476562 L 10.261719 -9.960938 C 9.480469 -11.132812 8.195312 -11.820312 6.265625 -11.820312 C 2.523438 -11.820312 0.917969 -9.273438 0.917969 -6.058594 C 0.917969 -2.914062 2.523438 -0.34375 6.265625 -0.34375 C 8.195312 -0.34375 9.480469 -0.988281 10.261719 -2.15625 L 10.261719 -0.0703125 C 10.261719 1.746094 9.367188 2.457031 7.367188 2.457031 C 5.464844 2.457031 4.660156 1.675781 4.523438 0.503906 L 1.195312 0.503906 C 1.355469 3.074219 3.304688 4.84375 7.230469 4.84375 C 11.890625 4.84375 13.65625 3.054688 13.65625 -0.460938 L 13.65625 -11.476562 Z M 7.34375 -2.847656 C 5.1875 -2.847656 4.316406 -3.71875 4.316406 -6.015625 C 4.316406 -8.308594 5.1875 -9.183594 7.34375 -9.183594 C 9.457031 -9.183594 10.261719 -8.195312 10.261719 -6.015625 C 10.261719 -3.855469 9.457031 -2.847656 7.34375 -2.847656 Z M 7.34375 -2.847656 "/></g></g></g><g fill="#2e2e2e" fill-opacity="1"><g transform="translate(260.919538, 283.171119)"><g><path d="M 8.859375 -11.84375 C 6.773438 -11.84375 5.464844 -10.789062 4.730469 -9.226562 L 4.730469 -11.476562 L 1.332031 -11.476562 L 1.332031 0 L 4.730469 0 L 4.730469 -5.210938 C 4.730469 -7.941406 5.738281 -9.089844 7.550781 -9.089844 C 8.953125 -9.089844 9.734375 -8.355469 9.734375 -6.519531 L 9.734375 0 L 13.128906 0 L 13.128906 -7.046875 C 13.128906 -10.054688 11.867188 -11.84375 8.859375 -11.84375 Z M 8.859375 -11.84375 "/></g></g></g><g fill="#2e2e2e" fill-opacity="1"><g transform="translate(275.218488, 283.171119)"><g><path d="M 1.171875 -12.992188 L 4.867188 -12.992188 L 4.867188 -15.265625 L 1.171875 -15.265625 Z M 1.332031 0 L 4.730469 0 L 4.730469 -11.476562 L 1.332031 -11.476562 Z M 1.332031 0 "/></g></g></g><g fill="#2e2e2e" fill-opacity="1"><g transform="translate(281.254809, 283.171119)"><g><path d="M 6.566406 0 L 8.722656 0 L 8.722656 -2.707031 L 5.738281 -2.707031 L 5.738281 -8.90625 L 9.042969 -8.90625 L 9.042969 -11.476562 L 5.738281 -11.476562 L 5.738281 -14.207031 L 4.015625 -14.207031 L 2.617188 -11.5 L 0.253906 -10.535156 L 0.253906 -8.90625 L 2.339844 -8.90625 L 2.339844 -4.132812 C 2.339844 -1.398438 3.304688 0 6.566406 0 Z M 6.566406 0 "/></g></g></g><g fill="#2e2e2e" fill-opacity="1"><g transform="translate(290.894549, 283.171119)"><g><path d="M 1.171875 -12.992188 L 4.867188 -12.992188 L 4.867188 -15.265625 L 1.171875 -15.265625 Z M 1.332031 0 L 4.730469 0 L 4.730469 -11.476562 L 1.332031 -11.476562 Z M 1.332031 0 "/></g></g></g><g fill="#2e2e2e" fill-opacity="1"><g transform="translate(296.930869, 283.171119)"><g><path d="M 7.207031 0.367188 C 11.796875 0.367188 13.566406 -2.570312 13.566406 -5.761719 C 13.566406 -8.90625 11.796875 -11.84375 7.207031 -11.84375 C 2.640625 -11.84375 0.847656 -8.929688 0.847656 -5.761719 C 0.847656 -2.546875 2.640625 0.367188 7.207031 0.367188 Z M 4.269531 -5.738281 C 4.269531 -8.285156 5.140625 -9.183594 7.207031 -9.183594 C 9.296875 -9.183594 10.167969 -8.285156 10.167969 -5.738281 C 10.167969 -3.191406 9.296875 -2.296875 7.207031 -2.296875 C 5.140625 -2.296875 4.269531 -3.191406 4.269531 -5.738281 Z M 4.269531 -5.738281 "/></g></g></g><g fill="#2e2e2e" fill-opacity="1"><g transform="translate(311.344595, 283.171119)"><g><path d="M 8.859375 -11.84375 C 6.773438 -11.84375 5.464844 -10.789062 4.730469 -9.226562 L 4.730469 -11.476562 L 1.332031 -11.476562 L 1.332031 0 L 4.730469 0 L 4.730469 -5.210938 C 4.730469 -7.941406 5.738281 -9.089844 7.550781 -9.089844 C 8.953125 -9.089844 9.734375 -8.355469 9.734375 -6.519531 L 9.734375 0 L 13.128906 0 L 13.128906 -7.046875 C 13.128906 -10.054688 11.867188 -11.84375 8.859375 -11.84375 Z M 8.859375 -11.84375 "/></g></g></g></svg>