<svg xmlns="http://www.w3.org/2000/svg" xmlns:xlink="http://www.w3.org/1999/xlink" width="566" zoomAndPan="magnify" viewBox="0 0 424.5 503.249994" height="671" preserveAspectRatio="xMidYMid meet" version="1.0"><defs><g/><clipPath id="df14d1adfc"><path d="M 125.875 75.527344 L 298.621094 75.527344 L 298.621094 248.273438 L 125.875 248.273438 Z M 125.875 75.527344 " clip-rule="nonzero"/></clipPath><clipPath id="bbc63d3b22"><path d="M 212.25 75.527344 C 164.546875 75.527344 125.875 114.199219 125.875 161.902344 C 125.875 209.605469 164.546875 248.273438 212.25 248.273438 C 259.953125 248.273438 298.621094 209.605469 298.621094 161.902344 C 298.621094 114.199219 259.953125 75.527344 212.25 75.527344 " clip-rule="nonzero"/></clipPath><clipPath id="e7590416d0"><path d="M 75.109375 298.101562 L 349.523438 298.101562 L 349.523438 416.5625 L 75.109375 416.5625 Z M 75.109375 298.101562 " clip-rule="nonzero"/></clipPath><clipPath id="6080b7db64"><path d="M 90.109375 298.101562 L 334.519531 298.101562 C 338.5 298.101562 342.316406 299.683594 345.128906 302.503906 C 347.941406 305.320312 349.523438 309.144531 349.523438 313.132812 L 349.523438 401.527344 C 349.523438 405.515625 347.941406 409.339844 345.128906 412.15625 C 342.316406 414.976562 338.5 416.558594 334.519531 416.558594 L 90.109375 416.558594 C 86.132812 416.558594 82.316406 414.976562 79.503906 412.15625 C 76.6875 409.339844 75.109375 405.515625 75.109375 401.527344 L 75.109375 313.132812 C 75.109375 309.144531 76.6875 305.320312 79.503906 302.503906 C 82.316406 299.683594 86.132812 298.101562 90.109375 298.101562 " clip-rule="nonzero"/></clipPath><clipPath id="f53649e66b"><path d="M 158.402344 108.511719 L 266.371094 108.511719 L 266.371094 211.976562 L 158.402344 211.976562 Z M 158.402344 108.511719 " clip-rule="nonzero"/></clipPath></defs><g clip-path="url(#df14d1adfc)"><g clip-path="url(#bbc63d3b22)"><path fill="#c01e3a" d="M 125.875 75.527344 L 298.621094 75.527344 L 298.621094 248.273438 L 125.875 248.273438 Z M 125.875 75.527344 " fill-opacity="1" fill-rule="nonzero"/></g></g><g clip-path="url(#e7590416d0)"><g clip-path="url(#6080b7db64)"><path stroke-linecap="round" transform="matrix(0.75015, 0, 0, 0.751624, 75.107846, 298.1)" fill="none" stroke-linejoin="miter" d="M 19.998032 0.00207922 L 345.812976 0.00207922 C 351.119205 0.00207922 356.206728 2.106896 359.955977 5.859187 C 363.705226 9.606281 365.814178 14.694221 365.814178 20.000439 L 365.814178 137.605136 C 365.814178 142.911353 363.705226 147.999293 359.955977 151.746387 C 356.206728 155.498678 351.119205 157.603495 345.812976 157.603495 L 19.998032 157.603495 C 14.697011 157.603495 9.609488 155.498678 5.860239 151.746387 C 2.105783 147.999293 0.00203768 142.911353 0.00203768 137.605136 L 0.00203768 20.000439 C 0.00203768 14.694221 2.105783 9.606281 5.860239 5.859187 C 9.609488 2.106896 14.697011 0.00207922 19.998032 0.00207922 " stroke="#c01e3a" stroke-width="2" stroke-opacity="1" stroke-miterlimit="4"/></g></g><g clip-path="url(#f53649e66b)"><path fill="#000000" d="M 159.726562 211.234375 C 159.078125 210.585938 159.054688 210.050781 159.640625 209.308594 C 160.066406 208.765625 160.179688 208.742188 162.625 208.683594 L 165.164062 208.621094 L 165.273438 200.910156 C 165.371094 193.957031 165.421875 193.136719 165.773438 192.601562 C 165.988281 192.273438 166.378906 191.925781 166.640625 191.828125 C 166.902344 191.730469 170.195312 191.730469 173.957031 191.820312 C 177.714844 191.914062 181.34375 191.996094 182.015625 192.003906 C 182.882812 192.015625 183.390625 192.140625 183.753906 192.433594 L 184.265625 192.847656 L 184.375 200.734375 L 184.484375 208.617188 L 188.035156 208.679688 C 190.472656 208.71875 191.683594 208.660156 191.890625 208.488281 C 192.136719 208.28125 192.1875 206.148438 192.1875 195.949219 C 192.1875 182.375 192.140625 182.828125 193.550781 182.589844 C 194.804688 182.375 207.671875 182.808594 208.171875 183.078125 C 208.425781 183.21875 208.71875 183.503906 208.824219 183.714844 C 208.925781 183.929688 209.0625 189.617188 209.121094 196.359375 L 209.230469 208.617188 L 212.347656 208.679688 C 214.460938 208.71875 215.5625 208.660156 215.765625 208.488281 C 216.019531 208.28125 216.066406 205.242188 216.066406 189.707031 L 216.066406 171.171875 L 216.617188 170.625 L 217.164062 170.074219 L 224.59375 170.207031 C 228.679688 170.277344 232.621094 170.390625 233.355469 170.453125 C 235.730469 170.660156 235.476562 168.496094 235.601562 189.886719 L 235.710938 208.617188 L 241.789062 208.617188 L 241.898438 180.085938 C 241.996094 153.683594 242.035156 151.507812 242.378906 150.878906 C 242.582031 150.503906 242.90625 150.136719 243.101562 150.0625 C 243.558594 149.886719 248.246094 149.894531 254.070312 150.074219 L 258.71875 150.21875 L 259.914062 151.414062 L 259.914062 179.9375 C 259.914062 205.75 259.945312 208.476562 260.257812 208.59375 C 260.445312 208.667969 261.660156 208.726562 262.953125 208.726562 C 265.238281 208.726562 265.320312 208.746094 265.757812 209.300781 C 266.347656 210.050781 266.328125 210.582031 265.675781 211.230469 L 265.144531 211.765625 L 160.261719 211.765625 Z M 181.011719 201.894531 L 181.011719 195.167969 L 175.070312 194.992188 C 171.800781 194.898438 168.992188 194.871094 168.828125 194.933594 C 168.582031 195.027344 168.527344 196.257812 168.527344 201.746094 C 168.527344 205.425781 168.59375 208.507812 168.675781 208.589844 C 168.757812 208.671875 171.566406 208.710938 174.917969 208.679688 L 181.011719 208.621094 Z M 205.8125 197.308594 L 205.867188 185.996094 L 201.6875 185.84375 C 199.390625 185.761719 197.019531 185.726562 196.421875 185.765625 L 195.335938 185.839844 L 195.28125 197.109375 C 195.234375 205.976562 195.28125 208.414062 195.496094 208.550781 C 195.648438 208.648438 198.015625 208.703125 200.761719 208.675781 L 205.757812 208.621094 Z M 232.292969 191.203125 C 232.34375 175.976562 232.308594 173.769531 232.027344 173.664062 C 231.851562 173.59375 228.894531 173.523438 225.460938 173.503906 L 219.214844 173.472656 L 219.15625 190.804688 C 219.117188 203.542969 219.167969 208.21875 219.351562 208.4375 C 219.550781 208.679688 220.769531 208.726562 225.917969 208.679688 L 232.238281 208.621094 Z M 256.613281 208.46875 C 257.003906 208.082031 256.992188 153.769531 256.605469 153.453125 C 256.441406 153.324219 254.070312 153.203125 250.796875 153.15625 L 245.261719 153.078125 L 245.207031 180.632812 C 245.175781 195.789062 245.195312 208.308594 245.253906 208.457031 C 245.398438 208.839844 256.234375 208.851562 256.613281 208.46875 Z M 159.078125 180.207031 C 158.414062 179.546875 158.402344 178.972656 159.03125 178.261719 C 159.445312 177.796875 160.136719 177.574219 163.535156 176.816406 C 174.203125 174.433594 184.503906 170.851562 194.125 166.1875 C 206.5 160.183594 216.539062 153.652344 226.269531 145.277344 C 232.574219 139.847656 241.933594 129.929688 249.679688 120.464844 C 251.269531 118.519531 253.355469 116.03125 254.308594 114.933594 C 256.300781 112.640625 256.277344 112.597656 253.398438 113.144531 C 251.082031 113.582031 247.316406 113.585938 245.84375 113.152344 C 244.546875 112.765625 243.925781 111.9375 244.261719 111.046875 C 244.613281 110.128906 245.046875 109.933594 246.296875 110.144531 C 248.574219 110.523438 251.800781 110.324219 255.089844 109.605469 C 258.726562 108.8125 260.164062 108.753906 261.148438 109.351562 C 262.023438 109.886719 262.054688 110.070312 262.152344 115.546875 C 262.214844 118.832031 262.328125 120.261719 262.628906 121.441406 C 262.996094 122.878906 263 123.035156 262.675781 123.527344 C 262.179688 124.285156 261.28125 124.464844 260.582031 123.945312 C 259.679688 123.277344 259.230469 121.421875 258.933594 117.121094 C 258.855469 115.957031 258.703125 115.003906 258.597656 115.003906 C 258.390625 115.003906 255.171875 118.734375 250.324219 124.59375 C 240.117188 136.925781 230.441406 146.488281 220.949219 153.625 C 206.460938 164.515625 189.421875 172.988281 172.328125 177.808594 C 168.015625 179.023438 166.976562 179.285156 162.910156 180.191406 C 159.871094 180.871094 159.738281 180.871094 159.078125 180.210938 Z M 159.078125 180.207031 " fill-opacity="1" fill-rule="nonzero"/></g><g fill="#c01e3a" fill-opacity="1"><g transform="translate(107.397898, 320.335643)"><g><path d="M 6.171875 0.273438 C 9.867188 0.273438 11.484375 -2.128906 11.484375 -5.324219 C 11.484375 -8.476562 9.867188 -10.921875 6.171875 -10.921875 C 2.480469 -10.921875 0.878906 -8.492188 0.878906 -5.324219 C 0.878906 -2.109375 2.480469 0.273438 6.171875 0.273438 Z M 2.269531 -5.324219 C 2.269531 -8.316406 3.453125 -9.820312 6.171875 -9.820312 C 8.890625 -9.820312 10.089844 -8.316406 10.089844 -5.324219 C 10.089844 -2.335938 8.890625 -0.832031 6.171875 -0.832031 C 3.453125 -0.832031 2.269531 -2.335938 2.269531 -5.324219 Z M 2.269531 -5.324219 "/></g></g></g><g fill="#c01e3a" fill-opacity="1"><g transform="translate(119.439173, 320.335643)"><g><path d="M 5.4375 -8.253906 C 3.964844 -8.253906 2.957031 -7.597656 2.414062 -6.460938 L 2.414062 -7.996094 L 1.136719 -7.996094 L 1.136719 3.199219 L 2.414062 3.199219 L 2.414062 -1.519531 C 2.957031 -0.382812 3.964844 0.257812 5.4375 0.257812 C 7.949219 0.257812 9.101562 -1.535156 9.101562 -4 C 9.101562 -6.445312 7.949219 -8.253906 5.4375 -8.253906 Z M 5.179688 -0.785156 C 3.488281 -0.785156 2.414062 -1.742188 2.414062 -4 C 2.414062 -6.253906 3.488281 -7.210938 5.179688 -7.210938 C 7.003906 -7.210938 7.804688 -6.140625 7.804688 -4 C 7.804688 -1.839844 7.003906 -0.785156 5.179688 -0.785156 Z M 5.179688 -0.785156 "/></g></g></g><g fill="#c01e3a" fill-opacity="1"><g transform="translate(129.001814, 320.335643)"><g><path d="M 5.4375 -8.253906 C 3.964844 -8.253906 2.957031 -7.597656 2.414062 -6.460938 L 2.414062 -7.996094 L 1.136719 -7.996094 L 1.136719 3.199219 L 2.414062 3.199219 L 2.414062 -1.519531 C 2.957031 -0.382812 3.964844 0.257812 5.4375 0.257812 C 7.949219 0.257812 9.101562 -1.535156 9.101562 -4 C 9.101562 -6.445312 7.949219 -8.253906 5.4375 -8.253906 Z M 5.179688 -0.785156 C 3.488281 -0.785156 2.414062 -1.742188 2.414062 -4 C 2.414062 -6.253906 3.488281 -7.210938 5.179688 -7.210938 C 7.003906 -7.210938 7.804688 -6.140625 7.804688 -4 C 7.804688 -1.839844 7.003906 -0.785156 5.179688 -0.785156 Z M 5.179688 -0.785156 "/></g></g></g><g fill="#c01e3a" fill-opacity="1"><g transform="translate(138.564455, 320.335643)"><g><path d="M 4.796875 0.257812 C 7.484375 0.257812 8.8125 -1.617188 8.8125 -4.015625 C 8.8125 -6.382812 7.484375 -8.253906 4.796875 -8.253906 C 2.09375 -8.253906 0.769531 -6.398438 0.769531 -4.015625 C 0.769531 -1.597656 2.09375 0.257812 4.796875 0.257812 Z M 2.0625 -4 C 2.0625 -6.253906 2.992188 -7.210938 4.796875 -7.210938 C 6.605469 -7.210938 7.515625 -6.253906 7.515625 -4 C 7.515625 -1.757812 6.605469 -0.785156 4.796875 -0.785156 C 2.992188 -0.785156 2.0625 -1.757812 2.0625 -4 Z M 2.0625 -4 "/></g></g></g><g fill="#c01e3a" fill-opacity="1"><g transform="translate(147.823269, 320.335643)"><g><path d="M 5.375 -8.109375 C 3.855469 -8.109375 2.925781 -7.210938 2.445312 -5.886719 L 2.445312 -7.996094 L 1.167969 -7.996094 L 1.167969 0 L 2.445312 0 L 2.445312 -2.941406 C 2.445312 -5.199219 2.957031 -6.925781 5.324219 -6.84375 L 5.660156 -6.84375 L 5.660156 -8.109375 Z M 5.375 -8.109375 "/></g></g></g><g fill="#c01e3a" fill-opacity="1"><g transform="translate(153.659973, 320.335643)"><g><path d="M 3.773438 0 L 5.660156 0 L 5.660156 -1.039062 L 3.117188 -1.039062 L 3.117188 -6.988281 L 5.757812 -6.988281 L 5.757812 -7.996094 L 3.117188 -7.996094 L 3.117188 -9.769531 L 2.429688 -9.769531 L 1.949219 -8.109375 L 0.320312 -7.707031 L 0.320312 -6.988281 L 1.839844 -6.988281 L 1.839844 -1.871094 C 1.839844 -0.589844 2.238281 0 3.773438 0 Z M 3.773438 0 "/></g></g></g><g fill="#c01e3a" fill-opacity="1"><g transform="translate(159.592618, 320.335643)"><g><path d="M 6.910156 -7.996094 L 6.910156 -4.941406 C 6.910156 -2.285156 5.964844 -0.800781 4.300781 -0.800781 C 3.070312 -0.800781 2.285156 -1.261719 2.285156 -3.039062 L 2.285156 -7.996094 L 1.007812 -7.996094 L 1.007812 -2.894531 C 1.007812 -0.800781 1.917969 0.257812 3.933594 0.257812 C 5.484375 0.257812 6.429688 -0.609375 6.910156 -2.03125 L 6.910156 0 L 8.1875 0 L 8.1875 -7.996094 Z M 6.910156 -7.996094 "/></g></g></g><g fill="#c01e3a" fill-opacity="1"><g transform="translate(168.627552, 320.335643)"><g><path d="M 5.515625 -8.253906 C 3.933594 -8.253906 2.941406 -7.355469 2.445312 -5.902344 L 2.445312 -7.996094 L 1.167969 -7.996094 L 1.167969 0 L 2.445312 0 L 2.445312 -3.054688 C 2.445312 -5.804688 3.390625 -7.179688 5.164062 -7.179688 C 6.332031 -7.179688 7.085938 -6.667969 7.085938 -4.957031 L 7.085938 0 L 8.363281 0 L 8.363281 -5.101562 C 8.363281 -7.164062 7.515625 -8.253906 5.515625 -8.253906 Z M 5.515625 -8.253906 "/></g></g></g><g fill="#c01e3a" fill-opacity="1"><g transform="translate(177.678479, 320.335643)"><g><path d="M 0.992188 -9.308594 L 2.640625 -9.308594 L 2.640625 -10.636719 L 0.992188 -10.636719 Z M 1.167969 0 L 2.445312 0 L 2.445312 -7.996094 L 1.167969 -7.996094 Z M 1.167969 0 "/></g></g></g><g fill="#c01e3a" fill-opacity="1"><g transform="translate(180.988576, 320.335643)"><g><path d="M 3.773438 0 L 5.660156 0 L 5.660156 -1.039062 L 3.117188 -1.039062 L 3.117188 -6.988281 L 5.757812 -6.988281 L 5.757812 -7.996094 L 3.117188 -7.996094 L 3.117188 -9.769531 L 2.429688 -9.769531 L 1.949219 -8.109375 L 0.320312 -7.707031 L 0.320312 -6.988281 L 1.839844 -6.988281 L 1.839844 -1.871094 C 1.839844 -0.589844 2.238281 0 3.773438 0 Z M 3.773438 0 "/></g></g></g><g fill="#c01e3a" fill-opacity="1"><g transform="translate(186.921218, 320.335643)"><g><path d="M 7.230469 -7.996094 L 4.75 -1.839844 L 4.511719 -1.070312 L 4.238281 -1.839844 L 1.792969 -7.996094 L 0.449219 -7.996094 L 3.613281 0 L 4.0625 0 L 3.183594 2.160156 L 0.960938 2.160156 L 0.960938 3.199219 L 2.480469 3.199219 C 3.917969 3.199219 4.238281 2.605469 4.734375 1.328125 L 8.492188 -7.996094 Z M 7.230469 -7.996094 "/></g></g></g><g fill="#c01e3a" fill-opacity="1"><g transform="translate(195.49241, 320.335643)"><g/></g></g><g fill="#c01e3a" fill-opacity="1"><g transform="translate(198.77052, 320.335643)"><g><path d="M 3.773438 0 L 5.660156 0 L 5.660156 -1.039062 L 3.117188 -1.039062 L 3.117188 -6.988281 L 5.757812 -6.988281 L 5.757812 -7.996094 L 3.117188 -7.996094 L 3.117188 -9.769531 L 2.429688 -9.769531 L 1.949219 -8.109375 L 0.320312 -7.707031 L 0.320312 -6.988281 L 1.839844 -6.988281 L 1.839844 -1.871094 C 1.839844 -0.589844 2.238281 0 3.773438 0 Z M 3.773438 0 "/></g></g></g><g fill="#c01e3a" fill-opacity="1"><g transform="translate(204.703162, 320.335643)"><g><path d="M 4.796875 0.257812 C 7.484375 0.257812 8.8125 -1.617188 8.8125 -4.015625 C 8.8125 -6.382812 7.484375 -8.253906 4.796875 -8.253906 C 2.09375 -8.253906 0.769531 -6.398438 0.769531 -4.015625 C 0.769531 -1.597656 2.09375 0.257812 4.796875 0.257812 Z M 2.0625 -4 C 2.0625 -6.253906 2.992188 -7.210938 4.796875 -7.210938 C 6.605469 -7.210938 7.515625 -6.253906 7.515625 -4 C 7.515625 -1.757812 6.605469 -0.785156 4.796875 -0.785156 C 2.992188 -0.785156 2.0625 -1.757812 2.0625 -4 Z M 2.0625 -4 "/></g></g></g><g fill="#c01e3a" fill-opacity="1"><g transform="translate(213.961975, 320.335643)"><g/></g></g><g fill="#c01e3a" fill-opacity="1"><g transform="translate(217.240084, 320.335643)"><g><path d="M 5.4375 -8.253906 C 3.964844 -8.253906 2.957031 -7.613281 2.414062 -6.476562 L 2.414062 -11.195312 L 1.136719 -11.195312 L 1.136719 0 L 2.414062 0 L 2.414062 -1.535156 C 2.957031 -0.398438 3.964844 0.257812 5.4375 0.257812 C 7.949219 0.257812 9.101562 -1.550781 9.101562 -4 C 9.101562 -6.460938 7.949219 -8.253906 5.4375 -8.253906 Z M 5.179688 -0.785156 C 3.488281 -0.785156 2.414062 -1.742188 2.414062 -4 C 2.414062 -6.253906 3.488281 -7.210938 5.179688 -7.210938 C 7.003906 -7.210938 7.804688 -6.15625 7.804688 -4 C 7.804688 -1.855469 7.003906 -0.785156 5.179688 -0.785156 Z M 5.179688 -0.785156 "/></g></g></g><g fill="#c01e3a" fill-opacity="1"><g transform="translate(226.802723, 320.335643)"><g><path d="M 4.78125 -0.71875 C 3.183594 -0.71875 2.128906 -1.519531 2.03125 -3.710938 L 8.460938 -3.710938 C 8.492188 -3.902344 8.492188 -4.0625 8.492188 -4.269531 C 8.492188 -6.605469 7.132812 -8.253906 4.734375 -8.253906 C 2.078125 -8.253906 0.769531 -6.398438 0.769531 -4.015625 C 0.769531 -1.597656 1.984375 0.257812 4.734375 0.257812 C 7.386719 0.257812 8.316406 -1.246094 8.476562 -2.460938 L 7.308594 -2.460938 C 7.070312 -1.457031 6.347656 -0.71875 4.78125 -0.71875 Z M 4.75 -7.277344 C 6.238281 -7.277344 7.179688 -6.507812 7.246094 -4.667969 L 2.0625 -4.667969 C 2.238281 -6.558594 3.230469 -7.277344 4.75 -7.277344 Z M 4.75 -7.277344 "/></g></g></g><g fill="#c01e3a" fill-opacity="1"><g transform="translate(235.693735, 320.335643)"><g/></g></g><g fill="#c01e3a" fill-opacity="1"><g transform="translate(238.971845, 320.335643)"><g><path d="M 1.839844 0 L 3.117188 0 L 3.117188 -6.988281 L 5.453125 -6.988281 L 5.453125 -7.996094 L 3.023438 -7.996094 L 3.023438 -10.21875 L 5.902344 -10.21875 L 5.902344 -11.195312 L 3.871094 -11.195312 C 2.335938 -11.195312 1.839844 -10.652344 1.839844 -9.578125 L 1.839844 -8.042969 L 0.496094 -7.707031 L 0.496094 -6.988281 L 1.839844 -6.988281 Z M 1.839844 0 "/></g></g></g><g fill="#c01e3a" fill-opacity="1"><g transform="translate(244.552691, 320.335643)"><g><path d="M 4.78125 -0.71875 C 3.183594 -0.71875 2.128906 -1.519531 2.03125 -3.710938 L 8.460938 -3.710938 C 8.492188 -3.902344 8.492188 -4.0625 8.492188 -4.269531 C 8.492188 -6.605469 7.132812 -8.253906 4.734375 -8.253906 C 2.078125 -8.253906 0.769531 -6.398438 0.769531 -4.015625 C 0.769531 -1.597656 1.984375 0.257812 4.734375 0.257812 C 7.386719 0.257812 8.316406 -1.246094 8.476562 -2.460938 L 7.308594 -2.460938 C 7.070312 -1.457031 6.347656 -0.71875 4.78125 -0.71875 Z M 4.75 -7.277344 C 6.238281 -7.277344 7.179688 -6.507812 7.246094 -4.667969 L 2.0625 -4.667969 C 2.238281 -6.558594 3.230469 -7.277344 4.75 -7.277344 Z M 4.75 -7.277344 "/></g></g></g><g fill="#c01e3a" fill-opacity="1"><g transform="translate(253.443703, 320.335643)"><g><path d="M 3.566406 0.207031 C 5.421875 0.207031 6.269531 -0.910156 6.574219 -1.871094 C 6.574219 -1.28125 6.621094 -0.6875 6.683594 0 L 7.851562 0 C 7.773438 -0.785156 7.757812 -1.40625 7.757812 -1.984375 L 7.757812 -5.820312 C 7.757812 -7.261719 6.765625 -8.269531 4.574219 -8.269531 C 2.367188 -8.269531 1.167969 -7.179688 1.121094 -5.484375 L 2.382812 -5.484375 C 2.460938 -6.523438 3.054688 -7.261719 4.621094 -7.261719 C 6.171875 -7.261719 6.589844 -6.636719 6.589844 -5.820312 C 6.589844 -5.214844 6.238281 -4.988281 5.390625 -4.847656 L 3.359375 -4.511719 C 1.632812 -4.222656 0.925781 -3.40625 0.925781 -2.109375 C 0.925781 -0.589844 2.03125 0.207031 3.566406 0.207031 Z M 3.820312 -0.800781 C 2.878906 -0.800781 2.222656 -1.246094 2.222656 -2.160156 C 2.222656 -3.023438 2.734375 -3.4375 3.820312 -3.664062 L 5.148438 -3.933594 C 5.757812 -4.0625 6.1875 -4.191406 6.589844 -4.476562 L 6.589844 -3.789062 C 6.589844 -2.269531 5.710938 -0.800781 3.820312 -0.800781 Z M 3.820312 -0.800781 "/></g></g></g><g fill="#c01e3a" fill-opacity="1"><g transform="translate(261.886967, 320.335643)"><g><path d="M 3.773438 0 L 5.660156 0 L 5.660156 -1.039062 L 3.117188 -1.039062 L 3.117188 -6.988281 L 5.757812 -6.988281 L 5.757812 -7.996094 L 3.117188 -7.996094 L 3.117188 -9.769531 L 2.429688 -9.769531 L 1.949219 -8.109375 L 0.320312 -7.707031 L 0.320312 -6.988281 L 1.839844 -6.988281 L 1.839844 -1.871094 C 1.839844 -0.589844 2.238281 0 3.773438 0 Z M 3.773438 0 "/></g></g></g><g fill="#c01e3a" fill-opacity="1"><g transform="translate(267.819609, 320.335643)"><g><path d="M 6.910156 -7.996094 L 6.910156 -4.941406 C 6.910156 -2.285156 5.964844 -0.800781 4.300781 -0.800781 C 3.070312 -0.800781 2.285156 -1.261719 2.285156 -3.039062 L 2.285156 -7.996094 L 1.007812 -7.996094 L 1.007812 -2.894531 C 1.007812 -0.800781 1.917969 0.257812 3.933594 0.257812 C 5.484375 0.257812 6.429688 -0.609375 6.910156 -2.03125 L 6.910156 0 L 8.1875 0 L 8.1875 -7.996094 Z M 6.910156 -7.996094 "/></g></g></g><g fill="#c01e3a" fill-opacity="1"><g transform="translate(276.854542, 320.335643)"><g><path d="M 5.375 -8.109375 C 3.855469 -8.109375 2.925781 -7.210938 2.445312 -5.886719 L 2.445312 -7.996094 L 1.167969 -7.996094 L 1.167969 0 L 2.445312 0 L 2.445312 -2.941406 C 2.445312 -5.199219 2.957031 -6.925781 5.324219 -6.84375 L 5.660156 -6.84375 L 5.660156 -8.109375 Z M 5.375 -8.109375 "/></g></g></g><g fill="#c01e3a" fill-opacity="1"><g transform="translate(282.691244, 320.335643)"><g><path d="M 4.78125 -0.71875 C 3.183594 -0.71875 2.128906 -1.519531 2.03125 -3.710938 L 8.460938 -3.710938 C 8.492188 -3.902344 8.492188 -4.0625 8.492188 -4.269531 C 8.492188 -6.605469 7.132812 -8.253906 4.734375 -8.253906 C 2.078125 -8.253906 0.769531 -6.398438 0.769531 -4.015625 C 0.769531 -1.597656 1.984375 0.257812 4.734375 0.257812 C 7.386719 0.257812 8.316406 -1.246094 8.476562 -2.460938 L 7.308594 -2.460938 C 7.070312 -1.457031 6.347656 -0.71875 4.78125 -0.71875 Z M 4.75 -7.277344 C 6.238281 -7.277344 7.179688 -6.507812 7.246094 -4.667969 L 2.0625 -4.667969 C 2.238281 -6.558594 3.230469 -7.277344 4.75 -7.277344 Z M 4.75 -7.277344 "/></g></g></g><g fill="#c01e3a" fill-opacity="1"><g transform="translate(291.582256, 320.335643)"><g><path d="M 7.46875 -11.195312 L 7.46875 -6.476562 C 6.925781 -7.613281 5.917969 -8.253906 4.445312 -8.253906 C 1.933594 -8.253906 0.785156 -6.460938 0.785156 -4 C 0.785156 -1.550781 1.933594 0.257812 4.445312 0.257812 C 5.917969 0.257812 6.925781 -0.398438 7.46875 -1.535156 L 7.46875 0 L 8.746094 0 L 8.746094 -11.195312 Z M 4.703125 -0.785156 C 2.878906 -0.785156 2.078125 -1.855469 2.078125 -4 C 2.078125 -6.15625 2.878906 -7.210938 4.703125 -7.210938 C 6.398438 -7.210938 7.46875 -6.253906 7.46875 -4 C 7.46875 -1.742188 6.398438 -0.785156 4.703125 -0.785156 Z M 4.703125 -0.785156 "/></g></g></g><g fill="#c01e3a" fill-opacity="1"><g transform="translate(301.144895, 320.335643)"><g/></g></g><g fill="#c01e3a" fill-opacity="1"><g transform="translate(304.423016, 320.335643)"><g><path d="M 0.992188 -9.308594 L 2.640625 -9.308594 L 2.640625 -10.636719 L 0.992188 -10.636719 Z M 1.167969 0 L 2.445312 0 L 2.445312 -7.996094 L 1.167969 -7.996094 Z M 1.167969 0 "/></g></g></g><g fill="#c01e3a" fill-opacity="1"><g transform="translate(307.733125, 320.335643)"><g><path d="M 5.515625 -8.253906 C 3.933594 -8.253906 2.941406 -7.355469 2.445312 -5.902344 L 2.445312 -7.996094 L 1.167969 -7.996094 L 1.167969 0 L 2.445312 0 L 2.445312 -3.054688 C 2.445312 -5.804688 3.390625 -7.179688 5.164062 -7.179688 C 6.332031 -7.179688 7.085938 -6.667969 7.085938 -4.957031 L 7.085938 0 L 8.363281 0 L 8.363281 -5.101562 C 8.363281 -7.164062 7.515625 -8.253906 5.515625 -8.253906 Z M 5.515625 -8.253906 "/></g></g></g><g fill="#c01e3a" fill-opacity="1"><g transform="translate(104.738572, 340.579323)"><g><path d="M 4.796875 0.257812 C 7.484375 0.257812 8.8125 -1.617188 8.8125 -4.015625 C 8.8125 -6.382812 7.484375 -8.253906 4.796875 -8.253906 C 2.09375 -8.253906 0.769531 -6.398438 0.769531 -4.015625 C 0.769531 -1.597656 2.09375 0.257812 4.796875 0.257812 Z M 2.0625 -4 C 2.0625 -6.253906 2.992188 -7.210938 4.796875 -7.210938 C 6.605469 -7.210938 7.515625 -6.253906 7.515625 -4 C 7.515625 -1.757812 6.605469 -0.785156 4.796875 -0.785156 C 2.992188 -0.785156 2.0625 -1.757812 2.0625 -4 Z M 2.0625 -4 "/></g></g></g><g fill="#c01e3a" fill-opacity="1"><g transform="translate(113.997387, 340.579323)"><g><path d="M 6.910156 -7.996094 L 6.910156 -4.941406 C 6.910156 -2.285156 5.964844 -0.800781 4.300781 -0.800781 C 3.070312 -0.800781 2.285156 -1.261719 2.285156 -3.039062 L 2.285156 -7.996094 L 1.007812 -7.996094 L 1.007812 -2.894531 C 1.007812 -0.800781 1.917969 0.257812 3.933594 0.257812 C 5.484375 0.257812 6.429688 -0.609375 6.910156 -2.03125 L 6.910156 0 L 8.1875 0 L 8.1875 -7.996094 Z M 6.910156 -7.996094 "/></g></g></g><g fill="#c01e3a" fill-opacity="1"><g transform="translate(123.032322, 340.579323)"><g><path d="M 5.375 -8.109375 C 3.855469 -8.109375 2.925781 -7.210938 2.445312 -5.886719 L 2.445312 -7.996094 L 1.167969 -7.996094 L 1.167969 0 L 2.445312 0 L 2.445312 -2.941406 C 2.445312 -5.199219 2.957031 -6.925781 5.324219 -6.84375 L 5.660156 -6.84375 L 5.660156 -8.109375 Z M 5.375 -8.109375 "/></g></g></g><g fill="#c01e3a" fill-opacity="1"><g transform="translate(128.869026, 340.579323)"><g/></g></g><g fill="#c01e3a" fill-opacity="1"><g transform="translate(132.147139, 340.579323)"><g><path d="M 10.972656 -8.253906 C 9.371094 -8.253906 8.445312 -7.40625 7.980469 -5.996094 C 7.757812 -7.484375 6.910156 -8.253906 5.359375 -8.253906 C 3.820312 -8.253906 2.910156 -7.40625 2.445312 -6.027344 L 2.445312 -7.996094 L 1.167969 -7.996094 L 1.167969 0 L 2.445312 0 L 2.445312 -3.054688 C 2.445312 -5.804688 3.246094 -7.179688 4.957031 -7.179688 C 6.125 -7.179688 6.796875 -6.621094 6.796875 -5.003906 L 6.796875 0 L 8.042969 0 L 8.042969 -3.054688 C 8.042969 -5.804688 8.828125 -7.179688 10.570312 -7.179688 C 11.738281 -7.179688 12.394531 -6.621094 12.394531 -5.003906 L 12.394531 0 L 13.671875 0 L 13.671875 -5.148438 C 13.671875 -7.195312 12.792969 -8.253906 10.972656 -8.253906 Z M 10.972656 -8.253906 "/></g></g></g><g fill="#c01e3a" fill-opacity="1"><g transform="translate(146.507134, 340.579323)"><g><path d="M 3.566406 0.207031 C 5.421875 0.207031 6.269531 -0.910156 6.574219 -1.871094 C 6.574219 -1.28125 6.621094 -0.6875 6.683594 0 L 7.851562 0 C 7.773438 -0.785156 7.757812 -1.40625 7.757812 -1.984375 L 7.757812 -5.820312 C 7.757812 -7.261719 6.765625 -8.269531 4.574219 -8.269531 C 2.367188 -8.269531 1.167969 -7.179688 1.121094 -5.484375 L 2.382812 -5.484375 C 2.460938 -6.523438 3.054688 -7.261719 4.621094 -7.261719 C 6.171875 -7.261719 6.589844 -6.636719 6.589844 -5.820312 C 6.589844 -5.214844 6.238281 -4.988281 5.390625 -4.847656 L 3.359375 -4.511719 C 1.632812 -4.222656 0.925781 -3.40625 0.925781 -2.109375 C 0.925781 -0.589844 2.03125 0.207031 3.566406 0.207031 Z M 3.820312 -0.800781 C 2.878906 -0.800781 2.222656 -1.246094 2.222656 -2.160156 C 2.222656 -3.023438 2.734375 -3.4375 3.820312 -3.664062 L 5.148438 -3.933594 C 5.757812 -4.0625 6.1875 -4.191406 6.589844 -4.476562 L 6.589844 -3.789062 C 6.589844 -2.269531 5.710938 -0.800781 3.820312 -0.800781 Z M 3.820312 -0.800781 "/></g></g></g><g fill="#c01e3a" fill-opacity="1"><g transform="translate(154.950398, 340.579323)"><g><path d="M 5.375 -8.109375 C 3.855469 -8.109375 2.925781 -7.210938 2.445312 -5.886719 L 2.445312 -7.996094 L 1.167969 -7.996094 L 1.167969 0 L 2.445312 0 L 2.445312 -2.941406 C 2.445312 -5.199219 2.957031 -6.925781 5.324219 -6.84375 L 5.660156 -6.84375 L 5.660156 -8.109375 Z M 5.375 -8.109375 "/></g></g></g><g fill="#c01e3a" fill-opacity="1"><g transform="translate(160.7871, 340.579323)"><g><path d="M 7.117188 0 L 8.730469 0 L 4.894531 -4.621094 L 8.394531 -7.964844 L 8.394531 -7.996094 L 6.8125 -7.996094 L 3.214844 -4.542969 C 2.957031 -4.300781 2.6875 -4.015625 2.445312 -3.710938 L 2.445312 -11.195312 L 1.167969 -11.195312 L 1.167969 0 L 2.445312 0 L 2.445312 -2.285156 L 4.09375 -3.855469 Z M 7.117188 0 "/></g></g></g><g fill="#c01e3a" fill-opacity="1"><g transform="translate(169.550184, 340.579323)"><g><path d="M 4.78125 -0.71875 C 3.183594 -0.71875 2.128906 -1.519531 2.03125 -3.710938 L 8.460938 -3.710938 C 8.492188 -3.902344 8.492188 -4.0625 8.492188 -4.269531 C 8.492188 -6.605469 7.132812 -8.253906 4.734375 -8.253906 C 2.078125 -8.253906 0.769531 -6.398438 0.769531 -4.015625 C 0.769531 -1.597656 1.984375 0.257812 4.734375 0.257812 C 7.386719 0.257812 8.316406 -1.246094 8.476562 -2.460938 L 7.308594 -2.460938 C 7.070312 -1.457031 6.347656 -0.71875 4.78125 -0.71875 Z M 4.75 -7.277344 C 6.238281 -7.277344 7.179688 -6.507812 7.246094 -4.667969 L 2.0625 -4.667969 C 2.238281 -6.558594 3.230469 -7.277344 4.75 -7.277344 Z M 4.75 -7.277344 "/></g></g></g><g fill="#c01e3a" fill-opacity="1"><g transform="translate(178.441195, 340.579323)"><g><path d="M 3.773438 0 L 5.660156 0 L 5.660156 -1.039062 L 3.117188 -1.039062 L 3.117188 -6.988281 L 5.757812 -6.988281 L 5.757812 -7.996094 L 3.117188 -7.996094 L 3.117188 -9.769531 L 2.429688 -9.769531 L 1.949219 -8.109375 L 0.320312 -7.707031 L 0.320312 -6.988281 L 1.839844 -6.988281 L 1.839844 -1.871094 C 1.839844 -0.589844 2.238281 0 3.773438 0 Z M 3.773438 0 "/></g></g></g><g fill="#c01e3a" fill-opacity="1"><g transform="translate(184.373837, 340.579323)"><g><path d="M 0.992188 -9.308594 L 2.640625 -9.308594 L 2.640625 -10.636719 L 0.992188 -10.636719 Z M 1.167969 0 L 2.445312 0 L 2.445312 -7.996094 L 1.167969 -7.996094 Z M 1.167969 0 "/></g></g></g><g fill="#c01e3a" fill-opacity="1"><g transform="translate(187.683935, 340.579323)"><g><path d="M 5.515625 -8.253906 C 3.933594 -8.253906 2.941406 -7.355469 2.445312 -5.902344 L 2.445312 -7.996094 L 1.167969 -7.996094 L 1.167969 0 L 2.445312 0 L 2.445312 -3.054688 C 2.445312 -5.804688 3.390625 -7.179688 5.164062 -7.179688 C 6.332031 -7.179688 7.085938 -6.667969 7.085938 -4.957031 L 7.085938 0 L 8.363281 0 L 8.363281 -5.101562 C 8.363281 -7.164062 7.515625 -8.253906 5.515625 -8.253906 Z M 5.515625 -8.253906 "/></g></g></g><g fill="#c01e3a" fill-opacity="1"><g transform="translate(196.734862, 340.579323)"><g><path d="M 7.4375 -7.996094 L 7.4375 -6.621094 C 6.894531 -7.644531 5.917969 -8.21875 4.460938 -8.21875 C 1.949219 -8.21875 0.769531 -6.652344 0.769531 -4.207031 C 0.769531 -1.742188 1.949219 -0.175781 4.460938 -0.175781 C 5.902344 -0.175781 6.894531 -0.6875 7.4375 -1.726562 L 7.4375 0 C 7.4375 1.710938 6.652344 2.367188 4.765625 2.367188 C 2.992188 2.367188 2.320312 1.566406 2.222656 0.511719 L 0.960938 0.511719 C 1.101562 2.335938 2.382812 3.375 4.765625 3.375 C 7.675781 3.375 8.714844 2.144531 8.714844 0.015625 L 8.714844 -7.996094 Z M 4.765625 -1.183594 C 2.941406 -1.183594 2.078125 -2.046875 2.078125 -4.207031 C 2.078125 -6.363281 2.941406 -7.210938 4.765625 -7.210938 C 6.460938 -7.210938 7.4375 -6.363281 7.4375 -4.207031 C 7.4375 -2.03125 6.460938 -1.183594 4.765625 -1.183594 Z M 4.765625 -1.183594 "/></g></g></g><g fill="#c01e3a" fill-opacity="1"><g transform="translate(206.265525, 340.579323)"><g/></g></g><g fill="#c01e3a" fill-opacity="1"><g transform="translate(209.543634, 340.579323)"><g><path d="M 0.769531 -4 C 0.769531 -1.550781 2.144531 0.257812 4.765625 0.257812 C 7.195312 0.257812 8.492188 -1.214844 8.589844 -3.054688 L 7.371094 -3.054688 C 7.210938 -1.695312 6.382812 -0.785156 4.765625 -0.785156 C 3.085938 -0.785156 2.0625 -1.679688 2.0625 -4 C 2.0625 -6.300781 3.117188 -7.210938 4.8125 -7.210938 C 6.300781 -7.210938 7.101562 -6.382812 7.292969 -5.070312 L 8.492188 -5.070312 C 8.363281 -6.925781 7.164062 -8.253906 4.765625 -8.253906 C 2.175781 -8.253906 0.769531 -6.445312 0.769531 -4 Z M 0.769531 -4 "/></g></g></g><g fill="#c01e3a" fill-opacity="1"><g transform="translate(218.482616, 340.579323)"><g><path d="M 3.566406 0.207031 C 5.421875 0.207031 6.269531 -0.910156 6.574219 -1.871094 C 6.574219 -1.28125 6.621094 -0.6875 6.683594 0 L 7.851562 0 C 7.773438 -0.785156 7.757812 -1.40625 7.757812 -1.984375 L 7.757812 -5.820312 C 7.757812 -7.261719 6.765625 -8.269531 4.574219 -8.269531 C 2.367188 -8.269531 1.167969 -7.179688 1.121094 -5.484375 L 2.382812 -5.484375 C 2.460938 -6.523438 3.054688 -7.261719 4.621094 -7.261719 C 6.171875 -7.261719 6.589844 -6.636719 6.589844 -5.820312 C 6.589844 -5.214844 6.238281 -4.988281 5.390625 -4.847656 L 3.359375 -4.511719 C 1.632812 -4.222656 0.925781 -3.40625 0.925781 -2.109375 C 0.925781 -0.589844 2.03125 0.207031 3.566406 0.207031 Z M 3.820312 -0.800781 C 2.878906 -0.800781 2.222656 -1.246094 2.222656 -2.160156 C 2.222656 -3.023438 2.734375 -3.4375 3.820312 -3.664062 L 5.148438 -3.933594 C 5.757812 -4.0625 6.1875 -4.191406 6.589844 -4.476562 L 6.589844 -3.789062 C 6.589844 -2.269531 5.710938 -0.800781 3.820312 -0.800781 Z M 3.820312 -0.800781 "/></g></g></g><g fill="#c01e3a" fill-opacity="1"><g transform="translate(226.92588, 340.579323)"><g><path d="M 10.972656 -8.253906 C 9.371094 -8.253906 8.445312 -7.40625 7.980469 -5.996094 C 7.757812 -7.484375 6.910156 -8.253906 5.359375 -8.253906 C 3.820312 -8.253906 2.910156 -7.40625 2.445312 -6.027344 L 2.445312 -7.996094 L 1.167969 -7.996094 L 1.167969 0 L 2.445312 0 L 2.445312 -3.054688 C 2.445312 -5.804688 3.246094 -7.179688 4.957031 -7.179688 C 6.125 -7.179688 6.796875 -6.621094 6.796875 -5.003906 L 6.796875 0 L 8.042969 0 L 8.042969 -3.054688 C 8.042969 -5.804688 8.828125 -7.179688 10.570312 -7.179688 C 11.738281 -7.179688 12.394531 -6.621094 12.394531 -5.003906 L 12.394531 0 L 13.671875 0 L 13.671875 -5.148438 C 13.671875 -7.195312 12.792969 -8.253906 10.972656 -8.253906 Z M 10.972656 -8.253906 "/></g></g></g><g fill="#c01e3a" fill-opacity="1"><g transform="translate(241.285873, 340.579323)"><g><path d="M 5.4375 -8.253906 C 3.964844 -8.253906 2.957031 -7.597656 2.414062 -6.460938 L 2.414062 -7.996094 L 1.136719 -7.996094 L 1.136719 3.199219 L 2.414062 3.199219 L 2.414062 -1.519531 C 2.957031 -0.382812 3.964844 0.257812 5.4375 0.257812 C 7.949219 0.257812 9.101562 -1.535156 9.101562 -4 C 9.101562 -6.445312 7.949219 -8.253906 5.4375 -8.253906 Z M 5.179688 -0.785156 C 3.488281 -0.785156 2.414062 -1.742188 2.414062 -4 C 2.414062 -6.253906 3.488281 -7.210938 5.179688 -7.210938 C 7.003906 -7.210938 7.804688 -6.140625 7.804688 -4 C 7.804688 -1.839844 7.003906 -0.785156 5.179688 -0.785156 Z M 5.179688 -0.785156 "/></g></g></g><g fill="#c01e3a" fill-opacity="1"><g transform="translate(250.848512, 340.579323)"><g><path d="M 3.566406 0.207031 C 5.421875 0.207031 6.269531 -0.910156 6.574219 -1.871094 C 6.574219 -1.28125 6.621094 -0.6875 6.683594 0 L 7.851562 0 C 7.773438 -0.785156 7.757812 -1.40625 7.757812 -1.984375 L 7.757812 -5.820312 C 7.757812 -7.261719 6.765625 -8.269531 4.574219 -8.269531 C 2.367188 -8.269531 1.167969 -7.179688 1.121094 -5.484375 L 2.382812 -5.484375 C 2.460938 -6.523438 3.054688 -7.261719 4.621094 -7.261719 C 6.171875 -7.261719 6.589844 -6.636719 6.589844 -5.820312 C 6.589844 -5.214844 6.238281 -4.988281 5.390625 -4.847656 L 3.359375 -4.511719 C 1.632812 -4.222656 0.925781 -3.40625 0.925781 -2.109375 C 0.925781 -0.589844 2.03125 0.207031 3.566406 0.207031 Z M 3.820312 -0.800781 C 2.878906 -0.800781 2.222656 -1.246094 2.222656 -2.160156 C 2.222656 -3.023438 2.734375 -3.4375 3.820312 -3.664062 L 5.148438 -3.933594 C 5.757812 -4.0625 6.1875 -4.191406 6.589844 -4.476562 L 6.589844 -3.789062 C 6.589844 -2.269531 5.710938 -0.800781 3.820312 -0.800781 Z M 3.820312 -0.800781 "/></g></g></g><g fill="#c01e3a" fill-opacity="1"><g transform="translate(259.291776, 340.579323)"><g><path d="M 0.992188 -9.308594 L 2.640625 -9.308594 L 2.640625 -10.636719 L 0.992188 -10.636719 Z M 1.167969 0 L 2.445312 0 L 2.445312 -7.996094 L 1.167969 -7.996094 Z M 1.167969 0 "/></g></g></g><g fill="#c01e3a" fill-opacity="1"><g transform="translate(262.601873, 340.579323)"><g><path d="M 7.4375 -7.996094 L 7.4375 -6.621094 C 6.894531 -7.644531 5.917969 -8.21875 4.460938 -8.21875 C 1.949219 -8.21875 0.769531 -6.652344 0.769531 -4.207031 C 0.769531 -1.742188 1.949219 -0.175781 4.460938 -0.175781 C 5.902344 -0.175781 6.894531 -0.6875 7.4375 -1.726562 L 7.4375 0 C 7.4375 1.710938 6.652344 2.367188 4.765625 2.367188 C 2.992188 2.367188 2.320312 1.566406 2.222656 0.511719 L 0.960938 0.511719 C 1.101562 2.335938 2.382812 3.375 4.765625 3.375 C 7.675781 3.375 8.714844 2.144531 8.714844 0.015625 L 8.714844 -7.996094 Z M 4.765625 -1.183594 C 2.941406 -1.183594 2.078125 -2.046875 2.078125 -4.207031 C 2.078125 -6.363281 2.941406 -7.210938 4.765625 -7.210938 C 6.460938 -7.210938 7.4375 -6.363281 7.4375 -4.207031 C 7.4375 -2.03125 6.460938 -1.183594 4.765625 -1.183594 Z M 4.765625 -1.183594 "/></g></g></g><g fill="#c01e3a" fill-opacity="1"><g transform="translate(272.132536, 340.579323)"><g><path d="M 5.515625 -8.253906 C 3.933594 -8.253906 2.941406 -7.355469 2.445312 -5.902344 L 2.445312 -7.996094 L 1.167969 -7.996094 L 1.167969 0 L 2.445312 0 L 2.445312 -3.054688 C 2.445312 -5.804688 3.390625 -7.179688 5.164062 -7.179688 C 6.332031 -7.179688 7.085938 -6.667969 7.085938 -4.957031 L 7.085938 0 L 8.363281 0 L 8.363281 -5.101562 C 8.363281 -7.164062 7.515625 -8.253906 5.515625 -8.253906 Z M 5.515625 -8.253906 "/></g></g></g><g fill="#c01e3a" fill-opacity="1"><g transform="translate(281.183464, 340.579323)"><g><path d="M 0.609375 -2.671875 C 0.640625 -0.992188 1.695312 0.257812 4.300781 0.257812 C 6.429688 0.257812 7.566406 -0.542969 7.566406 -2.175781 C 7.566406 -3.488281 6.894531 -4.269531 5.054688 -4.542969 L 3.359375 -4.78125 C 2.351562 -4.925781 2.0625 -5.40625 2.0625 -5.964844 C 2.0625 -6.75 2.621094 -7.292969 3.980469 -7.292969 C 5.453125 -7.292969 6.0625 -6.539062 6.140625 -5.710938 L 7.40625 -5.710938 C 7.308594 -7.210938 6.109375 -8.269531 4.015625 -8.269531 C 2 -8.269531 0.816406 -7.355469 0.816406 -5.871094 C 0.816406 -4.636719 1.597656 -3.902344 2.992188 -3.710938 L 4.847656 -3.4375 C 5.851562 -3.292969 6.300781 -2.878906 6.300781 -2.109375 C 6.300781 -1.214844 5.742188 -0.71875 4.332031 -0.71875 C 2.496094 -0.71875 1.886719 -1.582031 1.792969 -2.671875 Z M 0.609375 -2.671875 "/></g></g></g><g fill="#c01e3a" fill-opacity="1"><g transform="translate(289.115005, 340.579323)"><g/></g></g><g fill="#c01e3a" fill-opacity="1"><g transform="translate(292.393114, 340.579323)"><g><path d="M 3.566406 0.207031 C 5.421875 0.207031 6.269531 -0.910156 6.574219 -1.871094 C 6.574219 -1.28125 6.621094 -0.6875 6.683594 0 L 7.851562 0 C 7.773438 -0.785156 7.757812 -1.40625 7.757812 -1.984375 L 7.757812 -5.820312 C 7.757812 -7.261719 6.765625 -8.269531 4.574219 -8.269531 C 2.367188 -8.269531 1.167969 -7.179688 1.121094 -5.484375 L 2.382812 -5.484375 C 2.460938 -6.523438 3.054688 -7.261719 4.621094 -7.261719 C 6.171875 -7.261719 6.589844 -6.636719 6.589844 -5.820312 C 6.589844 -5.214844 6.238281 -4.988281 5.390625 -4.847656 L 3.359375 -4.511719 C 1.632812 -4.222656 0.925781 -3.40625 0.925781 -2.109375 C 0.925781 -0.589844 2.03125 0.207031 3.566406 0.207031 Z M 3.820312 -0.800781 C 2.878906 -0.800781 2.222656 -1.246094 2.222656 -2.160156 C 2.222656 -3.023438 2.734375 -3.4375 3.820312 -3.664062 L 5.148438 -3.933594 C 5.757812 -4.0625 6.1875 -4.191406 6.589844 -4.476562 L 6.589844 -3.789062 C 6.589844 -2.269531 5.710938 -0.800781 3.820312 -0.800781 Z M 3.820312 -0.800781 "/></g></g></g><g fill="#c01e3a" fill-opacity="1"><g transform="translate(300.83639, 340.579323)"><g><path d="M 5.515625 -8.253906 C 3.933594 -8.253906 2.941406 -7.355469 2.445312 -5.902344 L 2.445312 -7.996094 L 1.167969 -7.996094 L 1.167969 0 L 2.445312 0 L 2.445312 -3.054688 C 2.445312 -5.804688 3.390625 -7.179688 5.164062 -7.179688 C 6.332031 -7.179688 7.085938 -6.667969 7.085938 -4.957031 L 7.085938 0 L 8.363281 0 L 8.363281 -5.101562 C 8.363281 -7.164062 7.515625 -8.253906 5.515625 -8.253906 Z M 5.515625 -8.253906 "/></g></g></g><g fill="#c01e3a" fill-opacity="1"><g transform="translate(309.887329, 340.579323)"><g><path d="M 7.46875 -11.195312 L 7.46875 -6.476562 C 6.925781 -7.613281 5.917969 -8.253906 4.445312 -8.253906 C 1.933594 -8.253906 0.785156 -6.460938 0.785156 -4 C 0.785156 -1.550781 1.933594 0.257812 4.445312 0.257812 C 5.917969 0.257812 6.925781 -0.398438 7.46875 -1.535156 L 7.46875 0 L 8.746094 0 L 8.746094 -11.195312 Z M 4.703125 -0.785156 C 2.878906 -0.785156 2.078125 -1.855469 2.078125 -4 C 2.078125 -6.15625 2.878906 -7.210938 4.703125 -7.210938 C 6.398438 -7.210938 7.46875 -6.253906 7.46875 -4 C 7.46875 -1.742188 6.398438 -0.785156 4.703125 -0.785156 Z M 4.703125 -0.785156 "/></g></g></g><g fill="#c01e3a" fill-opacity="1"><g transform="translate(102.723576, 360.823004)"><g><path d="M 5.4375 -8.253906 C 3.964844 -8.253906 2.957031 -7.613281 2.414062 -6.476562 L 2.414062 -11.195312 L 1.136719 -11.195312 L 1.136719 0 L 2.414062 0 L 2.414062 -1.535156 C 2.957031 -0.398438 3.964844 0.257812 5.4375 0.257812 C 7.949219 0.257812 9.101562 -1.550781 9.101562 -4 C 9.101562 -6.460938 7.949219 -8.253906 5.4375 -8.253906 Z M 5.179688 -0.785156 C 3.488281 -0.785156 2.414062 -1.742188 2.414062 -4 C 2.414062 -6.253906 3.488281 -7.210938 5.179688 -7.210938 C 7.003906 -7.210938 7.804688 -6.15625 7.804688 -4 C 7.804688 -1.855469 7.003906 -0.785156 5.179688 -0.785156 Z M 5.179688 -0.785156 "/></g></g></g><g fill="#c01e3a" fill-opacity="1"><g transform="translate(112.286217, 360.823004)"><g><path d="M 1.152344 0 L 2.429688 0 L 2.429688 -11.195312 L 1.152344 -11.195312 Z M 1.152344 0 "/></g></g></g><g fill="#c01e3a" fill-opacity="1"><g transform="translate(115.548345, 360.823004)"><g><path d="M 4.796875 0.257812 C 7.484375 0.257812 8.8125 -1.617188 8.8125 -4.015625 C 8.8125 -6.382812 7.484375 -8.253906 4.796875 -8.253906 C 2.09375 -8.253906 0.769531 -6.398438 0.769531 -4.015625 C 0.769531 -1.597656 2.09375 0.257812 4.796875 0.257812 Z M 2.0625 -4 C 2.0625 -6.253906 2.992188 -7.210938 4.796875 -7.210938 C 6.605469 -7.210938 7.515625 -6.253906 7.515625 -4 C 7.515625 -1.757812 6.605469 -0.785156 4.796875 -0.785156 C 2.992188 -0.785156 2.0625 -1.757812 2.0625 -4 Z M 2.0625 -4 "/></g></g></g><g fill="#c01e3a" fill-opacity="1"><g transform="translate(124.80716, 360.823004)"><g><path d="M 7.4375 -7.996094 L 7.4375 -6.621094 C 6.894531 -7.644531 5.917969 -8.21875 4.460938 -8.21875 C 1.949219 -8.21875 0.769531 -6.652344 0.769531 -4.207031 C 0.769531 -1.742188 1.949219 -0.175781 4.460938 -0.175781 C 5.902344 -0.175781 6.894531 -0.6875 7.4375 -1.726562 L 7.4375 0 C 7.4375 1.710938 6.652344 2.367188 4.765625 2.367188 C 2.992188 2.367188 2.320312 1.566406 2.222656 0.511719 L 0.960938 0.511719 C 1.101562 2.335938 2.382812 3.375 4.765625 3.375 C 7.675781 3.375 8.714844 2.144531 8.714844 0.015625 L 8.714844 -7.996094 Z M 4.765625 -1.183594 C 2.941406 -1.183594 2.078125 -2.046875 2.078125 -4.207031 C 2.078125 -6.363281 2.941406 -7.210938 4.765625 -7.210938 C 6.460938 -7.210938 7.4375 -6.363281 7.4375 -4.207031 C 7.4375 -2.03125 6.460938 -1.183594 4.765625 -1.183594 Z M 4.765625 -1.183594 "/></g></g></g><g fill="#c01e3a" fill-opacity="1"><g transform="translate(134.337824, 360.823004)"><g/></g></g><g fill="#c01e3a" fill-opacity="1"><g transform="translate(137.615936, 360.823004)"><g><path d="M 5.4375 -8.253906 C 3.964844 -8.253906 2.957031 -7.597656 2.414062 -6.460938 L 2.414062 -7.996094 L 1.136719 -7.996094 L 1.136719 3.199219 L 2.414062 3.199219 L 2.414062 -1.519531 C 2.957031 -0.382812 3.964844 0.257812 5.4375 0.257812 C 7.949219 0.257812 9.101562 -1.535156 9.101562 -4 C 9.101562 -6.445312 7.949219 -8.253906 5.4375 -8.253906 Z M 5.179688 -0.785156 C 3.488281 -0.785156 2.414062 -1.742188 2.414062 -4 C 2.414062 -6.253906 3.488281 -7.210938 5.179688 -7.210938 C 7.003906 -7.210938 7.804688 -6.140625 7.804688 -4 C 7.804688 -1.839844 7.003906 -0.785156 5.179688 -0.785156 Z M 5.179688 -0.785156 "/></g></g></g><g fill="#c01e3a" fill-opacity="1"><g transform="translate(147.178578, 360.823004)"><g><path d="M 4.796875 0.257812 C 7.484375 0.257812 8.8125 -1.617188 8.8125 -4.015625 C 8.8125 -6.382812 7.484375 -8.253906 4.796875 -8.253906 C 2.09375 -8.253906 0.769531 -6.398438 0.769531 -4.015625 C 0.769531 -1.597656 2.09375 0.257812 4.796875 0.257812 Z M 2.0625 -4 C 2.0625 -6.253906 2.992188 -7.210938 4.796875 -7.210938 C 6.605469 -7.210938 7.515625 -6.253906 7.515625 -4 C 7.515625 -1.757812 6.605469 -0.785156 4.796875 -0.785156 C 2.992188 -0.785156 2.0625 -1.757812 2.0625 -4 Z M 2.0625 -4 "/></g></g></g><g fill="#c01e3a" fill-opacity="1"><g transform="translate(156.437391, 360.823004)"><g><path d="M 0.609375 -2.671875 C 0.640625 -0.992188 1.695312 0.257812 4.300781 0.257812 C 6.429688 0.257812 7.566406 -0.542969 7.566406 -2.175781 C 7.566406 -3.488281 6.894531 -4.269531 5.054688 -4.542969 L 3.359375 -4.78125 C 2.351562 -4.925781 2.0625 -5.40625 2.0625 -5.964844 C 2.0625 -6.75 2.621094 -7.292969 3.980469 -7.292969 C 5.453125 -7.292969 6.0625 -6.539062 6.140625 -5.710938 L 7.40625 -5.710938 C 7.308594 -7.210938 6.109375 -8.269531 4.015625 -8.269531 C 2 -8.269531 0.816406 -7.355469 0.816406 -5.871094 C 0.816406 -4.636719 1.597656 -3.902344 2.992188 -3.710938 L 4.847656 -3.4375 C 5.851562 -3.292969 6.300781 -2.878906 6.300781 -2.109375 C 6.300781 -1.214844 5.742188 -0.71875 4.332031 -0.71875 C 2.496094 -0.71875 1.886719 -1.582031 1.792969 -2.671875 Z M 0.609375 -2.671875 "/></g></g></g><g fill="#c01e3a" fill-opacity="1"><g transform="translate(164.368932, 360.823004)"><g><path d="M 3.773438 0 L 5.660156 0 L 5.660156 -1.039062 L 3.117188 -1.039062 L 3.117188 -6.988281 L 5.757812 -6.988281 L 5.757812 -7.996094 L 3.117188 -7.996094 L 3.117188 -9.769531 L 2.429688 -9.769531 L 1.949219 -8.109375 L 0.320312 -7.707031 L 0.320312 -6.988281 L 1.839844 -6.988281 L 1.839844 -1.871094 C 1.839844 -0.589844 2.238281 0 3.773438 0 Z M 3.773438 0 "/></g></g></g><g fill="#c01e3a" fill-opacity="1"><g transform="translate(170.301574, 360.823004)"><g><path d="M 0.609375 -2.671875 C 0.640625 -0.992188 1.695312 0.257812 4.300781 0.257812 C 6.429688 0.257812 7.566406 -0.542969 7.566406 -2.175781 C 7.566406 -3.488281 6.894531 -4.269531 5.054688 -4.542969 L 3.359375 -4.78125 C 2.351562 -4.925781 2.0625 -5.40625 2.0625 -5.964844 C 2.0625 -6.75 2.621094 -7.292969 3.980469 -7.292969 C 5.453125 -7.292969 6.0625 -6.539062 6.140625 -5.710938 L 7.40625 -5.710938 C 7.308594 -7.210938 6.109375 -8.269531 4.015625 -8.269531 C 2 -8.269531 0.816406 -7.355469 0.816406 -5.871094 C 0.816406 -4.636719 1.597656 -3.902344 2.992188 -3.710938 L 4.847656 -3.4375 C 5.851562 -3.292969 6.300781 -2.878906 6.300781 -2.109375 C 6.300781 -1.214844 5.742188 -0.71875 4.332031 -0.71875 C 2.496094 -0.71875 1.886719 -1.582031 1.792969 -2.671875 Z M 0.609375 -2.671875 "/></g></g></g><g fill="#c01e3a" fill-opacity="1"><g transform="translate(178.233116, 360.823004)"><g><path d="M 0.335938 -0.0625 L 1.152344 -0.0625 L 1.152344 1.296875 L 0.335938 1.296875 L 0.335938 2.128906 L 0.671875 2.128906 C 1.582031 2.128906 1.984375 1.808594 1.984375 0.925781 L 1.984375 -1.40625 L 0.335938 -1.40625 Z M 0.335938 -0.0625 "/></g></g></g><g fill="#c01e3a" fill-opacity="1"><g transform="translate(180.231935, 360.823004)"><g/></g></g><g fill="#c01e3a" fill-opacity="1"><g transform="translate(183.510044, 360.823004)"><g><path d="M 12.3125 -7.996094 L 10.234375 -0.960938 L 7.707031 -7.996094 L 6.382812 -7.996094 L 3.855469 -0.960938 L 1.792969 -7.996094 L 0.449219 -7.996094 L 2.894531 0 L 4.71875 0 L 7.003906 -6.476562 L 9.308594 0 L 11.128906 0 L 13.5625 -7.996094 Z M 12.3125 -7.996094 "/></g></g></g><g fill="#c01e3a" fill-opacity="1"><g transform="translate(197.214392, 360.823004)"><g><path d="M 5.515625 -8.253906 C 3.933594 -8.253906 2.941406 -7.355469 2.445312 -5.902344 L 2.445312 -11.195312 L 1.167969 -11.195312 L 1.167969 0 L 2.445312 0 L 2.445312 -3.054688 C 2.445312 -5.804688 3.390625 -7.179688 5.164062 -7.179688 C 6.332031 -7.179688 7.085938 -6.667969 7.085938 -4.957031 L 7.085938 0 L 8.363281 0 L 8.363281 -5.101562 C 8.363281 -7.164062 7.515625 -8.253906 5.515625 -8.253906 Z M 5.515625 -8.253906 "/></g></g></g><g fill="#c01e3a" fill-opacity="1"><g transform="translate(206.265319, 360.823004)"><g><path d="M 0.992188 -9.308594 L 2.640625 -9.308594 L 2.640625 -10.636719 L 0.992188 -10.636719 Z M 1.167969 0 L 2.445312 0 L 2.445312 -7.996094 L 1.167969 -7.996094 Z M 1.167969 0 "/></g></g></g><g fill="#c01e3a" fill-opacity="1"><g transform="translate(209.575417, 360.823004)"><g><path d="M 0.769531 -4 C 0.769531 -1.550781 2.144531 0.257812 4.765625 0.257812 C 7.195312 0.257812 8.492188 -1.214844 8.589844 -3.054688 L 7.371094 -3.054688 C 7.210938 -1.695312 6.382812 -0.785156 4.765625 -0.785156 C 3.085938 -0.785156 2.0625 -1.679688 2.0625 -4 C 2.0625 -6.300781 3.117188 -7.210938 4.8125 -7.210938 C 6.300781 -7.210938 7.101562 -6.382812 7.292969 -5.070312 L 8.492188 -5.070312 C 8.363281 -6.925781 7.164062 -8.253906 4.765625 -8.253906 C 2.175781 -8.253906 0.769531 -6.445312 0.769531 -4 Z M 0.769531 -4 "/></g></g></g><g fill="#c01e3a" fill-opacity="1"><g transform="translate(218.514398, 360.823004)"><g><path d="M 5.515625 -8.253906 C 3.933594 -8.253906 2.941406 -7.355469 2.445312 -5.902344 L 2.445312 -11.195312 L 1.167969 -11.195312 L 1.167969 0 L 2.445312 0 L 2.445312 -3.054688 C 2.445312 -5.804688 3.390625 -7.179688 5.164062 -7.179688 C 6.332031 -7.179688 7.085938 -6.667969 7.085938 -4.957031 L 7.085938 0 L 8.363281 0 L 8.363281 -5.101562 C 8.363281 -7.164062 7.515625 -8.253906 5.515625 -8.253906 Z M 5.515625 -8.253906 "/></g></g></g><g fill="#c01e3a" fill-opacity="1"><g transform="translate(227.565326, 360.823004)"><g/></g></g><g fill="#c01e3a" fill-opacity="1"><g transform="translate(230.843435, 360.823004)"><g><path d="M 0.769531 -4 C 0.769531 -1.550781 2.144531 0.257812 4.765625 0.257812 C 7.195312 0.257812 8.492188 -1.214844 8.589844 -3.054688 L 7.371094 -3.054688 C 7.210938 -1.695312 6.382812 -0.785156 4.765625 -0.785156 C 3.085938 -0.785156 2.0625 -1.679688 2.0625 -4 C 2.0625 -6.300781 3.117188 -7.210938 4.8125 -7.210938 C 6.300781 -7.210938 7.101562 -6.382812 7.292969 -5.070312 L 8.492188 -5.070312 C 8.363281 -6.925781 7.164062 -8.253906 4.765625 -8.253906 C 2.175781 -8.253906 0.769531 -6.445312 0.769531 -4 Z M 0.769531 -4 "/></g></g></g><g fill="#c01e3a" fill-opacity="1"><g transform="translate(239.782417, 360.823004)"><g><path d="M 3.566406 0.207031 C 5.421875 0.207031 6.269531 -0.910156 6.574219 -1.871094 C 6.574219 -1.28125 6.621094 -0.6875 6.683594 0 L 7.851562 0 C 7.773438 -0.785156 7.757812 -1.40625 7.757812 -1.984375 L 7.757812 -5.820312 C 7.757812 -7.261719 6.765625 -8.269531 4.574219 -8.269531 C 2.367188 -8.269531 1.167969 -7.179688 1.121094 -5.484375 L 2.382812 -5.484375 C 2.460938 -6.523438 3.054688 -7.261719 4.621094 -7.261719 C 6.171875 -7.261719 6.589844 -6.636719 6.589844 -5.820312 C 6.589844 -5.214844 6.238281 -4.988281 5.390625 -4.847656 L 3.359375 -4.511719 C 1.632812 -4.222656 0.925781 -3.40625 0.925781 -2.109375 C 0.925781 -0.589844 2.03125 0.207031 3.566406 0.207031 Z M 3.820312 -0.800781 C 2.878906 -0.800781 2.222656 -1.246094 2.222656 -2.160156 C 2.222656 -3.023438 2.734375 -3.4375 3.820312 -3.664062 L 5.148438 -3.933594 C 5.757812 -4.0625 6.1875 -4.191406 6.589844 -4.476562 L 6.589844 -3.789062 C 6.589844 -2.269531 5.710938 -0.800781 3.820312 -0.800781 Z M 3.820312 -0.800781 "/></g></g></g><g fill="#c01e3a" fill-opacity="1"><g transform="translate(248.225682, 360.823004)"><g><path d="M 5.515625 -8.253906 C 3.933594 -8.253906 2.941406 -7.355469 2.445312 -5.902344 L 2.445312 -7.996094 L 1.167969 -7.996094 L 1.167969 0 L 2.445312 0 L 2.445312 -3.054688 C 2.445312 -5.804688 3.390625 -7.179688 5.164062 -7.179688 C 6.332031 -7.179688 7.085938 -6.667969 7.085938 -4.957031 L 7.085938 0 L 8.363281 0 L 8.363281 -5.101562 C 8.363281 -7.164062 7.515625 -8.253906 5.515625 -8.253906 Z M 5.515625 -8.253906 "/></g></g></g><g fill="#c01e3a" fill-opacity="1"><g transform="translate(257.276609, 360.823004)"><g/></g></g><g fill="#c01e3a" fill-opacity="1"><g transform="translate(260.554718, 360.823004)"><g><path d="M 5.515625 -8.253906 C 3.933594 -8.253906 2.941406 -7.355469 2.445312 -5.902344 L 2.445312 -11.195312 L 1.167969 -11.195312 L 1.167969 0 L 2.445312 0 L 2.445312 -3.054688 C 2.445312 -5.804688 3.390625 -7.179688 5.164062 -7.179688 C 6.332031 -7.179688 7.085938 -6.667969 7.085938 -4.957031 L 7.085938 0 L 8.363281 0 L 8.363281 -5.101562 C 8.363281 -7.164062 7.515625 -8.253906 5.515625 -8.253906 Z M 5.515625 -8.253906 "/></g></g></g><g fill="#c01e3a" fill-opacity="1"><g transform="translate(269.605646, 360.823004)"><g><path d="M 4.78125 -0.71875 C 3.183594 -0.71875 2.128906 -1.519531 2.03125 -3.710938 L 8.460938 -3.710938 C 8.492188 -3.902344 8.492188 -4.0625 8.492188 -4.269531 C 8.492188 -6.605469 7.132812 -8.253906 4.734375 -8.253906 C 2.078125 -8.253906 0.769531 -6.398438 0.769531 -4.015625 C 0.769531 -1.597656 1.984375 0.257812 4.734375 0.257812 C 7.386719 0.257812 8.316406 -1.246094 8.476562 -2.460938 L 7.308594 -2.460938 C 7.070312 -1.457031 6.347656 -0.71875 4.78125 -0.71875 Z M 4.75 -7.277344 C 6.238281 -7.277344 7.179688 -6.507812 7.246094 -4.667969 L 2.0625 -4.667969 C 2.238281 -6.558594 3.230469 -7.277344 4.75 -7.277344 Z M 4.75 -7.277344 "/></g></g></g><g fill="#c01e3a" fill-opacity="1"><g transform="translate(278.496658, 360.823004)"><g><path d="M 1.152344 0 L 2.429688 0 L 2.429688 -11.195312 L 1.152344 -11.195312 Z M 1.152344 0 "/></g></g></g><g fill="#c01e3a" fill-opacity="1"><g transform="translate(281.758785, 360.823004)"><g><path d="M 5.4375 -8.253906 C 3.964844 -8.253906 2.957031 -7.597656 2.414062 -6.460938 L 2.414062 -7.996094 L 1.136719 -7.996094 L 1.136719 3.199219 L 2.414062 3.199219 L 2.414062 -1.519531 C 2.957031 -0.382812 3.964844 0.257812 5.4375 0.257812 C 7.949219 0.257812 9.101562 -1.535156 9.101562 -4 C 9.101562 -6.445312 7.949219 -8.253906 5.4375 -8.253906 Z M 5.179688 -0.785156 C 3.488281 -0.785156 2.414062 -1.742188 2.414062 -4 C 2.414062 -6.253906 3.488281 -7.210938 5.179688 -7.210938 C 7.003906 -7.210938 7.804688 -6.140625 7.804688 -4 C 7.804688 -1.839844 7.003906 -0.785156 5.179688 -0.785156 Z M 5.179688 -0.785156 "/></g></g></g><g fill="#c01e3a" fill-opacity="1"><g transform="translate(291.321424, 360.823004)"><g/></g></g><g fill="#c01e3a" fill-opacity="1"><g transform="translate(294.599533, 360.823004)"><g><path d="M 7.230469 -7.996094 L 4.75 -1.839844 L 4.511719 -1.070312 L 4.238281 -1.839844 L 1.792969 -7.996094 L 0.449219 -7.996094 L 3.613281 0 L 4.0625 0 L 3.183594 2.160156 L 0.960938 2.160156 L 0.960938 3.199219 L 2.480469 3.199219 C 3.917969 3.199219 4.238281 2.605469 4.734375 1.328125 L 8.492188 -7.996094 Z M 7.230469 -7.996094 "/></g></g></g><g fill="#c01e3a" fill-opacity="1"><g transform="translate(303.170737, 360.823004)"><g><path d="M 4.796875 0.257812 C 7.484375 0.257812 8.8125 -1.617188 8.8125 -4.015625 C 8.8125 -6.382812 7.484375 -8.253906 4.796875 -8.253906 C 2.09375 -8.253906 0.769531 -6.398438 0.769531 -4.015625 C 0.769531 -1.597656 2.09375 0.257812 4.796875 0.257812 Z M 2.0625 -4 C 2.0625 -6.253906 2.992188 -7.210938 4.796875 -7.210938 C 6.605469 -7.210938 7.515625 -6.253906 7.515625 -4 C 7.515625 -1.757812 6.605469 -0.785156 4.796875 -0.785156 C 2.992188 -0.785156 2.0625 -1.757812 2.0625 -4 Z M 2.0625 -4 "/></g></g></g><g fill="#c01e3a" fill-opacity="1"><g transform="translate(312.42955, 360.823004)"><g><path d="M 6.910156 -7.996094 L 6.910156 -4.941406 C 6.910156 -2.285156 5.964844 -0.800781 4.300781 -0.800781 C 3.070312 -0.800781 2.285156 -1.261719 2.285156 -3.039062 L 2.285156 -7.996094 L 1.007812 -7.996094 L 1.007812 -2.894531 C 1.007812 -0.800781 1.917969 0.257812 3.933594 0.257812 C 5.484375 0.257812 6.429688 -0.609375 6.910156 -2.03125 L 6.910156 0 L 8.1875 0 L 8.1875 -7.996094 Z M 6.910156 -7.996094 "/></g></g></g><g fill="#c01e3a" fill-opacity="1"><g transform="translate(105.008019, 381.066684)"><g><path d="M 7.4375 -7.996094 L 7.4375 -6.621094 C 6.894531 -7.644531 5.917969 -8.21875 4.460938 -8.21875 C 1.949219 -8.21875 0.769531 -6.652344 0.769531 -4.207031 C 0.769531 -1.742188 1.949219 -0.175781 4.460938 -0.175781 C 5.902344 -0.175781 6.894531 -0.6875 7.4375 -1.726562 L 7.4375 0 C 7.4375 1.710938 6.652344 2.367188 4.765625 2.367188 C 2.992188 2.367188 2.320312 1.566406 2.222656 0.511719 L 0.960938 0.511719 C 1.101562 2.335938 2.382812 3.375 4.765625 3.375 C 7.675781 3.375 8.714844 2.144531 8.714844 0.015625 L 8.714844 -7.996094 Z M 4.765625 -1.183594 C 2.941406 -1.183594 2.078125 -2.046875 2.078125 -4.207031 C 2.078125 -6.363281 2.941406 -7.210938 4.765625 -7.210938 C 6.460938 -7.210938 7.4375 -6.363281 7.4375 -4.207031 C 7.4375 -2.03125 6.460938 -1.183594 4.765625 -1.183594 Z M 4.765625 -1.183594 "/></g></g></g><g fill="#c01e3a" fill-opacity="1"><g transform="translate(114.538683, 381.066684)"><g><path d="M 3.566406 0.207031 C 5.421875 0.207031 6.269531 -0.910156 6.574219 -1.871094 C 6.574219 -1.28125 6.621094 -0.6875 6.683594 0 L 7.851562 0 C 7.773438 -0.785156 7.757812 -1.40625 7.757812 -1.984375 L 7.757812 -5.820312 C 7.757812 -7.261719 6.765625 -8.269531 4.574219 -8.269531 C 2.367188 -8.269531 1.167969 -7.179688 1.121094 -5.484375 L 2.382812 -5.484375 C 2.460938 -6.523438 3.054688 -7.261719 4.621094 -7.261719 C 6.171875 -7.261719 6.589844 -6.636719 6.589844 -5.820312 C 6.589844 -5.214844 6.238281 -4.988281 5.390625 -4.847656 L 3.359375 -4.511719 C 1.632812 -4.222656 0.925781 -3.40625 0.925781 -2.109375 C 0.925781 -0.589844 2.03125 0.207031 3.566406 0.207031 Z M 3.820312 -0.800781 C 2.878906 -0.800781 2.222656 -1.246094 2.222656 -2.160156 C 2.222656 -3.023438 2.734375 -3.4375 3.820312 -3.664062 L 5.148438 -3.933594 C 5.757812 -4.0625 6.1875 -4.191406 6.589844 -4.476562 L 6.589844 -3.789062 C 6.589844 -2.269531 5.710938 -0.800781 3.820312 -0.800781 Z M 3.820312 -0.800781 "/></g></g></g><g fill="#c01e3a" fill-opacity="1"><g transform="translate(122.981949, 381.066684)"><g><path d="M 0.992188 -9.308594 L 2.640625 -9.308594 L 2.640625 -10.636719 L 0.992188 -10.636719 Z M 1.167969 0 L 2.445312 0 L 2.445312 -7.996094 L 1.167969 -7.996094 Z M 1.167969 0 "/></g></g></g><g fill="#c01e3a" fill-opacity="1"><g transform="translate(126.292048, 381.066684)"><g><path d="M 5.515625 -8.253906 C 3.933594 -8.253906 2.941406 -7.355469 2.445312 -5.902344 L 2.445312 -7.996094 L 1.167969 -7.996094 L 1.167969 0 L 2.445312 0 L 2.445312 -3.054688 C 2.445312 -5.804688 3.390625 -7.179688 5.164062 -7.179688 C 6.332031 -7.179688 7.085938 -6.667969 7.085938 -4.957031 L 7.085938 0 L 8.363281 0 L 8.363281 -5.101562 C 8.363281 -7.164062 7.515625 -8.253906 5.515625 -8.253906 Z M 5.515625 -8.253906 "/></g></g></g><g fill="#c01e3a" fill-opacity="1"><g transform="translate(135.342976, 381.066684)"><g/></g></g><g fill="#c01e3a" fill-opacity="1"><g transform="translate(138.621089, 381.066684)"><g><path d="M 10.972656 -8.253906 C 9.371094 -8.253906 8.445312 -7.40625 7.980469 -5.996094 C 7.757812 -7.484375 6.910156 -8.253906 5.359375 -8.253906 C 3.820312 -8.253906 2.910156 -7.40625 2.445312 -6.027344 L 2.445312 -7.996094 L 1.167969 -7.996094 L 1.167969 0 L 2.445312 0 L 2.445312 -3.054688 C 2.445312 -5.804688 3.246094 -7.179688 4.957031 -7.179688 C 6.125 -7.179688 6.796875 -6.621094 6.796875 -5.003906 L 6.796875 0 L 8.042969 0 L 8.042969 -3.054688 C 8.042969 -5.804688 8.828125 -7.179688 10.570312 -7.179688 C 11.738281 -7.179688 12.394531 -6.621094 12.394531 -5.003906 L 12.394531 0 L 13.671875 0 L 13.671875 -5.148438 C 13.671875 -7.195312 12.792969 -8.253906 10.972656 -8.253906 Z M 10.972656 -8.253906 "/></g></g></g><g fill="#c01e3a" fill-opacity="1"><g transform="translate(152.981084, 381.066684)"><g><path d="M 4.796875 0.257812 C 7.484375 0.257812 8.8125 -1.617188 8.8125 -4.015625 C 8.8125 -6.382812 7.484375 -8.253906 4.796875 -8.253906 C 2.09375 -8.253906 0.769531 -6.398438 0.769531 -4.015625 C 0.769531 -1.597656 2.09375 0.257812 4.796875 0.257812 Z M 2.0625 -4 C 2.0625 -6.253906 2.992188 -7.210938 4.796875 -7.210938 C 6.605469 -7.210938 7.515625 -6.253906 7.515625 -4 C 7.515625 -1.757812 6.605469 -0.785156 4.796875 -0.785156 C 2.992188 -0.785156 2.0625 -1.757812 2.0625 -4 Z M 2.0625 -4 "/></g></g></g><g fill="#c01e3a" fill-opacity="1"><g transform="translate(162.239897, 381.066684)"><g><path d="M 5.375 -8.109375 C 3.855469 -8.109375 2.925781 -7.210938 2.445312 -5.886719 L 2.445312 -7.996094 L 1.167969 -7.996094 L 1.167969 0 L 2.445312 0 L 2.445312 -2.941406 C 2.445312 -5.199219 2.957031 -6.925781 5.324219 -6.84375 L 5.660156 -6.84375 L 5.660156 -8.109375 Z M 5.375 -8.109375 "/></g></g></g><g fill="#c01e3a" fill-opacity="1"><g transform="translate(168.076599, 381.066684)"><g><path d="M 4.78125 -0.71875 C 3.183594 -0.71875 2.128906 -1.519531 2.03125 -3.710938 L 8.460938 -3.710938 C 8.492188 -3.902344 8.492188 -4.0625 8.492188 -4.269531 C 8.492188 -6.605469 7.132812 -8.253906 4.734375 -8.253906 C 2.078125 -8.253906 0.769531 -6.398438 0.769531 -4.015625 C 0.769531 -1.597656 1.984375 0.257812 4.734375 0.257812 C 7.386719 0.257812 8.316406 -1.246094 8.476562 -2.460938 L 7.308594 -2.460938 C 7.070312 -1.457031 6.347656 -0.71875 4.78125 -0.71875 Z M 4.75 -7.277344 C 6.238281 -7.277344 7.179688 -6.507812 7.246094 -4.667969 L 2.0625 -4.667969 C 2.238281 -6.558594 3.230469 -7.277344 4.75 -7.277344 Z M 4.75 -7.277344 "/></g></g></g><g fill="#c01e3a" fill-opacity="1"><g transform="translate(176.96761, 381.066684)"><g/></g></g><g fill="#c01e3a" fill-opacity="1"><g transform="translate(180.24572, 381.066684)"><g><path d="M 1.839844 0 L 3.117188 0 L 3.117188 -6.988281 L 5.453125 -6.988281 L 5.453125 -7.996094 L 3.023438 -7.996094 L 3.023438 -10.21875 L 5.902344 -10.21875 L 5.902344 -11.195312 L 3.871094 -11.195312 C 2.335938 -11.195312 1.839844 -10.652344 1.839844 -9.578125 L 1.839844 -8.042969 L 0.496094 -7.707031 L 0.496094 -6.988281 L 1.839844 -6.988281 Z M 1.839844 0 "/></g></g></g><g fill="#c01e3a" fill-opacity="1"><g transform="translate(185.826566, 381.066684)"><g><path d="M 4.796875 0.257812 C 7.484375 0.257812 8.8125 -1.617188 8.8125 -4.015625 C 8.8125 -6.382812 7.484375 -8.253906 4.796875 -8.253906 C 2.09375 -8.253906 0.769531 -6.398438 0.769531 -4.015625 C 0.769531 -1.597656 2.09375 0.257812 4.796875 0.257812 Z M 2.0625 -4 C 2.0625 -6.253906 2.992188 -7.210938 4.796875 -7.210938 C 6.605469 -7.210938 7.515625 -6.253906 7.515625 -4 C 7.515625 -1.757812 6.605469 -0.785156 4.796875 -0.785156 C 2.992188 -0.785156 2.0625 -1.757812 2.0625 -4 Z M 2.0625 -4 "/></g></g></g><g fill="#c01e3a" fill-opacity="1"><g transform="translate(195.085379, 381.066684)"><g><path d="M 1.152344 0 L 2.429688 0 L 2.429688 -11.195312 L 1.152344 -11.195312 Z M 1.152344 0 "/></g></g></g><g fill="#c01e3a" fill-opacity="1"><g transform="translate(198.347506, 381.066684)"><g><path d="M 1.152344 0 L 2.429688 0 L 2.429688 -11.195312 L 1.152344 -11.195312 Z M 1.152344 0 "/></g></g></g><g fill="#c01e3a" fill-opacity="1"><g transform="translate(201.609633, 381.066684)"><g><path d="M 4.796875 0.257812 C 7.484375 0.257812 8.8125 -1.617188 8.8125 -4.015625 C 8.8125 -6.382812 7.484375 -8.253906 4.796875 -8.253906 C 2.09375 -8.253906 0.769531 -6.398438 0.769531 -4.015625 C 0.769531 -1.597656 2.09375 0.257812 4.796875 0.257812 Z M 2.0625 -4 C 2.0625 -6.253906 2.992188 -7.210938 4.796875 -7.210938 C 6.605469 -7.210938 7.515625 -6.253906 7.515625 -4 C 7.515625 -1.757812 6.605469 -0.785156 4.796875 -0.785156 C 2.992188 -0.785156 2.0625 -1.757812 2.0625 -4 Z M 2.0625 -4 "/></g></g></g><g fill="#c01e3a" fill-opacity="1"><g transform="translate(210.868446, 381.066684)"><g><path d="M 12.3125 -7.996094 L 10.234375 -0.960938 L 7.707031 -7.996094 L 6.382812 -7.996094 L 3.855469 -0.960938 L 1.792969 -7.996094 L 0.449219 -7.996094 L 2.894531 0 L 4.71875 0 L 7.003906 -6.476562 L 9.308594 0 L 11.128906 0 L 13.5625 -7.996094 Z M 12.3125 -7.996094 "/></g></g></g><g fill="#c01e3a" fill-opacity="1"><g transform="translate(224.572794, 381.066684)"><g><path d="M 4.78125 -0.71875 C 3.183594 -0.71875 2.128906 -1.519531 2.03125 -3.710938 L 8.460938 -3.710938 C 8.492188 -3.902344 8.492188 -4.0625 8.492188 -4.269531 C 8.492188 -6.605469 7.132812 -8.253906 4.734375 -8.253906 C 2.078125 -8.253906 0.769531 -6.398438 0.769531 -4.015625 C 0.769531 -1.597656 1.984375 0.257812 4.734375 0.257812 C 7.386719 0.257812 8.316406 -1.246094 8.476562 -2.460938 L 7.308594 -2.460938 C 7.070312 -1.457031 6.347656 -0.71875 4.78125 -0.71875 Z M 4.75 -7.277344 C 6.238281 -7.277344 7.179688 -6.507812 7.246094 -4.667969 L 2.0625 -4.667969 C 2.238281 -6.558594 3.230469 -7.277344 4.75 -7.277344 Z M 4.75 -7.277344 "/></g></g></g><g fill="#c01e3a" fill-opacity="1"><g transform="translate(233.463806, 381.066684)"><g><path d="M 5.375 -8.109375 C 3.855469 -8.109375 2.925781 -7.210938 2.445312 -5.886719 L 2.445312 -7.996094 L 1.167969 -7.996094 L 1.167969 0 L 2.445312 0 L 2.445312 -2.941406 C 2.445312 -5.199219 2.957031 -6.925781 5.324219 -6.84375 L 5.660156 -6.84375 L 5.660156 -8.109375 Z M 5.375 -8.109375 "/></g></g></g><g fill="#c01e3a" fill-opacity="1"><g transform="translate(239.300508, 381.066684)"><g><path d="M 0.609375 -2.671875 C 0.640625 -0.992188 1.695312 0.257812 4.300781 0.257812 C 6.429688 0.257812 7.566406 -0.542969 7.566406 -2.175781 C 7.566406 -3.488281 6.894531 -4.269531 5.054688 -4.542969 L 3.359375 -4.78125 C 2.351562 -4.925781 2.0625 -5.40625 2.0625 -5.964844 C 2.0625 -6.75 2.621094 -7.292969 3.980469 -7.292969 C 5.453125 -7.292969 6.0625 -6.539062 6.140625 -5.710938 L 7.40625 -5.710938 C 7.308594 -7.210938 6.109375 -8.269531 4.015625 -8.269531 C 2 -8.269531 0.816406 -7.355469 0.816406 -5.871094 C 0.816406 -4.636719 1.597656 -3.902344 2.992188 -3.710938 L 4.847656 -3.4375 C 5.851562 -3.292969 6.300781 -2.878906 6.300781 -2.109375 C 6.300781 -1.214844 5.742188 -0.71875 4.332031 -0.71875 C 2.496094 -0.71875 1.886719 -1.582031 1.792969 -2.671875 Z M 0.609375 -2.671875 "/></g></g></g><g fill="#c01e3a" fill-opacity="1"><g transform="translate(247.232049, 381.066684)"><g/></g></g><g fill="#c01e3a" fill-opacity="1"><g transform="translate(250.510159, 381.066684)"><g><path d="M 3.566406 0.207031 C 5.421875 0.207031 6.269531 -0.910156 6.574219 -1.871094 C 6.574219 -1.28125 6.621094 -0.6875 6.683594 0 L 7.851562 0 C 7.773438 -0.785156 7.757812 -1.40625 7.757812 -1.984375 L 7.757812 -5.820312 C 7.757812 -7.261719 6.765625 -8.269531 4.574219 -8.269531 C 2.367188 -8.269531 1.167969 -7.179688 1.121094 -5.484375 L 2.382812 -5.484375 C 2.460938 -6.523438 3.054688 -7.261719 4.621094 -7.261719 C 6.171875 -7.261719 6.589844 -6.636719 6.589844 -5.820312 C 6.589844 -5.214844 6.238281 -4.988281 5.390625 -4.847656 L 3.359375 -4.511719 C 1.632812 -4.222656 0.925781 -3.40625 0.925781 -2.109375 C 0.925781 -0.589844 2.03125 0.207031 3.566406 0.207031 Z M 3.820312 -0.800781 C 2.878906 -0.800781 2.222656 -1.246094 2.222656 -2.160156 C 2.222656 -3.023438 2.734375 -3.4375 3.820312 -3.664062 L 5.148438 -3.933594 C 5.757812 -4.0625 6.1875 -4.191406 6.589844 -4.476562 L 6.589844 -3.789062 C 6.589844 -2.269531 5.710938 -0.800781 3.820312 -0.800781 Z M 3.820312 -0.800781 "/></g></g></g><g fill="#c01e3a" fill-opacity="1"><g transform="translate(258.953423, 381.066684)"><g><path d="M 5.515625 -8.253906 C 3.933594 -8.253906 2.941406 -7.355469 2.445312 -5.902344 L 2.445312 -7.996094 L 1.167969 -7.996094 L 1.167969 0 L 2.445312 0 L 2.445312 -3.054688 C 2.445312 -5.804688 3.390625 -7.179688 5.164062 -7.179688 C 6.332031 -7.179688 7.085938 -6.667969 7.085938 -4.957031 L 7.085938 0 L 8.363281 0 L 8.363281 -5.101562 C 8.363281 -7.164062 7.515625 -8.253906 5.515625 -8.253906 Z M 5.515625 -8.253906 "/></g></g></g><g fill="#c01e3a" fill-opacity="1"><g transform="translate(268.00435, 381.066684)"><g><path d="M 7.46875 -11.195312 L 7.46875 -6.476562 C 6.925781 -7.613281 5.917969 -8.253906 4.445312 -8.253906 C 1.933594 -8.253906 0.785156 -6.460938 0.785156 -4 C 0.785156 -1.550781 1.933594 0.257812 4.445312 0.257812 C 5.917969 0.257812 6.925781 -0.398438 7.46875 -1.535156 L 7.46875 0 L 8.746094 0 L 8.746094 -11.195312 Z M 4.703125 -0.785156 C 2.878906 -0.785156 2.078125 -1.855469 2.078125 -4 C 2.078125 -6.15625 2.878906 -7.210938 4.703125 -7.210938 C 6.398438 -7.210938 7.46875 -6.253906 7.46875 -4 C 7.46875 -1.742188 6.398438 -0.785156 4.703125 -0.785156 Z M 4.703125 -0.785156 "/></g></g></g><g fill="#c01e3a" fill-opacity="1"><g transform="translate(277.566989, 381.066684)"><g/></g></g><g fill="#c01e3a" fill-opacity="1"><g transform="translate(280.845099, 381.066684)"><g><path d="M 7.4375 -7.996094 L 7.4375 -6.621094 C 6.894531 -7.644531 5.917969 -8.21875 4.460938 -8.21875 C 1.949219 -8.21875 0.769531 -6.652344 0.769531 -4.207031 C 0.769531 -1.742188 1.949219 -0.175781 4.460938 -0.175781 C 5.902344 -0.175781 6.894531 -0.6875 7.4375 -1.726562 L 7.4375 0 C 7.4375 1.710938 6.652344 2.367188 4.765625 2.367188 C 2.992188 2.367188 2.320312 1.566406 2.222656 0.511719 L 0.960938 0.511719 C 1.101562 2.335938 2.382812 3.375 4.765625 3.375 C 7.675781 3.375 8.714844 2.144531 8.714844 0.015625 L 8.714844 -7.996094 Z M 4.765625 -1.183594 C 2.941406 -1.183594 2.078125 -2.046875 2.078125 -4.207031 C 2.078125 -6.363281 2.941406 -7.210938 4.765625 -7.210938 C 6.460938 -7.210938 7.4375 -6.363281 7.4375 -4.207031 C 7.4375 -2.03125 6.460938 -1.183594 4.765625 -1.183594 Z M 4.765625 -1.183594 "/></g></g></g><g fill="#c01e3a" fill-opacity="1"><g transform="translate(290.375761, 381.066684)"><g><path d="M 5.375 -8.109375 C 3.855469 -8.109375 2.925781 -7.210938 2.445312 -5.886719 L 2.445312 -7.996094 L 1.167969 -7.996094 L 1.167969 0 L 2.445312 0 L 2.445312 -2.941406 C 2.445312 -5.199219 2.957031 -6.925781 5.324219 -6.84375 L 5.660156 -6.84375 L 5.660156 -8.109375 Z M 5.375 -8.109375 "/></g></g></g><g fill="#c01e3a" fill-opacity="1"><g transform="translate(296.212463, 381.066684)"><g><path d="M 4.796875 0.257812 C 7.484375 0.257812 8.8125 -1.617188 8.8125 -4.015625 C 8.8125 -6.382812 7.484375 -8.253906 4.796875 -8.253906 C 2.09375 -8.253906 0.769531 -6.398438 0.769531 -4.015625 C 0.769531 -1.597656 2.09375 0.257812 4.796875 0.257812 Z M 2.0625 -4 C 2.0625 -6.253906 2.992188 -7.210938 4.796875 -7.210938 C 6.605469 -7.210938 7.515625 -6.253906 7.515625 -4 C 7.515625 -1.757812 6.605469 -0.785156 4.796875 -0.785156 C 2.992188 -0.785156 2.0625 -1.757812 2.0625 -4 Z M 2.0625 -4 "/></g></g></g><g fill="#c01e3a" fill-opacity="1"><g transform="translate(305.471288, 381.066684)"><g><path d="M 12.3125 -7.996094 L 10.234375 -0.960938 L 7.707031 -7.996094 L 6.382812 -7.996094 L 3.855469 -0.960938 L 1.792969 -7.996094 L 0.449219 -7.996094 L 2.894531 0 L 4.71875 0 L 7.003906 -6.476562 L 9.308594 0 L 11.128906 0 L 13.5625 -7.996094 Z M 12.3125 -7.996094 "/></g></g></g><g fill="#c01e3a" fill-opacity="1"><g transform="translate(138.478039, 401.310364)"><g><path d="M 7.230469 -7.996094 L 4.75 -1.839844 L 4.511719 -1.070312 L 4.238281 -1.839844 L 1.792969 -7.996094 L 0.449219 -7.996094 L 3.613281 0 L 4.0625 0 L 3.183594 2.160156 L 0.960938 2.160156 L 0.960938 3.199219 L 2.480469 3.199219 C 3.917969 3.199219 4.238281 2.605469 4.734375 1.328125 L 8.492188 -7.996094 Z M 7.230469 -7.996094 "/></g></g></g><g fill="#c01e3a" fill-opacity="1"><g transform="translate(147.049233, 401.310364)"><g><path d="M 4.796875 0.257812 C 7.484375 0.257812 8.8125 -1.617188 8.8125 -4.015625 C 8.8125 -6.382812 7.484375 -8.253906 4.796875 -8.253906 C 2.09375 -8.253906 0.769531 -6.398438 0.769531 -4.015625 C 0.769531 -1.597656 2.09375 0.257812 4.796875 0.257812 Z M 2.0625 -4 C 2.0625 -6.253906 2.992188 -7.210938 4.796875 -7.210938 C 6.605469 -7.210938 7.515625 -6.253906 7.515625 -4 C 7.515625 -1.757812 6.605469 -0.785156 4.796875 -0.785156 C 2.992188 -0.785156 2.0625 -1.757812 2.0625 -4 Z M 2.0625 -4 "/></g></g></g><g fill="#c01e3a" fill-opacity="1"><g transform="translate(156.308047, 401.310364)"><g><path d="M 6.910156 -7.996094 L 6.910156 -4.941406 C 6.910156 -2.285156 5.964844 -0.800781 4.300781 -0.800781 C 3.070312 -0.800781 2.285156 -1.261719 2.285156 -3.039062 L 2.285156 -7.996094 L 1.007812 -7.996094 L 1.007812 -2.894531 C 1.007812 -0.800781 1.917969 0.257812 3.933594 0.257812 C 5.484375 0.257812 6.429688 -0.609375 6.910156 -2.03125 L 6.910156 0 L 8.1875 0 L 8.1875 -7.996094 Z M 6.910156 -7.996094 "/></g></g></g><g fill="#c01e3a" fill-opacity="1"><g transform="translate(165.342984, 401.310364)"><g><path d="M 5.375 -8.109375 C 3.855469 -8.109375 2.925781 -7.210938 2.445312 -5.886719 L 2.445312 -7.996094 L 1.167969 -7.996094 L 1.167969 0 L 2.445312 0 L 2.445312 -2.941406 C 2.445312 -5.199219 2.957031 -6.925781 5.324219 -6.84375 L 5.660156 -6.84375 L 5.660156 -8.109375 Z M 5.375 -8.109375 "/></g></g></g><g fill="#c01e3a" fill-opacity="1"><g transform="translate(171.179689, 401.310364)"><g/></g></g><g fill="#c01e3a" fill-opacity="1"><g transform="translate(174.457801, 401.310364)"><g><path d="M 5.4375 -8.253906 C 3.964844 -8.253906 2.957031 -7.597656 2.414062 -6.460938 L 2.414062 -7.996094 L 1.136719 -7.996094 L 1.136719 3.199219 L 2.414062 3.199219 L 2.414062 -1.519531 C 2.957031 -0.382812 3.964844 0.257812 5.4375 0.257812 C 7.949219 0.257812 9.101562 -1.535156 9.101562 -4 C 9.101562 -6.445312 7.949219 -8.253906 5.4375 -8.253906 Z M 5.179688 -0.785156 C 3.488281 -0.785156 2.414062 -1.742188 2.414062 -4 C 2.414062 -6.253906 3.488281 -7.210938 5.179688 -7.210938 C 7.003906 -7.210938 7.804688 -6.140625 7.804688 -4 C 7.804688 -1.839844 7.003906 -0.785156 5.179688 -0.785156 Z M 5.179688 -0.785156 "/></g></g></g><g fill="#c01e3a" fill-opacity="1"><g transform="translate(184.02044, 401.310364)"><g><path d="M 4.78125 -0.71875 C 3.183594 -0.71875 2.128906 -1.519531 2.03125 -3.710938 L 8.460938 -3.710938 C 8.492188 -3.902344 8.492188 -4.0625 8.492188 -4.269531 C 8.492188 -6.605469 7.132812 -8.253906 4.734375 -8.253906 C 2.078125 -8.253906 0.769531 -6.398438 0.769531 -4.015625 C 0.769531 -1.597656 1.984375 0.257812 4.734375 0.257812 C 7.386719 0.257812 8.316406 -1.246094 8.476562 -2.460938 L 7.308594 -2.460938 C 7.070312 -1.457031 6.347656 -0.71875 4.78125 -0.71875 Z M 4.75 -7.277344 C 6.238281 -7.277344 7.179688 -6.507812 7.246094 -4.667969 L 2.0625 -4.667969 C 2.238281 -6.558594 3.230469 -7.277344 4.75 -7.277344 Z M 4.75 -7.277344 "/></g></g></g><g fill="#c01e3a" fill-opacity="1"><g transform="translate(192.911452, 401.310364)"><g><path d="M 5.375 -8.109375 C 3.855469 -8.109375 2.925781 -7.210938 2.445312 -5.886719 L 2.445312 -7.996094 L 1.167969 -7.996094 L 1.167969 0 L 2.445312 0 L 2.445312 -2.941406 C 2.445312 -5.199219 2.957031 -6.925781 5.324219 -6.84375 L 5.660156 -6.84375 L 5.660156 -8.109375 Z M 5.375 -8.109375 "/></g></g></g><g fill="#c01e3a" fill-opacity="1"><g transform="translate(198.748154, 401.310364)"><g><path d="M 0.609375 -2.671875 C 0.640625 -0.992188 1.695312 0.257812 4.300781 0.257812 C 6.429688 0.257812 7.566406 -0.542969 7.566406 -2.175781 C 7.566406 -3.488281 6.894531 -4.269531 5.054688 -4.542969 L 3.359375 -4.78125 C 2.351562 -4.925781 2.0625 -5.40625 2.0625 -5.964844 C 2.0625 -6.75 2.621094 -7.292969 3.980469 -7.292969 C 5.453125 -7.292969 6.0625 -6.539062 6.140625 -5.710938 L 7.40625 -5.710938 C 7.308594 -7.210938 6.109375 -8.269531 4.015625 -8.269531 C 2 -8.269531 0.816406 -7.355469 0.816406 -5.871094 C 0.816406 -4.636719 1.597656 -3.902344 2.992188 -3.710938 L 4.847656 -3.4375 C 5.851562 -3.292969 6.300781 -2.878906 6.300781 -2.109375 C 6.300781 -1.214844 5.742188 -0.71875 4.332031 -0.71875 C 2.496094 -0.71875 1.886719 -1.582031 1.792969 -2.671875 Z M 0.609375 -2.671875 "/></g></g></g><g fill="#c01e3a" fill-opacity="1"><g transform="translate(206.679695, 401.310364)"><g><path d="M 4.796875 0.257812 C 7.484375 0.257812 8.8125 -1.617188 8.8125 -4.015625 C 8.8125 -6.382812 7.484375 -8.253906 4.796875 -8.253906 C 2.09375 -8.253906 0.769531 -6.398438 0.769531 -4.015625 C 0.769531 -1.597656 2.09375 0.257812 4.796875 0.257812 Z M 2.0625 -4 C 2.0625 -6.253906 2.992188 -7.210938 4.796875 -7.210938 C 6.605469 -7.210938 7.515625 -6.253906 7.515625 -4 C 7.515625 -1.757812 6.605469 -0.785156 4.796875 -0.785156 C 2.992188 -0.785156 2.0625 -1.757812 2.0625 -4 Z M 2.0625 -4 "/></g></g></g><g fill="#c01e3a" fill-opacity="1"><g transform="translate(215.938508, 401.310364)"><g><path d="M 5.515625 -8.253906 C 3.933594 -8.253906 2.941406 -7.355469 2.445312 -5.902344 L 2.445312 -7.996094 L 1.167969 -7.996094 L 1.167969 0 L 2.445312 0 L 2.445312 -3.054688 C 2.445312 -5.804688 3.390625 -7.179688 5.164062 -7.179688 C 6.332031 -7.179688 7.085938 -6.667969 7.085938 -4.957031 L 7.085938 0 L 8.363281 0 L 8.363281 -5.101562 C 8.363281 -7.164062 7.515625 -8.253906 5.515625 -8.253906 Z M 5.515625 -8.253906 "/></g></g></g><g fill="#c01e3a" fill-opacity="1"><g transform="translate(224.989435, 401.310364)"><g><path d="M 3.566406 0.207031 C 5.421875 0.207031 6.269531 -0.910156 6.574219 -1.871094 C 6.574219 -1.28125 6.621094 -0.6875 6.683594 0 L 7.851562 0 C 7.773438 -0.785156 7.757812 -1.40625 7.757812 -1.984375 L 7.757812 -5.820312 C 7.757812 -7.261719 6.765625 -8.269531 4.574219 -8.269531 C 2.367188 -8.269531 1.167969 -7.179688 1.121094 -5.484375 L 2.382812 -5.484375 C 2.460938 -6.523438 3.054688 -7.261719 4.621094 -7.261719 C 6.171875 -7.261719 6.589844 -6.636719 6.589844 -5.820312 C 6.589844 -5.214844 6.238281 -4.988281 5.390625 -4.847656 L 3.359375 -4.511719 C 1.632812 -4.222656 0.925781 -3.40625 0.925781 -2.109375 C 0.925781 -0.589844 2.03125 0.207031 3.566406 0.207031 Z M 3.820312 -0.800781 C 2.878906 -0.800781 2.222656 -1.246094 2.222656 -2.160156 C 2.222656 -3.023438 2.734375 -3.4375 3.820312 -3.664062 L 5.148438 -3.933594 C 5.757812 -4.0625 6.1875 -4.191406 6.589844 -4.476562 L 6.589844 -3.789062 C 6.589844 -2.269531 5.710938 -0.800781 3.820312 -0.800781 Z M 3.820312 -0.800781 "/></g></g></g><g fill="#c01e3a" fill-opacity="1"><g transform="translate(233.432699, 401.310364)"><g><path d="M 1.152344 0 L 2.429688 0 L 2.429688 -11.195312 L 1.152344 -11.195312 Z M 1.152344 0 "/></g></g></g><g fill="#c01e3a" fill-opacity="1"><g transform="translate(236.694827, 401.310364)"><g/></g></g><g fill="#c01e3a" fill-opacity="1"><g transform="translate(239.972936, 401.310364)"><g><path d="M 5.4375 -8.253906 C 3.964844 -8.253906 2.957031 -7.613281 2.414062 -6.476562 L 2.414062 -11.195312 L 1.136719 -11.195312 L 1.136719 0 L 2.414062 0 L 2.414062 -1.535156 C 2.957031 -0.398438 3.964844 0.257812 5.4375 0.257812 C 7.949219 0.257812 9.101562 -1.550781 9.101562 -4 C 9.101562 -6.460938 7.949219 -8.253906 5.4375 -8.253906 Z M 5.179688 -0.785156 C 3.488281 -0.785156 2.414062 -1.742188 2.414062 -4 C 2.414062 -6.253906 3.488281 -7.210938 5.179688 -7.210938 C 7.003906 -7.210938 7.804688 -6.15625 7.804688 -4 C 7.804688 -1.855469 7.003906 -0.785156 5.179688 -0.785156 Z M 5.179688 -0.785156 "/></g></g></g><g fill="#c01e3a" fill-opacity="1"><g transform="translate(249.535575, 401.310364)"><g><path d="M 5.375 -8.109375 C 3.855469 -8.109375 2.925781 -7.210938 2.445312 -5.886719 L 2.445312 -7.996094 L 1.167969 -7.996094 L 1.167969 0 L 2.445312 0 L 2.445312 -2.941406 C 2.445312 -5.199219 2.957031 -6.925781 5.324219 -6.84375 L 5.660156 -6.84375 L 5.660156 -8.109375 Z M 5.375 -8.109375 "/></g></g></g><g fill="#c01e3a" fill-opacity="1"><g transform="translate(255.372277, 401.310364)"><g><path d="M 3.566406 0.207031 C 5.421875 0.207031 6.269531 -0.910156 6.574219 -1.871094 C 6.574219 -1.28125 6.621094 -0.6875 6.683594 0 L 7.851562 0 C 7.773438 -0.785156 7.757812 -1.40625 7.757812 -1.984375 L 7.757812 -5.820312 C 7.757812 -7.261719 6.765625 -8.269531 4.574219 -8.269531 C 2.367188 -8.269531 1.167969 -7.179688 1.121094 -5.484375 L 2.382812 -5.484375 C 2.460938 -6.523438 3.054688 -7.261719 4.621094 -7.261719 C 6.171875 -7.261719 6.589844 -6.636719 6.589844 -5.820312 C 6.589844 -5.214844 6.238281 -4.988281 5.390625 -4.847656 L 3.359375 -4.511719 C 1.632812 -4.222656 0.925781 -3.40625 0.925781 -2.109375 C 0.925781 -0.589844 2.03125 0.207031 3.566406 0.207031 Z M 3.820312 -0.800781 C 2.878906 -0.800781 2.222656 -1.246094 2.222656 -2.160156 C 2.222656 -3.023438 2.734375 -3.4375 3.820312 -3.664062 L 5.148438 -3.933594 C 5.757812 -4.0625 6.1875 -4.191406 6.589844 -4.476562 L 6.589844 -3.789062 C 6.589844 -2.269531 5.710938 -0.800781 3.820312 -0.800781 Z M 3.820312 -0.800781 "/></g></g></g><g fill="#c01e3a" fill-opacity="1"><g transform="translate(263.815541, 401.310364)"><g><path d="M 5.515625 -8.253906 C 3.933594 -8.253906 2.941406 -7.355469 2.445312 -5.902344 L 2.445312 -7.996094 L 1.167969 -7.996094 L 1.167969 0 L 2.445312 0 L 2.445312 -3.054688 C 2.445312 -5.804688 3.390625 -7.179688 5.164062 -7.179688 C 6.332031 -7.179688 7.085938 -6.667969 7.085938 -4.957031 L 7.085938 0 L 8.363281 0 L 8.363281 -5.101562 C 8.363281 -7.164062 7.515625 -8.253906 5.515625 -8.253906 Z M 5.515625 -8.253906 "/></g></g></g><g fill="#c01e3a" fill-opacity="1"><g transform="translate(272.866468, 401.310364)"><g><path d="M 7.46875 -11.195312 L 7.46875 -6.476562 C 6.925781 -7.613281 5.917969 -8.253906 4.445312 -8.253906 C 1.933594 -8.253906 0.785156 -6.460938 0.785156 -4 C 0.785156 -1.550781 1.933594 0.257812 4.445312 0.257812 C 5.917969 0.257812 6.925781 -0.398438 7.46875 -1.535156 L 7.46875 0 L 8.746094 0 L 8.746094 -11.195312 Z M 4.703125 -0.785156 C 2.878906 -0.785156 2.078125 -1.855469 2.078125 -4 C 2.078125 -6.15625 2.878906 -7.210938 4.703125 -7.210938 C 6.398438 -7.210938 7.46875 -6.253906 7.46875 -4 C 7.46875 -1.742188 6.398438 -0.785156 4.703125 -0.785156 Z M 4.703125 -0.785156 "/></g></g></g><g fill="#c01e3a" fill-opacity="1"><g transform="translate(282.421389, 401.310364)"><g/></g></g><g fill="#c01e3a" fill-opacity="1"><g transform="translate(212.083968, 421.554045)"><g/></g></g><g fill="#2e2e2e" fill-opacity="1"><g transform="translate(97.049616, 283.513299)"><g><path d="M 10.484375 -12.527344 L 10.484375 -15.285156 L 1.332031 -15.285156 L 1.332031 -12.527344 L 4.160156 -12.527344 L 4.160156 -2.78125 L 1.332031 -2.78125 L 1.332031 0 L 10.484375 0 L 10.484375 -2.78125 L 7.65625 -2.78125 L 7.65625 -12.527344 Z M 10.484375 -12.527344 "/></g></g></g><g fill="#2e2e2e" fill-opacity="1"><g transform="translate(108.863944, 283.513299)"><g><path d="M 8.875 -11.863281 C 6.78125 -11.863281 5.472656 -10.804688 4.734375 -9.242188 L 4.734375 -11.492188 L 1.332031 -11.492188 L 1.332031 0 L 4.734375 0 L 4.734375 -5.21875 C 4.734375 -7.953125 5.746094 -9.101562 7.5625 -9.101562 C 8.964844 -9.101562 9.746094 -8.367188 9.746094 -6.527344 L 9.746094 0 L 13.148438 0 L 13.148438 -7.058594 C 13.148438 -10.070312 11.882812 -11.863281 8.875 -11.863281 Z M 8.875 -11.863281 "/></g></g></g><g fill="#2e2e2e" fill-opacity="1"><g transform="translate(123.183643, 283.513299)"><g><path d="M 0.851562 -5.746094 C 0.851562 -2.527344 2.734375 0.367188 7.21875 0.367188 C 11.265625 0.367188 13.171875 -2.046875 13.242188 -4.734375 L 9.929688 -4.734375 C 9.792969 -3.355469 8.988281 -2.296875 7.171875 -2.296875 C 5.332031 -2.296875 4.277344 -3.148438 4.277344 -5.746094 C 4.277344 -8.320312 5.378906 -9.195312 7.21875 -9.195312 C 8.964844 -9.195312 9.746094 -8.253906 9.863281 -6.828125 L 13.171875 -6.828125 C 13.078125 -9.65625 11.125 -11.863281 7.148438 -11.863281 C 2.691406 -11.863281 0.851562 -8.964844 0.851562 -5.746094 Z M 0.851562 -5.746094 "/></g></g></g><g fill="#2e2e2e" fill-opacity="1"><g transform="translate(137.181554, 283.513299)"><g><path d="M 8.160156 -11.679688 C 6.230469 -11.679688 5.195312 -10.667969 4.644531 -9.035156 L 4.644531 -11.492188 L 1.332031 -11.492188 L 1.332031 0 L 4.734375 0 L 4.734375 -4.527344 C 4.734375 -7.125 5.515625 -8.367188 7.792969 -8.367188 L 8.917969 -8.367188 L 8.917969 -11.679688 Z M 8.160156 -11.679688 "/></g></g></g><g fill="#2e2e2e" fill-opacity="1"><g transform="translate(146.628427, 283.513299)"><g><path d="M 7.101562 -1.976562 C 5.472656 -1.976562 4.390625 -2.691406 4.183594 -4.875 L 12.941406 -4.875 C 12.988281 -5.125 12.988281 -5.449219 12.988281 -5.792969 C 12.988281 -9.035156 11.378906 -11.863281 7.035156 -11.863281 C 2.78125 -11.863281 0.851562 -9.101562 0.851562 -5.769531 C 0.851562 -2.527344 2.550781 0.367188 7.035156 0.367188 C 11.171875 0.367188 12.644531 -1.632812 12.964844 -3.472656 L 9.699219 -3.472656 C 9.378906 -2.621094 8.597656 -1.976562 7.101562 -1.976562 Z M 7.082031 -9.5625 C 8.78125 -9.5625 9.632812 -8.6875 9.746094 -6.941406 L 4.207031 -6.941406 C 4.484375 -8.894531 5.449219 -9.5625 7.082031 -9.5625 Z M 7.082031 -9.5625 "/></g></g></g><g fill="#2e2e2e" fill-opacity="1"><g transform="translate(160.419471, 283.513299)"><g><path d="M 4.828125 0.300781 C 7.171875 0.300781 8.550781 -0.875 9.082031 -2.460938 C 9.082031 -1.515625 9.148438 -0.757812 9.265625 0 L 12.230469 0 C 12.113281 -0.988281 12.046875 -1.90625 12.046875 -2.988281 L 12.046875 -7.953125 C 12.046875 -10.390625 10.34375 -11.882812 6.851562 -11.882812 C 3.355469 -11.882812 1.332031 -10.207031 1.242188 -7.746094 L 4.574219 -7.746094 C 4.621094 -8.917969 5.355469 -9.539062 6.917969 -9.539062 C 8.460938 -9.539062 8.917969 -9.011719 8.917969 -8.207031 C 8.917969 -7.539062 8.550781 -7.242188 7.492188 -7.058594 L 4.78125 -6.597656 C 1.816406 -6.089844 1.011719 -4.894531 1.011719 -3.058594 C 1.011719 -0.988281 2.503906 0.300781 4.828125 0.300781 Z M 5.976562 -2.023438 C 5.058594 -2.023438 4.367188 -2.484375 4.367188 -3.402344 C 4.367188 -4.277344 4.851562 -4.710938 6.070312 -5.011719 L 7.035156 -5.242188 C 7.746094 -5.402344 8.320312 -5.5625 8.917969 -5.976562 L 8.917969 -5.472656 C 8.917969 -3.332031 7.769531 -2.023438 5.976562 -2.023438 Z M 5.976562 -2.023438 "/></g></g></g><g fill="#2e2e2e" fill-opacity="1"><g transform="translate(173.727827, 283.513299)"><g><path d="M 0.597656 -3.746094 C 0.667969 -1.5625 2.207031 0.367188 6.296875 0.367188 C 10.253906 0.367188 11.679688 -1.195312 11.679688 -3.449219 C 11.679688 -5.492188 10.644531 -6.667969 7.90625 -7.011719 L 5.492188 -7.289062 C 4.34375 -7.425781 4.046875 -7.886719 4.046875 -8.460938 C 4.046875 -9.195312 4.644531 -9.746094 6.113281 -9.746094 C 7.539062 -9.746094 8.253906 -9.082031 8.367188 -8.136719 L 11.515625 -8.136719 C 11.308594 -10.667969 9.21875 -11.882812 6.113281 -11.882812 C 3.058594 -11.882812 0.898438 -10.6875 0.898438 -8.136719 C 0.898438 -6.207031 2.070312 -5.058594 4.230469 -4.78125 L 6.804688 -4.460938 C 8.089844 -4.296875 8.414062 -3.792969 8.414062 -3.101562 C 8.414062 -2.296875 7.886719 -1.769531 6.34375 -1.769531 C 4.621094 -1.769531 3.792969 -2.644531 3.699219 -3.746094 Z M 0.597656 -3.746094 "/></g></g></g><g fill="#2e2e2e" fill-opacity="1"><g transform="translate(186.093794, 283.513299)"><g><path d="M 7.101562 -1.976562 C 5.472656 -1.976562 4.390625 -2.691406 4.183594 -4.875 L 12.941406 -4.875 C 12.988281 -5.125 12.988281 -5.449219 12.988281 -5.792969 C 12.988281 -9.035156 11.378906 -11.863281 7.035156 -11.863281 C 2.78125 -11.863281 0.851562 -9.101562 0.851562 -5.769531 C 0.851562 -2.527344 2.550781 0.367188 7.035156 0.367188 C 11.171875 0.367188 12.644531 -1.632812 12.964844 -3.472656 L 9.699219 -3.472656 C 9.378906 -2.621094 8.597656 -1.976562 7.101562 -1.976562 Z M 7.082031 -9.5625 C 8.78125 -9.5625 9.632812 -8.6875 9.746094 -6.941406 L 4.207031 -6.941406 C 4.484375 -8.894531 5.449219 -9.5625 7.082031 -9.5625 Z M 7.082031 -9.5625 "/></g></g></g><g fill="#2e2e2e" fill-opacity="1"><g transform="translate(199.884838, 283.513299)"><g><path d="M 10.253906 -16.089844 L 10.253906 -9.769531 C 9.449219 -11.082031 8.113281 -11.863281 6.136719 -11.863281 C 2.390625 -11.863281 0.851562 -9.035156 0.851562 -5.769531 C 0.851562 -2.4375 2.390625 0.367188 6.136719 0.367188 C 8.113281 0.367188 9.449219 -0.390625 10.253906 -1.699219 L 10.253906 0 L 13.65625 0 L 13.65625 -16.089844 Z M 7.195312 -2.296875 C 5.035156 -2.296875 4.253906 -3.378906 4.253906 -5.746094 C 4.253906 -8.136719 5.035156 -9.195312 7.195312 -9.195312 C 9.332031 -9.195312 10.253906 -8.089844 10.253906 -5.746094 C 10.253906 -3.402344 9.332031 -2.296875 7.195312 -2.296875 Z M 7.195312 -2.296875 "/></g></g></g><g fill="#2e2e2e" fill-opacity="1"><g transform="translate(214.802156, 283.513299)"><g/></g></g><g fill="#2e2e2e" fill-opacity="1"><g transform="translate(220.617384, 283.513299)"><g><path d="M 4.828125 -2.78125 L 4.828125 -6.503906 L 12.644531 -6.503906 L 12.644531 -9.101562 L 4.828125 -9.101562 L 4.828125 -12.527344 L 13.332031 -12.527344 L 13.332031 -15.285156 L 1.332031 -15.285156 L 1.332031 0 L 13.402344 0 L 13.402344 -2.78125 Z M 4.828125 -2.78125 "/></g></g></g><g fill="#2e2e2e" fill-opacity="1"><g transform="translate(235.166935, 283.513299)"><g><path d="M 0.253906 0 L 4.023438 0 L 6.4375 -3.585938 L 8.894531 0 L 12.875 0 L 8.484375 -5.792969 L 12.667969 -11.492188 L 8.988281 -11.492188 L 6.644531 -7.863281 L 4.207031 -11.492188 L 0.207031 -11.492188 L 4.550781 -5.609375 Z M 0.253906 0 "/></g></g></g><g fill="#2e2e2e" fill-opacity="1"><g transform="translate(248.176488, 283.513299)"><g><path d="M 8.78125 -11.863281 C 6.804688 -11.863281 5.492188 -11.101562 4.691406 -9.839844 L 4.691406 -11.492188 L 1.289062 -11.492188 L 1.289062 4.597656 L 4.691406 4.597656 L 4.691406 -1.679688 C 5.492188 -0.390625 6.804688 0.367188 8.78125 0.367188 C 12.550781 0.367188 14.089844 -2.484375 14.089844 -5.746094 C 14.089844 -9.058594 12.550781 -11.863281 8.78125 -11.863281 Z M 7.746094 -2.296875 C 5.585938 -2.296875 4.691406 -3.402344 4.691406 -5.746094 C 4.691406 -8.089844 5.585938 -9.195312 7.746094 -9.195312 C 9.90625 -9.195312 10.667969 -8.136719 10.667969 -5.746094 C 10.667969 -3.378906 9.90625 -2.296875 7.746094 -2.296875 Z M 7.746094 -2.296875 "/></g></g></g><g fill="#2e2e2e" fill-opacity="1"><g transform="translate(263.093806, 283.513299)"><g><path d="M 7.21875 0.367188 C 11.816406 0.367188 13.585938 -2.574219 13.585938 -5.769531 C 13.585938 -8.917969 11.816406 -11.863281 7.21875 -11.863281 C 2.644531 -11.863281 0.851562 -8.941406 0.851562 -5.769531 C 0.851562 -2.550781 2.644531 0.367188 7.21875 0.367188 Z M 4.277344 -5.746094 C 4.277344 -8.296875 5.148438 -9.195312 7.21875 -9.195312 C 9.308594 -9.195312 10.183594 -8.296875 10.183594 -5.746094 C 10.183594 -3.195312 9.308594 -2.296875 7.21875 -2.296875 C 5.148438 -2.296875 4.277344 -3.195312 4.277344 -5.746094 Z M 4.277344 -5.746094 "/></g></g></g><g fill="#2e2e2e" fill-opacity="1"><g transform="translate(277.528436, 283.513299)"><g><path d="M 0.597656 -3.746094 C 0.667969 -1.5625 2.207031 0.367188 6.296875 0.367188 C 10.253906 0.367188 11.679688 -1.195312 11.679688 -3.449219 C 11.679688 -5.492188 10.644531 -6.667969 7.90625 -7.011719 L 5.492188 -7.289062 C 4.34375 -7.425781 4.046875 -7.886719 4.046875 -8.460938 C 4.046875 -9.195312 4.644531 -9.746094 6.113281 -9.746094 C 7.539062 -9.746094 8.253906 -9.082031 8.367188 -8.136719 L 11.515625 -8.136719 C 11.308594 -10.667969 9.21875 -11.882812 6.113281 -11.882812 C 3.058594 -11.882812 0.898438 -10.6875 0.898438 -8.136719 C 0.898438 -6.207031 2.070312 -5.058594 4.230469 -4.78125 L 6.804688 -4.460938 C 8.089844 -4.296875 8.414062 -3.792969 8.414062 -3.101562 C 8.414062 -2.296875 7.886719 -1.769531 6.34375 -1.769531 C 4.621094 -1.769531 3.792969 -2.644531 3.699219 -3.746094 Z M 0.597656 -3.746094 "/></g></g></g><g fill="#2e2e2e" fill-opacity="1"><g transform="translate(289.894414, 283.513299)"><g><path d="M 9.585938 -11.492188 L 9.585938 -6.277344 C 9.585938 -3.679688 8.527344 -2.414062 6.828125 -2.414062 C 5.378906 -2.414062 4.574219 -3.148438 4.574219 -4.964844 L 4.574219 -11.492188 L 1.171875 -11.492188 L 1.171875 -4.460938 C 1.171875 -1.449219 2.503906 0.367188 5.515625 0.367188 C 7.585938 0.367188 8.875 -0.667969 9.585938 -2.207031 L 9.585938 0 L 12.988281 0 L 12.988281 -11.492188 Z M 9.585938 -11.492188 "/></g></g></g><g fill="#2e2e2e" fill-opacity="1"><g transform="translate(304.214102, 283.513299)"><g><path d="M 8.160156 -11.679688 C 6.230469 -11.679688 5.195312 -10.667969 4.644531 -9.035156 L 4.644531 -11.492188 L 1.332031 -11.492188 L 1.332031 0 L 4.734375 0 L 4.734375 -4.527344 C 4.734375 -7.125 5.515625 -8.367188 7.792969 -8.367188 L 8.917969 -8.367188 L 8.917969 -11.679688 Z M 8.160156 -11.679688 "/></g></g></g><g fill="#2e2e2e" fill-opacity="1"><g transform="translate(313.660974, 283.513299)"><g><path d="M 7.101562 -1.976562 C 5.472656 -1.976562 4.390625 -2.691406 4.183594 -4.875 L 12.941406 -4.875 C 12.988281 -5.125 12.988281 -5.449219 12.988281 -5.792969 C 12.988281 -9.035156 11.378906 -11.863281 7.035156 -11.863281 C 2.78125 -11.863281 0.851562 -9.101562 0.851562 -5.769531 C 0.851562 -2.527344 2.550781 0.367188 7.035156 0.367188 C 11.171875 0.367188 12.644531 -1.632812 12.964844 -3.472656 L 9.699219 -3.472656 C 9.378906 -2.621094 8.597656 -1.976562 7.101562 -1.976562 Z M 7.082031 -9.5625 C 8.78125 -9.5625 9.632812 -8.6875 9.746094 -6.941406 L 4.207031 -6.941406 C 4.484375 -8.894531 5.449219 -9.5625 7.082031 -9.5625 Z M 7.082031 -9.5625 "/></g></g></g></svg>